<?xml version="1.0" standalone="no"?>
<!DOCTYPE svg PUBLIC "-//W3C//DTD SVG 1.1//EN" "http://www.w3.org/Graphics/SVG/1.1/DTD/svg11.dtd" >
<svg>
<metadata>
Created by FontForge 20120731 at Wed Dec 26 09:46:25 2018
 By www-data
Copyright (c) 2014 Indian Type Foundry (info@indiantypefoundry.com)
</metadata>
<defs>
<font id="Hind-Regular" horiz-adv-x="0" >
  <font-face 
    font-family="Hind"
    font-weight="400"
    font-stretch="normal"
    units-per-em="1000"
    panose-1="2 0 0 0 0 0 0 0 0 0"
    ascent="800"
    descent="-200"
    x-height="507"
    cap-height="674"
    bbox="-425 -440 2147 1003"
    underline-thickness="50"
    underline-position="-50"
    unicode-range="U+000D-FB02"
  />
<missing-glyph horiz-adv-x="751" 
d="M176 0v701h399v-701h-399zM235 646v-591h281v591h-281z" />
    <glyph glyph-name="fi" unicode="fi" horiz-adv-x="514" 
d="M445 507v-507h-79v443h-170v-443h-79v443h-87v64h87v47c0 97 54 160 153 160c54 0 99 -14 139 -34v-73c-43 22 -83 36 -136 36c-46 0 -77 -24 -77 -90v-46h249z" />
    <glyph glyph-name="fl" unicode="fl" horiz-adv-x="510" 
d="M117 507v47c0 98 54 160 152 160c63 0 124 -23 168 -49v-665h-78v627c-26 10 -54 16 -81 16c-45 0 -82 -18 -82 -90v-46h112v-64h-112v-443h-79v443h-87v64h87z" />
    <glyph glyph-name="f_f" unicode="ff" horiz-adv-x="578" 
d="M366 507v47c0 25 4 47 10 67c-28 13 -61 22 -99 22c-48 0 -81 -24 -81 -90v-46h170zM564 707v-72c-15 5 -30 8 -46 8c-38 0 -73 -24 -73 -90v-46h111v-64h-111v-443h-79v443h-170v-443h-79v443h-87v64h87v47c0 97 54 160 157 160c49 0 104 -16 139 -35
c25 22 60 35 102 35c13 0 34 -3 49 -7z" />
    <glyph glyph-name="f_f_i" unicode="ffi" horiz-adv-x="785" 
d="M366 507v47c0 25 4 47 10 67c-28 13 -61 22 -99 22c-48 0 -81 -24 -81 -90v-46h170zM694 507v-507h-79v443h-170v-443h-79v443h-170v-443h-79v443h-87v64h87v47c0 97 54 160 157 160c49 0 104 -17 140 -35c25 22 61 35 105 35c53 0 98 -14 139 -34v-73
c-43 22 -83 36 -136 36c-46 0 -77 -24 -77 -90v-46h249z" />
    <glyph glyph-name="f_f_l" unicode="ffl" horiz-adv-x="760" 
d="M367 507v47c0 25 3 47 10 67c-29 13 -62 22 -100 22c-48 0 -81 -24 -81 -90v-46h171zM117 507v47c0 97 54 160 157 160c49 0 104 -17 140 -35c26 22 61 35 105 35c63 0 123 -23 168 -49v-665h-79v627c-26 10 -53 16 -80 16c-45 0 -82 -18 -82 -90v-46h111v-64h-111v-443
h-79v443h-171v-443h-79v443h-87v64h87z" />
    <glyph glyph-name=".notdef" horiz-adv-x="751" 
d="M176 0v701h399v-701h-399zM235 646v-591h281v591h-281z" />
    <glyph glyph-name="NULL" 
 />
    <glyph glyph-name="NULL" 
 />
    <glyph glyph-name="CR" unicode="&#xd;" 
 />
    <glyph glyph-name="space" unicode=" " horiz-adv-x="244" 
 />
    <glyph glyph-name="dvA" unicode="&#x905;" horiz-adv-x="659" 
d="M681 642v-67h-116v-575h-78v260h-138c1 -7 1 -14 1 -22c0 -96 -71 -166 -198 -166c-45 0 -89 10 -122 24v74c38 -19 72 -31 121 -31c54 0 121 26 121 106c0 55 -39 91 -125 91h-34v70h32c73 0 107 35 107 85c0 52 -29 82 -94 82c-37 0 -75 -12 -97 -24v74
c24 10 61 18 98 18c112 0 171 -57 171 -141c0 -70 -40 -113 -92 -127c34 -5 62 -21 82 -45h167v247h-91v67h285z" />
    <glyph glyph-name="dvAA" unicode="&#x906;" horiz-adv-x="924" 
d="M946 642v-67h-116v-575h-78v575h-187v-575h-78v260h-138c1 -7 1 -14 1 -22c0 -96 -71 -166 -198 -166c-45 0 -89 10 -122 24v74c38 -19 72 -31 121 -31c54 0 121 26 121 106c0 55 -39 91 -125 91h-34v70h32c73 0 107 35 107 85c0 52 -29 82 -94 82c-37 0 -75 -12 -97 -24
v74c24 10 61 18 98 18c112 0 171 -57 171 -141c0 -70 -40 -113 -92 -127c34 -5 62 -21 82 -45h167v247h-91v67h550z" />
    <glyph glyph-name="dvI" unicode="&#x907;" horiz-adv-x="481" 
d="M395 426h-160c-55 0 -90 -22 -90 -62c0 -41 36 -58 125 -64c118 -7 181 -50 181 -142c0 -85 -70 -152 -168 -152c-54 0 -105 18 -140 49v-115h-77v228h71c21 -55 78 -97 143 -97c54 0 93 35 93 86c0 45 -32 72 -116 77c-103 5 -191 33 -191 128c0 83 69 131 167 131h83
v82h-338v67h525v-67h-108v-149z" />
    <glyph glyph-name="dvII" unicode="&#x908;" horiz-adv-x="481" 
d="M393 426h-158c-55 0 -90 -22 -90 -62c0 -41 36 -58 125 -64c118 -7 181 -50 181 -142c0 -85 -70 -152 -168 -152c-54 0 -105 18 -140 49v-115h-77v228h71c21 -55 78 -97 143 -97c54 0 93 35 93 86c0 45 -32 72 -116 77c-103 5 -191 33 -191 128c0 83 69 131 167 131h81
v82h-336v67h315c-17 20 -33 52 -33 95c0 75 54 138 145 138c27 0 52 -5 71 -14v-71c-17 8 -41 15 -67 15c-44 0 -70 -30 -70 -74c0 -34 20 -69 38 -89h126v-67h-110v-149z" />
    <glyph glyph-name="dvU" unicode="&#x909;" horiz-adv-x="428" 
d="M451 642v-67h-130c21 -23 35 -58 35 -93c0 -75 -43 -119 -104 -136c66 -6 138 -57 138 -150c0 -103 -77 -177 -222 -177c-53 0 -98 11 -138 26v72c35 -17 78 -31 132 -31c86 0 149 35 149 115c0 70 -63 110 -154 110h-46v68h46c86 0 120 39 120 103c0 37 -19 72 -42 93
h-257v67h473z" />
    <glyph glyph-name="dvUU" unicode="&#x90a;" horiz-adv-x="693" 
d="M714 642v-67h-393c21 -23 35 -58 35 -93c0 -75 -43 -119 -104 -136c34 -3 70 -18 96 -45c19 61 78 103 141 103c117 0 176 -74 176 -181c0 -112 -67 -193 -177 -193c-8 0 -17 1 -23 3v65c5 -2 12 -2 17 -2c68 0 105 45 105 126c0 66 -30 116 -97 116
c-66 0 -100 -66 -100 -137v0v-5c0 -103 -77 -177 -222 -177c-53 0 -98 11 -138 26v72c35 -17 78 -31 132 -31c86 0 149 35 149 115c0 70 -63 110 -154 110h-46v68h46c86 0 120 39 120 103c0 37 -19 72 -42 93h-257v67h736z" />
    <glyph glyph-name="dvvR" unicode="&#x90b;" horiz-adv-x="817" 
d="M442 575v-228l140 81v57h72v-91c0 -56 26 -84 88 -84h9v-65h-37c-61 0 -97 -29 -97 -76c0 -46 39 -66 82 -66c29 0 64 8 92 23v-67c-27 -14 -62 -21 -98 -21c-79 0 -153 41 -153 128c0 57 34 103 93 121c-26 14 -41 38 -47 68l-144 -84v-271h-79v231l-312 -188v81
l224 133c-19 71 -53 130 -141 130c-43 0 -68 -9 -95 -22v75c28 13 64 20 99 20c91 0 167 -49 200 -165l25 15v265h-385v67h862v-67h-398z" />
    <glyph glyph-name="dvvRR" unicode="&#x960;" horiz-adv-x="795" 
d="M429 575v-228l141 82v56h72v-91c0 -56 26 -84 88 -84h8v-65h-37c-64 0 -94 -23 -94 -67c0 -36 27 -61 86 -61h26v-65h-21c-49 0 -76 -27 -76 -66c0 -43 36 -64 86 -64c32 0 63 8 90 21v-66c-28 -14 -62 -21 -98 -21c-85 0 -157 42 -157 122c0 45 23 83 61 101
c-44 14 -75 47 -75 97c0 58 36 95 95 110c-28 13 -44 38 -51 69l-144 -85v-270h-79v230l-312 -187v81l224 133c-19 71 -53 130 -140 130c-43 0 -68 -9 -95 -22v75c28 13 64 20 99 20c90 0 166 -49 199 -165l25 14v266h-385v67h862v-67h-398z" />
    <glyph glyph-name="dvvL" unicode="&#x90c;" horiz-adv-x="761" 
d="M665 575v-408c-82 -2 -114 -42 -114 -88c0 -39 32 -71 94 -71c34 0 57 5 86 16v-65c-24 -8 -52 -14 -82 -14c-99 0 -175 46 -175 137c0 64 41 113 112 130v180c-15 8 -39 17 -69 17c-66 0 -108 -38 -108 -127v-72h-78v74c0 83 -34 119 -88 119c-56 0 -102 -46 -102 -141
c0 -106 53 -196 173 -196c18 0 34 2 47 7v-66c-15 -4 -36 -7 -58 -7c-147 0 -240 114 -240 263c0 119 66 206 172 206c73 0 123 -35 136 -94c15 64 65 98 140 98c33 0 59 -8 75 -14v116h-608v67h805v-67h-118z" />
    <glyph glyph-name="dvvLL" unicode="&#x961;" horiz-adv-x="778" 
d="M679 575v-275c0 -123 -112 -149 -112 -219c0 -39 31 -64 82 -64h27v-66h-51c-50 0 -76 -30 -76 -72c0 -38 30 -76 85 -76c37 0 60 8 76 14v-67c-18 -7 -46 -14 -80 -14c-95 0 -162 59 -162 143c0 56 32 94 73 110c-38 24 -53 53 -53 91c0 99 112 113 112 220v119h-74
c-83 0 -117 -35 -117 -135v-54h-79v55c0 106 -47 136 -98 136c-68 0 -113 -49 -113 -145c0 -118 52 -194 163 -216l-2 -68c-145 24 -240 118 -240 285c0 120 67 210 186 210c79 0 125 -36 144 -93c19 64 70 90 152 90h78v91h-615v67h800v-67h-106z" />
    <glyph glyph-name="dvE" unicode="&#x90f;" horiz-adv-x="555" 
d="M577 642v-67h-88v-146c0 -91 -57 -154 -164 -154c-15 0 -32 2 -45 6v65c10 -4 25 -6 39 -6c65 0 92 35 92 93v142h-248v-316c0 -117 72 -159 174 -159c47 0 103 12 141 32v-72c-38 -16 -95 -26 -147 -26c-140 0 -246 62 -246 224v317h-107v67h599z" />
    <glyph glyph-name="dvAI" unicode="&#x910;" horiz-adv-x="555" 
d="M577 642v-67h-88v-146c0 -91 -57 -154 -164 -154c-15 0 -32 2 -45 6v65c10 -4 25 -6 39 -6c65 0 92 35 92 93v142h-248v-316c0 -117 72 -159 174 -159c47 0 103 12 141 32v-72c-38 -16 -95 -26 -147 -26c-140 0 -246 62 -246 224v317h-107v67h421l-82 125
c-25 38 -50 52 -91 52c-23 0 -45 -5 -50 -6v68c6 1 29 6 54 6c68 0 113 -28 153 -90l102 -155h92z" />
    <glyph glyph-name="dvO" unicode="&#x913;" horiz-adv-x="925" 
d="M829 642h110v-67h-116v-575h-78v575h-180v-575h-78v260h-138c1 -7 1 -14 1 -22c0 -96 -71 -166 -198 -166c-45 0 -89 10 -122 24v74c38 -19 72 -31 121 -31c54 0 121 26 121 106c0 55 -39 91 -125 91h-34v70h32c73 0 107 35 107 85c0 52 -29 82 -94 82
c-37 0 -75 -12 -97 -24v74c24 10 61 18 98 18c112 0 171 -57 171 -141c0 -70 -40 -113 -92 -127c34 -5 62 -21 82 -45h167v247h-91v67h347l-82 125c-25 38 -50 52 -91 52c-23 0 -45 -5 -50 -6v68c6 1 29 6 54 6c68 0 113 -28 153 -90z" />
    <glyph glyph-name="dvAU" unicode="&#x914;" horiz-adv-x="925" 
d="M837 642h110v-67h-116v-575h-78v575h-188v-575h-78v260h-138c1 -7 1 -14 1 -22c0 -96 -71 -166 -198 -166c-45 0 -89 10 -122 24v74c38 -19 72 -31 121 -31c54 0 121 26 121 106c0 55 -39 91 -125 91h-34v70h32c73 0 107 35 107 85c0 52 -29 82 -94 82
c-37 0 -75 -12 -97 -24v74c24 10 61 18 98 18c112 0 171 -57 171 -141c0 -70 -40 -113 -92 -127c34 -5 62 -21 82 -45h167v247h-91v67h332c-62 47 -108 73 -166 73c-23 0 -55 -8 -58 -9v70c3 1 30 8 54 8c58 0 97 -23 152 -71l62 -55l-92 118c-29 37 -66 56 -118 56
c-24 0 -54 -6 -58 -7v68c3 1 33 6 61 6c74 0 127 -31 168 -95z" />
    <glyph glyph-name="dvEcandra" unicode="&#x90d;" horiz-adv-x="555" 
d="M395 896h77c0 -105 -84 -157 -178 -157c-96 0 -178 49 -178 157h78c0 -53 34 -95 100 -95c67 0 101 42 101 95zM577 642v-67h-88v-146c0 -91 -57 -154 -164 -154c-15 0 -32 2 -45 6v65c10 -4 25 -6 39 -6c65 0 92 35 92 93v142h-248v-316c0 -117 72 -159 174 -159
c47 0 103 12 141 32v-72c-38 -16 -95 -26 -147 -26c-140 0 -246 62 -246 224v317h-107v67h599z" />
    <glyph glyph-name="dvAcandra" unicode="&#x972;" horiz-adv-x="659" 
d="M627 896h77c0 -105 -84 -157 -178 -157c-96 0 -178 49 -178 157h78c0 -53 34 -95 100 -95s101 42 101 95zM396 575v67h285v-67h-116v-575h-78v260h-138c1 -7 1 -14 1 -22c0 -96 -71 -166 -198 -166c-45 0 -89 10 -122 24v74c38 -19 72 -31 121 -31c54 0 121 26 121 106
c0 55 -39 91 -125 91h-34v70h32c73 0 107 35 107 85c0 52 -29 82 -94 82c-37 0 -75 -12 -97 -24v74c24 10 61 18 98 18c112 0 171 -57 171 -141c0 -70 -40 -113 -92 -127c34 -5 62 -21 82 -45h167v247h-91z" />
    <glyph glyph-name="dvOcandra" unicode="&#x911;" horiz-adv-x="924" 
d="M770 896h77c0 -105 -84 -157 -178 -157c-96 0 -178 49 -178 157h78c0 -53 34 -95 100 -95s101 42 101 95zM946 642v-67h-116v-575h-78v575h-187v-575h-78v260h-138c1 -7 1 -14 1 -22c0 -96 -71 -166 -198 -166c-45 0 -89 10 -122 24v74c38 -19 72 -31 121 -31
c54 0 121 26 121 106c0 55 -39 91 -125 91h-34v70h32c73 0 107 35 107 85c0 52 -29 82 -94 82c-37 0 -75 -12 -97 -24v74c24 10 61 18 98 18c112 0 171 -57 171 -141c0 -70 -40 -113 -92 -127c34 -5 62 -21 82 -45h167v247h-91v67h550z" />
    <glyph glyph-name="dvmAA" unicode="&#x93e;" horiz-adv-x="266" 
d="M-22 575v67h310v-67h-116v-575h-78v575h-116z" />
    <glyph glyph-name="dvmI" unicode="&#x93f;" horiz-adv-x="265" 
d="M657 788v-75c-122 75 -282 113 -371 113c-75 0 -114 -43 -114 -109v-75h115v-67h-115v-575h-78v575h-116v67h116v76c0 105 68 179 189 179c122 0 264 -49 374 -109z" />
    <glyph glyph-name="dvmII" unicode="&#x940;" horiz-adv-x="265" 
d="M171 642h116v-67h-115v-575h-78v575h-116v67h114v84c0 68 -42 101 -96 101c-55 0 -93 -32 -93 -101v-18h-78v20c0 119 80 168 171 168s175 -49 175 -168v-86z" />
    <glyph glyph-name="dvmU" unicode="&#x941;" 
d="M-424 -155v89c47 -52 160 -132 259 -132c66 0 100 33 100 77c0 43 -31 67 -78 67c-45 0 -93 -30 -98 -33v71c6 2 45 26 99 26c107 0 154 -56 154 -131c0 -85 -68 -143 -174 -143c-100 0 -211 62 -262 109z" />
    <glyph glyph-name="dvmUU" unicode="&#x942;" 
d="M-96 -186v-64c-13 -4 -31 -5 -42 -5c-81 0 -148 46 -148 135c0 71 59 132 148 132c180 0 235 -179 235 -297h-73c0 112 -50 232 -157 232c-46 0 -76 -29 -76 -68c0 -48 40 -70 81 -70c12 0 23 1 32 5z" />
    <glyph glyph-name="dvmvR" unicode="&#x943;" 
d="M-308 -140c0 79 61 132 136 135v14h78v-73h-48c-54 0 -88 -28 -88 -77c0 -40 24 -72 80 -72c27 0 55 9 74 22v-64c-20 -13 -50 -21 -78 -21c-92 0 -154 55 -154 136z" />
    <glyph glyph-name="dvmvRR" unicode="&#x944;" 
d="M-104 -250h-12c-50 0 -77 -26 -77 -62c0 -37 28 -61 82 -61c29 0 58 5 78 14v-67c-24 -9 -54 -14 -89 -14c-82 0 -152 39 -152 120c0 44 22 75 55 93c-53 15 -85 51 -85 104c0 67 52 114 132 118v14h78v-72h-36c-55 0 -94 -18 -94 -62c0 -42 37 -58 98 -58h22v-67z" />
    <glyph glyph-name="dvmvL" unicode="&#x962;" 
d="M30 -200c-46 -4 -61 -24 -61 -45c0 -20 13 -35 43 -35c18 0 37 3 53 11v-44c-16 -6 -31 -9 -51 -9c-58 0 -102 26 -102 77c0 34 22 61 60 71v94c-7 3 -18 6 -29 6c-31 0 -50 -18 -50 -63v-41h-59v41c0 42 -13 61 -39 61s-46 -25 -46 -73c0 -50 25 -100 82 -100
c10 0 21 1 35 6v-44c-11 -3 -23 -5 -38 -5c-84 0 -137 62 -137 143c0 67 39 116 100 116c36 0 66 -21 73 -54c6 34 40 55 77 55c35 0 68 -11 89 -28v-140z" />
    <glyph glyph-name="dvmvLL" unicode="&#x963;" 
d="M41 -322h-6c-27 0 -44 -16 -44 -38c0 -21 16 -36 47 -36c22 0 42 8 57 18v-45c-15 -7 -38 -14 -65 -14c-49 0 -96 23 -96 71c0 28 16 52 43 62c-40 7 -65 29 -65 64c0 33 23 60 60 66v94c-7 3 -18 6 -29 6c-31 0 -50 -18 -50 -63v-41h-59v41c0 42 -13 61 -39 61
s-45 -25 -45 -73c0 -50 24 -100 81 -100c10 0 21 1 35 6v-44c-11 -3 -23 -5 -38 -5c-84 0 -137 62 -137 143c0 67 39 116 100 116c36 0 66 -21 73 -54c6 34 40 55 77 55c34 0 64 -11 85 -28v-140c-35 0 -57 -14 -57 -41c0 -25 21 -37 60 -37h12v-44z" />
    <glyph glyph-name="dvmE" unicode="&#x947;" 
d="M-406 813v68c6 1 29 6 54 6c68 0 113 -28 153 -90l107 -162h-86l-87 132c-25 38 -50 52 -91 52c-23 0 -45 -5 -50 -6z" />
    <glyph glyph-name="dvmAI" unicode="&#x948;" 
d="M-193 804l109 -169h-105c-67 51 -114 80 -175 80c-23 0 -55 -8 -58 -9v70c3 1 30 8 54 8c58 0 97 -23 152 -71l62 -55l-92 118c-29 37 -66 56 -118 56c-24 0 -54 -6 -58 -7v68c3 1 33 6 61 6c74 0 127 -31 168 -95z" />
    <glyph glyph-name="dvmO" unicode="&#x94b;" horiz-adv-x="265" 
d="M169 642h118v-67h-116v-575h-77v575h-116v67h105l-82 125c-25 38 -50 52 -91 52c-23 0 -45 -5 -50 -6v68c6 1 29 6 54 6c68 0 113 -28 153 -90z" />
    <glyph glyph-name="dvmAU" unicode="&#x94c;" horiz-adv-x="265" 
d="M175 642h112v-67h-115v-575h-78v575h-116v67h88c-62 47 -108 73 -166 73c-23 0 -55 -8 -58 -9v70c3 1 30 8 54 8c58 0 97 -23 152 -71l62 -55l-92 118c-29 37 -66 56 -118 56c-24 0 -54 -6 -58 -7v68c3 1 33 6 61 6c74 0 127 -31 168 -95z" />
    <glyph glyph-name="dvmEcandra" unicode="&#x945;" 
d="M-133 739c-96 0 -178 49 -178 157h78c0 -53 34 -95 100 -95s101 42 101 95h77c0 -105 -84 -157 -178 -157z" />
    <glyph glyph-name="dvmOcandra" unicode="&#x949;" horiz-adv-x="266" 
d="M-22 575v67h310v-67h-116v-575h-78v575h-116zM130 739c-96 0 -178 49 -178 157h77c0 -53 35 -95 101 -95s100 42 100 95h78c0 -105 -84 -157 -178 -157z" />
    <glyph glyph-name="dvKA" unicode="&#x915;" horiz-adv-x="771" 
d="M793 575h-368v-143c28 29 69 48 117 48c109 0 184 -73 184 -181c0 -120 -90 -191 -199 -191c-8 0 -17 1 -23 2v67c5 -1 14 -2 20 -2c69 0 123 45 123 124c0 67 -46 116 -114 116c-57 0 -108 -45 -108 -107v-308h-79v144c-28 -29 -69 -46 -116 -46
c-109 0 -184 72 -184 180c0 120 90 192 198 192c9 0 18 -1 23 -3v-66c-5 1 -13 1 -19 1c-69 0 -124 -44 -124 -123c0 -68 47 -117 115 -117c57 0 107 45 107 108v305h-368v67h815v-67z" />
    <glyph glyph-name="dvKHA" unicode="&#x916;" horiz-adv-x="779" 
d="M801 642v-67h-115v-575h-79v180c-32 -33 -74 -47 -120 -47c-89 0 -167 65 -167 165c0 106 79 168 169 168c16 0 34 -2 48 -5v-65c-13 4 -26 5 -38 5c-57 0 -102 -42 -102 -104s42 -101 103 -101c57 0 107 42 107 110v269h-309v-142c0 -97 -67 -150 -163 -154l-12 -1
l220 -278h-97l-215 279v65h67c88 0 122 37 122 97v134h-242v67h823z" />
    <glyph glyph-name="dvGA" unicode="&#x917;" horiz-adv-x="574" 
d="M-22 642h618v-67h-116v-575h-77v575h-175v-234c0 -84 -43 -132 -125 -132c-30 0 -56 6 -73 13v69s30 -14 61 -14c41 0 60 22 60 67v231h-173v67z" />
    <glyph glyph-name="dvGHA" unicode="&#x918;" horiz-adv-x="642" 
d="M471 330v245h-260c-37 -20 -56 -50 -56 -89c0 -63 55 -79 126 -79h48v-68h-59c-74 0 -121 -33 -121 -93c0 -62 61 -87 121 -87c114 0 201 80 201 171zM664 642v-67h-116v-575h-77v186c-38 -50 -114 -93 -207 -93c-115 0 -194 59 -194 153c0 71 47 112 117 126
c-53 6 -111 40 -111 112c0 36 14 67 42 91h-140v67h686z" />
    <glyph glyph-name="dvNGA" unicode="&#x919;" horiz-adv-x="574" 
d="M507 399c30 0 54 -23 54 -53s-24 -52 -54 -52s-52 22 -52 52s22 53 52 53zM-22 642h619v-67h-198v-151h-174c-42 0 -84 -16 -84 -63c0 -45 34 -64 135 -69c108 -3 180 -40 180 -138c-1 -90 -77 -155 -203 -155c-73 0 -141 18 -190 44v77c50 -31 124 -55 190 -55
c74 0 123 31 123 88c0 50 -37 70 -130 74c-117 5 -184 45 -184 132c0 89 71 132 160 132h99v84h-343v67z" />
    <glyph glyph-name="dvCA" unicode="&#x91a;" horiz-adv-x="634" 
d="M656 642v-67h-116v-575h-78v188c-29 -46 -89 -88 -183 -89c-105 0 -187 60 -187 163c0 59 29 101 78 125h-142v67h342v-67c-160 0 -200 -63 -200 -121c0 -67 49 -102 118 -102c116 0 174 86 174 163v248h-484v67h678z" />
    <glyph glyph-name="dvCHA" unicode="&#x91b;" horiz-adv-x="631" 
d="M427 481v94h-204c-42 -23 -62 -61 -62 -102c0 -58 48 -92 101 -92h30v-67h-38c-72 0 -110 -35 -110 -88c0 -65 67 -104 152 -104c115 0 201 67 201 186c0 65 -36 110 -112 110c-15 0 -34 -3 -43 -7v65c12 5 36 7 55 7c10 0 20 -1 30 -2zM653 575h-153v-117
c51 -29 76 -83 76 -149c0 -146 -119 -252 -280 -252c-132 0 -231 62 -231 168c0 72 47 120 113 127c-43 7 -95 49 -95 121c0 37 14 76 45 102h-150v67h675v-67z" />
    <glyph glyph-name="dvJA" unicode="&#x91c;" horiz-adv-x="650" 
d="M-22 642h694v-67h-116v-575h-78v384h-201c44 -26 72 -74 72 -141c0 -107 -79 -180 -199 -180c-46 0 -88 9 -120 22v72c31 -16 68 -28 112 -28c76 0 129 43 129 119c0 91 -68 136 -175 136v67h382v124h-500v67z" />
    <glyph glyph-name="dvJHA" unicode="&#x91d;" horiz-adv-x="759" 
d="M282 316h304v259h-180v-141h-160c-58 0 -92 -20 -92 -60c0 -41 36 -51 114 -57zM781 642v-67h-116v-575h-79v252h-163c19 -23 29 -51 29 -85c0 -87 -67 -152 -167 -152c-56 0 -108 18 -144 50v-113h-76v226h70c23 -56 83 -98 146 -98c56 0 93 32 93 85
c0 46 -33 80 -118 86c-102 6 -181 29 -181 121c0 83 68 129 166 129h86v74h-349v67h803z" />
    <glyph glyph-name="dvNYA" unicode="&#x91e;" horiz-adv-x="675" 
d="M697 642v-67h-116v-575h-79v258h-117c-9 -104 -89 -178 -211 -180c-70 0 -116 18 -152 36v74c36 -22 87 -42 146 -42c90 0 137 56 137 131c0 72 -45 123 -122 123c-31 0 -59 -6 -78 -14v67c17 7 49 13 79 13c110 0 180 -53 197 -141h121v250h-524v67h719z" />
    <glyph glyph-name="dvTTA" unicode="&#x91f;" horiz-adv-x="495" 
d="M315 88c53 0 112 20 142 38v-72c-31 -16 -90 -32 -145 -32c-149 0 -255 79 -255 216c0 130 103 219 247 220c8 0 16 0 24 -1v118h-350v67h539v-67h-111v-186c-19 3 -49 5 -70 5c-114 0 -198 -53 -198 -157c0 -97 73 -149 177 -149z" />
    <glyph glyph-name="dvTTHA" unicode="&#x920;" horiz-adv-x="564" 
d="M429 259c0 85 -61 128 -147 128c-72 0 -147 -36 -147 -127c0 -80 57 -134 147 -134c88 0 147 54 147 133zM586 575h-244v-129c95 -18 167 -81 167 -187c0 -116 -91 -197 -227 -197c-135 0 -227 80 -227 198c0 126 105 185 209 191v124h-286v67h608v-67z" />
    <glyph glyph-name="dvDDA" unicode="&#x921;" horiz-adv-x="521" 
d="M399 424h-174c-42 0 -84 -16 -84 -63c0 -45 34 -64 135 -69c108 -3 180 -40 180 -138c-1 -90 -77 -155 -203 -155c-73 0 -141 18 -190 44v77c50 -31 124 -55 190 -55c74 0 123 31 123 88c0 50 -37 70 -130 74c-117 5 -184 45 -184 132c0 89 71 132 160 132h99v84h-343v67
h565v-67h-144v-151z" />
    <glyph glyph-name="dvDDHA" unicode="&#x922;" horiz-adv-x="556" 
d="M266 212v65c26 13 60 21 94 21c92 0 141 -53 141 -123c0 -87 -77 -154 -201 -154c-139 0 -246 87 -246 223c0 125 98 224 254 225c14 0 30 -1 45 -3v109h-375v67h600v-67h-146v-183c-37 6 -70 10 -102 10c-123 0 -196 -67 -196 -159c0 -93 69 -157 167 -157
c69 0 123 32 123 88c0 36 -28 61 -73 61c-33 0 -65 -11 -85 -23z" />
    <glyph glyph-name="dvNNA" unicode="&#x923;" horiz-adv-x="743" 
d="M331 348v227h-183v-227c0 -65 24 -109 89 -109c61 0 94 33 94 109zM765 642v-67h-116v-575h-78v575h-162v-225c0 -114 -60 -177 -173 -177c-111 0 -166 57 -166 177v225h-92v67h787z" />
    <glyph glyph-name="dvTA" unicode="&#x924;" horiz-adv-x="587" 
d="M610 642v-67h-116v-575h-78v384h-95c-117 0 -177 -53 -177 -156c0 -95 46 -160 144 -160c7 0 17 0 23 1v-67c-8 -1 -18 -2 -30 -2c-136 0 -216 98 -216 229c0 128 80 223 247 223h104v123h-438v67h632z" />
    <glyph glyph-name="dvTHA" unicode="&#x925;" horiz-adv-x="639" 
d="M361 507c0 -115 -97 -176 -241 -211c19 -80 77 -121 161 -121c93 0 187 60 187 194v273h191v-67h-113v-575h-78v205c-22 -41 -94 -97 -191 -97c-120 0 -233 71 -249 234c170 36 256 82 256 164c0 42 -20 76 -66 76c-47 0 -67 -32 -67 -69c0 -32 8 -45 12 -56h-77
c-5 14 -12 30 -12 64c0 66 54 127 144 127c93 0 143 -64 143 -141z" />
    <glyph glyph-name="dvDA" unicode="&#x926;" horiz-adv-x="550" 
d="M-22 642h594v-67h-120v-167h-176c-90 0 -146 -49 -146 -133c0 -88 51 -139 129 -139c80 0 130 50 132 118h75v-264h-78v133c-26 -33 -78 -52 -135 -52c-127 0 -207 90 -207 201c0 115 78 202 224 202h104v101h-396v67z" />
    <glyph glyph-name="dvDHA" unicode="&#x927;" horiz-adv-x="634" 
d="M656 642v-67h-115v-575h-78v157c-31 -48 -99 -93 -192 -93c-130 0 -208 70 -208 160c0 77 55 121 127 130c-71 7 -122 45 -122 120c0 45 23 81 62 101h-152v67h310v-67h-1c-91 0 -140 -43 -140 -100c0 -64 63 -88 136 -88h50v-67h-59c-81 0 -131 -36 -131 -96
c0 -53 49 -93 132 -93c119 0 188 89 188 167v344h193z" />
    <glyph glyph-name="dvNA" unicode="&#x928;" horiz-adv-x="490" 
d="M-22 642h534v-67h-115v-575h-79v329h-177c-24 0 -32 -12 -32 -39c0 -22 5 -50 13 -74h-66c-12 24 -28 63 -28 104c0 45 27 75 87 75h203v180h-340v67z" />
    <glyph glyph-name="dvPA" unicode="&#x92a;" horiz-adv-x="553" 
d="M381 382v193h-234v-201c0 -97 35 -134 106 -134c67 0 128 51 128 142zM575 642v-67h-115v-575h-79v238c-28 -37 -72 -61 -133 -62c-113 0 -180 58 -180 199v200h-90v67h597z" />
    <glyph glyph-name="dvPHA" unicode="&#x92b;" horiz-adv-x="791" 
d="M381 382v193h-234v-201c0 -97 35 -130 106 -130c67 0 128 47 128 138zM813 575h-353v-138c29 30 70 47 118 47c109 0 182 -74 182 -180c0 -122 -91 -191 -198 -191c-9 0 -18 0 -24 2v67c6 -1 14 -2 20 -2c69 0 123 42 123 124c0 68 -46 116 -112 116
c-60 0 -109 -47 -109 -110v-310h-79v238c-28 -35 -72 -58 -133 -59c-115 0 -180 51 -180 192v204h-90v67h835v-67z" />
    <glyph glyph-name="dvBA" unicode="&#x92c;" horiz-adv-x="615" 
d="M372 173l-212 206c-19 -24 -29 -56 -29 -93c0 -83 59 -141 141 -141c40 0 74 10 100 28zM638 642v-67h-116v-575h-78v163c-34 -46 -98 -82 -179 -82c-112 0 -210 81 -210 206c0 122 92 208 219 208c30 0 57 -4 83 -10v-69c-28 9 -55 13 -78 13c-30 0 -57 -6 -78 -17
l209 -205c22 28 34 63 34 99v269h-466v67h660z" />
    <glyph glyph-name="dvBHA" unicode="&#x92d;" horiz-adv-x="555" 
d="M383 347v295h194v-67h-116v-575h-78v281h-196v-137h-70l-24 56c-14 31 -27 63 -27 89c0 28 17 50 42 55v170c0 44 -11 65 -46 65c-19 0 -41 -5 -56 -13v65c18 9 44 15 70 15c78 0 111 -42 111 -119v-180h196z" />
    <glyph glyph-name="dvMA" unicode="&#x92e;" horiz-adv-x="572" 
d="M-22 575v67h616v-67h-115v-575h-78v280h-210v-136h-68l-25 56c-13 31 -27 65 -27 90c0 27 17 47 42 53v232h-135zM401 575h-210v-229h210v229z" />
    <glyph glyph-name="dvYA" unicode="&#x92f;" horiz-adv-x="625" 
d="M292 125c-120 0 -220 84 -241 242c109 17 163 63 163 119c0 39 -15 70 -31 89h-205v67h669v-67h-115v-575h-78v194c-32 -43 -89 -69 -162 -69zM299 192c92 0 155 55 155 142v241h-187c15 -23 25 -55 25 -93c0 -94 -70 -140 -148 -164c16 -72 75 -126 155 -126z" />
    <glyph glyph-name="dvRA" unicode="&#x930;" horiz-adv-x="376" 
d="M31 279v65h67c88 0 122 35 122 96v135h-242v67h420v-67h-100v-142c0 -96 -66 -151 -162 -154h-11l212 -279h-95z" />
    <glyph glyph-name="dvLA" unicode="&#x932;" horiz-adv-x="734" 
d="M756 642v-67h-116v-575h-79v396c-14 7 -33 13 -54 13c-66 0 -108 -38 -108 -127v-72h-78v74c0 83 -32 119 -87 119s-101 -46 -101 -141c0 -106 53 -196 173 -196c6 0 17 0 27 2v-65c-12 -2 -27 -3 -38 -3c-147 0 -240 114 -240 263c0 119 66 206 172 206
c73 0 121 -35 134 -94c15 64 65 98 140 98c24 0 45 -5 60 -11v113h-583v67h778z" />
    <glyph glyph-name="dvVA" unicode="&#x935;" horiz-adv-x="574" 
d="M596 642v-67h-116v-575h-78v166c-30 -43 -84 -75 -160 -75c-101 0 -195 69 -195 191c0 109 81 191 198 191c22 0 47 -3 63 -8v-69c-17 6 -37 9 -59 9c-69 0 -123 -48 -123 -122c0 -79 55 -128 124 -128c98 0 152 78 152 158v262h-424v67h618z" />
    <glyph glyph-name="dvSHA" unicode="&#x936;" horiz-adv-x="668" 
d="M163 442h-77c-10 21 -13 43 -13 64c0 72 52 137 145 137c103 0 165 -80 165 -173c0 -143 -115 -214 -226 -214h-33l230 -256h-103l-221 253v70h99c111 0 176 54 176 145c0 75 -36 107 -87 107c-49 0 -70 -36 -70 -76c0 -21 5 -40 15 -57zM495 642h195v-67h-116v-575h-79
v642z" />
    <glyph glyph-name="dvSSA" unicode="&#x937;" horiz-adv-x="580" 
d="M408 373v202h-248l244 -240c3 12 4 24 4 38zM153 511v-137c0 -97 51 -140 124 -140c41 0 82 18 106 54zM602 642v-67h-116v-575h-78v229c-31 -36 -82 -58 -137 -59c-115 0 -195 60 -195 201v204h-98v67h624z" />
    <glyph glyph-name="dvSA" unicode="&#x938;" horiz-adv-x="635" 
d="M243 333h221v242h-194v-143c0 -42 -9 -75 -27 -99zM657 642v-67h-115v-575h-78v265h-168c-84 0 -137 4 -170 9l184 -274h-95l-187 282v62h66c80 0 98 34 98 94v137h-214v67h679z" />
    <glyph glyph-name="dvHA" unicode="&#x939;" horiz-adv-x="530" 
d="M440 418h-240c-31 0 -56 -8 -56 -45c0 -38 25 -65 47 -76c28 10 60 15 97 15c117 0 170 -67 170 -134c0 -18 -3 -39 -11 -56h-77c11 15 14 36 14 52c0 39 -29 73 -97 73c-93 0 -140 -48 -140 -99c0 -62 50 -113 174 -113c35 0 82 6 125 18v-67c-53 -13 -92 -17 -131 -17
c-168 0 -246 94 -246 180c0 44 21 87 63 118c-29 19 -67 54 -67 116c0 66 53 100 122 100h176v92h-385v67h575v-67h-113v-157z" />
    <glyph glyph-name="dvLLA" unicode="&#x933;" horiz-adv-x="798" 
d="M673 282c0 70 -45 118 -119 118c-95 0 -109 -94 -136 -174c31 -37 79 -69 136 -69c73 0 119 50 119 125zM239 157c95 0 103 101 133 179c-25 29 -71 64 -132 64c-72 0 -115 -53 -115 -125s45 -118 114 -118zM820 575h-221v-115c93 -16 153 -85 153 -179
c0 -116 -87 -190 -195 -190c-80 0 -136 33 -172 73c-28 -42 -70 -73 -147 -73c-112 0 -192 71 -192 185c0 113 82 189 190 189c87 0 140 -38 169 -68c25 32 60 58 118 65v113h-545v67h842v-67z" />
    <glyph glyph-name="dvK_SSA" horiz-adv-x="751" 
d="M271 583c-54 0 -90 -39 -90 -85c0 -59 37 -91 95 -103c44 15 84 41 84 104c0 41 -39 84 -89 84zM580 642h196v-67h-116v-575h-79l-1 325h-248c-25 0 -48 2 -71 7c-69 -21 -129 -62 -129 -127c0 -58 46 -94 104 -94c68 0 123 48 139 117h72v-228h-77v112
c-19 -36 -80 -67 -140 -67c-107 0 -179 64 -179 158c0 78 57 133 128 161c-46 30 -75 76 -75 135c0 75 66 149 163 149c102 0 170 -67 170 -145c0 -56 -24 -90 -58 -114h201v253z" />
    <glyph glyph-name="dvJ_NYA" horiz-adv-x="722" 
d="M-30 642h811v-67h-132v-575h-78v424h-322c-54 0 -91 -18 -91 -58c0 -38 29 -59 120 -60c105 -1 179 -40 179 -137c0 -92 -78 -152 -171 -152c-58 0 -109 19 -144 51v-116h-77v226h71c22 -54 81 -98 146 -98c57 0 95 37 95 89c0 60 -54 73 -127 73
c-112 0 -173 44 -173 121c0 83 72 128 170 128h324v84h-601v67z" />
    <glyph glyph-name="dvKxA" unicode="&#x958;" horiz-adv-x="771" 
d="M154 13c30 0 54 -24 54 -53c0 -30 -24 -52 -54 -52s-52 22 -52 52c0 29 22 53 52 53zM793 575h-368v-143c28 29 69 48 117 48c109 0 184 -73 184 -181c0 -120 -90 -191 -199 -191c-8 0 -17 1 -23 2v67c5 -1 14 -2 20 -2c69 0 123 45 123 124c0 67 -46 116 -114 116
c-57 0 -108 -45 -108 -107v-308h-79v144c-28 -29 -69 -46 -116 -46c-109 0 -184 72 -184 180c0 120 90 192 198 192c9 0 18 -1 23 -3v-66c-5 1 -13 1 -19 1c-69 0 -124 -44 -124 -123c0 -68 47 -117 115 -117c57 0 107 45 107 108v305h-368v67h815v-67z" />
    <glyph glyph-name="dvKHxA" unicode="&#x959;" horiz-adv-x="779" 
d="M74 19c30 0 54 -24 54 -53c0 -30 -24 -52 -54 -52s-52 22 -52 52c0 29 22 53 52 53zM801 642v-67h-115v-575h-79v180c-32 -33 -74 -47 -120 -47c-89 0 -167 65 -167 165c0 106 79 168 169 168c16 0 34 -2 48 -5v-65c-13 4 -26 5 -38 5c-57 0 -102 -42 -102 -104
s42 -101 103 -101c57 0 107 42 107 110v269h-309v-142c0 -97 -67 -150 -163 -154l-12 -1l220 -278h-97l-215 279v65h67c88 0 122 37 122 97v134h-242v67h823z" />
    <glyph glyph-name="dvGxA" unicode="&#x95a;" horiz-adv-x="574" 
d="M129 83c30 0 54 -24 54 -53c0 -30 -24 -52 -54 -52s-52 22 -52 52c0 29 22 53 52 53zM-22 642h618v-67h-116v-575h-77v575h-175v-234c0 -84 -43 -132 -125 -132c-30 0 -56 6 -73 13v69s30 -14 61 -14c41 0 60 22 60 67v231h-173v67z" />
    <glyph glyph-name="dvJxA" unicode="&#x95b;" horiz-adv-x="650" 
d="M154 -33c30 0 54 -24 54 -53c0 -30 -24 -52 -54 -52s-52 22 -52 52c0 29 22 53 52 53zM-22 642h694v-67h-116v-575h-78v384h-201c44 -26 72 -74 72 -141c0 -107 -79 -180 -199 -180c-46 0 -88 9 -120 22v72c31 -16 68 -28 112 -28c76 0 129 43 129 119
c0 91 -68 136 -175 136v67h382v124h-500v67z" />
    <glyph glyph-name="dvDDxA" unicode="&#x95c;" horiz-adv-x="521" 
d="M248 -83c30 0 54 -24 54 -53c0 -30 -24 -52 -54 -52s-52 22 -52 52c0 29 22 53 52 53zM399 424h-174c-42 0 -84 -16 -84 -63c0 -45 34 -64 135 -69c108 -3 180 -40 180 -138c-1 -90 -77 -155 -203 -155c-73 0 -141 18 -190 44v77c50 -31 124 -55 190 -55
c74 0 123 31 123 88c0 50 -37 70 -130 74c-117 5 -184 45 -184 132c0 89 71 132 160 132h99v84h-343v67h565v-67h-144v-151z" />
    <glyph glyph-name="dvDDHxA" unicode="&#x95d;" horiz-adv-x="556" 
d="M266 212v65c26 13 60 21 94 21c92 0 141 -53 141 -123c0 -87 -77 -154 -201 -154c-139 0 -246 87 -246 223c0 125 98 224 254 225c14 0 30 -1 45 -3v109h-375v67h600v-67h-146v-183c-37 6 -70 10 -102 10c-123 0 -196 -67 -196 -159c0 -93 69 -157 167 -157
c69 0 123 32 123 88c0 36 -28 61 -73 61c-33 0 -65 -11 -85 -23zM247 -128c0 29 22 53 52 53s54 -24 54 -53c0 -30 -24 -52 -54 -52s-52 22 -52 52z" />
    <glyph glyph-name="dvPHxA" unicode="&#x95e;" horiz-adv-x="791" 
d="M140 67c30 0 54 -24 54 -53c0 -30 -24 -52 -54 -52s-52 22 -52 52c0 29 22 53 52 53zM381 382v193h-234v-201c0 -97 35 -130 106 -130c67 0 128 47 128 138zM813 575h-353v-138c29 30 70 47 118 47c109 0 182 -74 182 -180c0 -122 -91 -191 -198 -191c-9 0 -18 0 -24 2
v67c6 -1 14 -2 20 -2c69 0 123 42 123 124c0 68 -46 116 -112 116c-60 0 -109 -47 -109 -110v-310h-79v238c-28 -35 -72 -58 -133 -59c-115 0 -180 51 -180 192v204h-90v67h835v-67z" />
    <glyph glyph-name="dvRxA" unicode="&#x931;" horiz-adv-x="376" 
d="M31 279v65h67c88 0 122 35 122 96v135h-242v67h420v-67h-100v-142c0 -96 -66 -151 -162 -154h-11l212 -279h-95zM-26 12c0 29 22 53 53 53c30 0 53 -24 53 -53c0 -30 -23 -52 -53 -52c-31 0 -53 22 -53 52z" />
    <glyph glyph-name="dvK" horiz-adv-x="519" 
d="M425 575v-143c28 29 69 48 117 48c52 0 98 -18 130 -48l-55 -54c-19 23 -48 37 -84 37c-57 0 -108 -45 -108 -107v-308h-79v144c-28 -29 -69 -46 -116 -46c-109 0 -184 72 -184 180c0 120 90 192 198 192c9 0 18 -1 23 -3v-66c-5 1 -13 1 -19 1c-69 0 -124 -44 -124 -123
c0 -68 47 -117 115 -117c57 0 107 45 107 108v305h-368v67h563v-67h-116z" />
    <glyph glyph-name="dvKH" horiz-adv-x="583" 
d="M535 282v-61c-17 -7 -36 -11 -54 -11c-75 0 -137 52 -137 132c0 83 68 149 159 149c101 0 187 -60 187 -192c0 -134 -106 -257 -287 -257c-175 0 -294 122 -338 267v65h66c69 0 75 29 75 95v106h-228v67h627v-67h-320v-117c0 -93 -26 -144 -113 -148c-2 -1 -14 -2 -16 -2
c27 -104 121 -197 252 -197c129 0 210 77 210 188c0 73 -35 129 -111 129c-57 0 -87 -40 -87 -84s30 -72 70 -72c14 0 29 2 45 10z" />
    <glyph glyph-name="dvG" horiz-adv-x="304" 
d="M326 642v-67h-98v-234c0 -84 -43 -132 -125 -132c-30 0 -56 6 -73 13v69s30 -14 61 -14c41 0 60 22 60 67v231h-173v67h348z" />
    <glyph glyph-name="dvGH" horiz-adv-x="363" 
d="M434 233l31 -55c-45 -51 -119 -85 -201 -85c-115 0 -194 59 -194 153c0 71 47 112 117 126c-53 6 -111 40 -111 112c0 36 14 67 42 91h-140v67h407v-67h-174c-37 -20 -56 -50 -56 -89c0 -63 55 -79 126 -79h48v-68h-59c-74 0 -121 -33 -121 -93c0 -62 61 -87 121 -87
c63 0 126 25 164 74z" />
    <glyph glyph-name="dvNG" horiz-adv-x="574" 
d="M227 -68h80l140 -165h-97zM507 399c30 0 54 -23 54 -53s-24 -52 -54 -52s-52 22 -52 52s22 53 52 53zM-22 642h619v-67h-198v-151h-174c-42 0 -84 -16 -84 -63c0 -45 34 -64 135 -69c108 -3 180 -40 180 -138c-1 -90 -77 -155 -203 -155c-73 0 -141 18 -190 44v77
c50 -31 124 -55 190 -55c74 0 123 31 123 88c0 50 -37 70 -130 74c-117 5 -184 45 -184 132c0 89 71 132 160 132h99v84h-343v67z" />
    <glyph glyph-name="dvC" horiz-adv-x="386" 
d="M408 642v-67h-430v67h430zM477 280l37 -49c-31 -66 -115 -132 -228 -132c-110 0 -194 57 -194 162c0 57 28 101 77 126h-141v67h342v-67c-160 0 -200 -63 -200 -121c0 -63 52 -102 122 -102c87 0 158 59 185 116z" />
    <glyph glyph-name="dvCH" horiz-adv-x="623" 
d="M645 575h-422c-42 -23 -62 -61 -62 -102c0 -58 48 -92 101 -92h30v-67h-38c-72 0 -110 -35 -110 -88c0 -65 67 -104 152 -104c115 0 201 67 201 186c0 65 -36 110 -112 110c-15 0 -34 -3 -43 -7v65c12 5 36 7 55 7c120 0 179 -73 179 -174c0 -146 -119 -252 -280 -252
c-132 0 -231 62 -231 168c0 72 47 120 113 127c-43 7 -95 49 -95 121c0 37 14 76 45 102h-150v67h667v-67z" />
    <glyph glyph-name="dvJ" horiz-adv-x="422" 
d="M444 642v-67h-466v67h466zM545 451v-67h-268c44 -26 72 -74 72 -141c0 -107 -79 -180 -199 -180c-46 0 -88 9 -120 22v72c31 -16 68 -28 112 -28c76 0 129 43 129 119c0 91 -68 136 -175 136v67h449z" />
    <glyph glyph-name="dvJH" horiz-adv-x="538" 
d="M649 316v-64h-226c19 -23 29 -51 29 -85c0 -87 -67 -152 -167 -152c-56 0 -108 18 -144 50v-113h-76v226h70c23 -56 83 -98 146 -98c56 0 93 32 93 85c0 46 -33 80 -118 86c-102 6 -181 29 -181 121c0 83 68 129 166 129h86v74h-349v67h582v-67h-154v-141h-160
c-58 0 -92 -20 -92 -60c0 -41 36 -51 114 -57l14 -1h367z" />
    <glyph glyph-name="dvNY" horiz-adv-x="455" 
d="M477 642v-67h-499v67h499zM564 325v-67h-179c-9 -104 -89 -178 -211 -180c-70 0 -116 18 -152 36v74c36 -22 87 -42 146 -42c90 0 137 56 137 131c0 72 -45 123 -122 123c-31 0 -59 -6 -78 -14v67c17 7 49 13 79 13c110 0 180 -53 197 -141h183z" />
    <glyph glyph-name="dvTT" horiz-adv-x="495" 
d="M494 -211h-97l-123 165h80zM315 88c53 0 112 20 142 38v-72c-31 -16 -90 -32 -145 -32c-149 0 -255 79 -255 216c0 130 103 219 247 220c8 0 16 0 24 -1v118h-350v67h539v-67h-111v-186c-19 3 -49 5 -70 5c-114 0 -198 -53 -198 -157c0 -97 73 -149 177 -149z" />
    <glyph glyph-name="dvTTH" horiz-adv-x="564" 
d="M244 -6h80l140 -165h-97zM429 259c0 85 -61 128 -147 128c-72 0 -147 -36 -147 -127c0 -80 57 -134 147 -134c88 0 147 54 147 133zM586 575h-244v-129c95 -18 167 -81 167 -187c0 -116 -91 -197 -227 -197c-135 0 -227 80 -227 198c0 126 105 185 209 191v124h-286v67
h608v-67z" />
    <glyph glyph-name="dvDD" horiz-adv-x="521" 
d="M222 -68h80l140 -165h-97zM399 424h-174c-42 0 -84 -16 -84 -63c0 -45 34 -64 135 -69c108 -3 180 -40 180 -138c-1 -90 -77 -155 -203 -155c-73 0 -141 18 -190 44v77c50 -31 124 -55 190 -55c74 0 123 31 123 88c0 50 -37 70 -130 74c-117 5 -184 45 -184 132
c0 89 71 132 160 132h99v84h-343v67h565v-67h-144v-151z" />
    <glyph glyph-name="dvDDH" horiz-adv-x="556" 
d="M482 -212h-97l-123 165h80zM266 212v65c26 13 60 21 94 21c92 0 141 -53 141 -123c0 -87 -77 -154 -201 -154c-139 0 -246 87 -246 223c0 125 98 224 254 225c14 0 30 -1 45 -3v109h-375v67h600v-67h-146v-183c-37 6 -70 10 -102 10c-123 0 -196 -67 -196 -159
c0 -93 69 -157 167 -157c69 0 123 32 123 88c0 36 -28 61 -73 61c-33 0 -65 -11 -85 -23z" />
    <glyph glyph-name="dvNN" horiz-adv-x="496" 
d="M334 348v227h-183v-227c0 -65 24 -109 89 -109c62 0 94 33 94 109zM518 642v-67h-105v-225c0 -114 -61 -177 -174 -177c-111 0 -166 57 -166 177v225h-95v67h540z" />
    <glyph glyph-name="dvT" horiz-adv-x="381" 
d="M534 384h-213c-117 0 -177 -53 -177 -156c0 -95 46 -160 144 -160c7 0 17 0 23 1v-67c-8 -1 -18 -2 -30 -2c-136 0 -216 98 -216 229c0 128 80 223 247 223h222v-68zM-22 575v67h425v-67h-425z" />
    <glyph glyph-name="dvTH" horiz-adv-x="431" 
d="M361 507c0 -115 -97 -176 -241 -211c19 -81 89 -121 173 -121c83 0 170 47 216 111l40 -56c-57 -66 -146 -122 -256 -122c-129 0 -247 66 -265 234c170 36 256 82 256 164c0 42 -20 76 -66 76c-47 0 -67 -32 -67 -69c0 -32 8 -45 12 -56h-77c-5 14 -12 30 -12 64
c0 66 54 127 144 127c93 0 143 -64 143 -141z" />
    <glyph glyph-name="dvD" horiz-adv-x="550" 
d="M611 -243h-97l-123 165h80zM-22 642h594v-67h-120v-167h-176c-90 0 -146 -49 -146 -133c0 -88 51 -139 129 -139c80 0 130 50 132 118h75v-264h-78v133c-26 -33 -78 -52 -135 -52c-127 0 -207 90 -207 201c0 115 78 202 224 202h104v101h-396v67z" />
    <glyph glyph-name="dvDH" horiz-adv-x="426" 
d="M512 263l42 -57c-53 -69 -146 -142 -281 -142c-131 0 -210 70 -210 160c0 77 55 121 127 130c-71 7 -122 45 -122 120c0 45 23 81 62 101h-152v67h310v-67h-1c-91 0 -140 -43 -140 -100c0 -64 63 -88 136 -88h50v-67h-59c-81 0 -131 -36 -131 -96c0 -53 49 -93 134 -93
c107 0 182 57 235 132z" />
    <glyph glyph-name="dvN" horiz-adv-x="265" 
d="M-22 575v67h310v-67h-310zM115 395h266v-66h-240c-24 0 -32 -12 -32 -39c0 -22 5 -50 13 -74h-66c-12 24 -28 63 -28 104c0 45 27 75 87 75z" />
    <glyph glyph-name="dvP" horiz-adv-x="338" 
d="M406 350l47 -43c-33 -65 -103 -131 -205 -131c-114 0 -180 58 -180 199v200h-90v67h382v-67h-213v-201c0 -97 35 -134 106 -134c68 0 127 46 153 110z" />
    <glyph glyph-name="dvPH" horiz-adv-x="616" 
d="M147 575v-201c0 -97 35 -130 106 -130c67 0 128 47 128 138v193h-234zM460 575v-138c29 30 71 47 122 47c83 0 139 -42 170 -98l-60 -46c-22 50 -63 80 -116 80c-65 0 -116 -45 -116 -110v-310h-79v238c-28 -35 -72 -58 -133 -59c-115 0 -180 51 -180 192v204h-90v67h660
v-67h-178z" />
    <glyph glyph-name="dvB" horiz-adv-x="379" 
d="M401 642v-67h-423v67h423zM375 170l-215 209c-19 -24 -29 -56 -29 -93c0 -83 62 -141 145 -141c40 0 73 10 99 25zM464 259l45 -45c-52 -74 -125 -133 -237 -133c-117 0 -217 81 -217 206c0 122 92 208 219 208c30 0 57 -4 83 -10v-69c-28 9 -55 13 -78 13
c-30 0 -57 -6 -78 -17l215 -211c19 18 34 38 48 58z" />
    <glyph glyph-name="dvBH" horiz-adv-x="326" 
d="M421 347v-66h-234v-137h-70l-24 56c-14 31 -27 63 -27 89c0 28 17 50 42 55v170c0 44 -11 65 -46 65c-19 0 -41 -5 -56 -13v65c18 9 44 15 70 15c78 0 111 -42 111 -119v-180h234z" />
    <glyph glyph-name="dvM" horiz-adv-x="351" 
d="M461 347v-69h-270v-135h-68l-25 56c-13 31 -27 64 -27 90c0 28 17 49 42 55v231h-135v67h396v-67h-183v-228h270z" />
    <glyph glyph-name="dvY" horiz-adv-x="386" 
d="M408 575h-141c15 -23 25 -55 25 -93c0 -94 -70 -140 -148 -164c17 -73 76 -126 157 -126c68 0 131 37 155 101l52 -42c-29 -59 -96 -126 -213 -126c-123 0 -222 82 -244 242c109 17 163 63 163 119c0 39 -15 70 -31 89h-205v67h430v-67z" />
    <glyph glyph-name="dvR" horiz-adv-x="376" 
d="M31 279v65h67c88 0 122 35 122 96v135h-242v67h420v-67h-100v-142c0 -96 -66 -151 -162 -154h-11l212 -279h-95zM333 -233h-97l-123 165h80z" />
    <glyph glyph-name="dvL" horiz-adv-x="478" 
d="M333 68v-65c-12 -2 -27 -3 -38 -3c-147 0 -240 114 -240 263c0 119 66 206 172 206c73 0 121 -35 134 -94c15 64 66 98 138 98c55 0 95 -21 125 -54l-44 -48c-14 18 -40 38 -77 38c-61 0 -104 -38 -104 -127v-72h-78v74c0 83 -32 119 -87 119s-101 -46 -101 -141
c0 -106 53 -196 173 -196c6 0 17 0 27 2zM-22 575v67h523v-67h-523z" />
    <glyph glyph-name="dvV" horiz-adv-x="339" 
d="M308 465v-69c-17 7 -37 9 -59 9c-69 0 -123 -50 -123 -123c0 -78 60 -127 138 -127c81 0 130 44 167 98l37 -51c-35 -55 -105 -111 -211 -111c-112 0 -210 67 -210 191c0 109 81 191 198 191c22 0 47 -3 63 -8zM361 575h-383v67h383v-67z" />
    <glyph glyph-name="dvSH" horiz-adv-x="430" 
d="M157 256h-33l230 -256h-103l-221 253v70h99c111 0 176 54 176 145c0 75 -36 107 -87 107c-49 0 -70 -36 -70 -76c0 -21 5 -40 15 -57h-77c-10 21 -13 43 -13 64c0 72 52 137 145 137c103 0 165 -80 165 -173c0 -143 -115 -214 -226 -214z" />
    <glyph glyph-name="dvSS" horiz-adv-x="349" 
d="M153 511v-137c0 -97 51 -140 124 -140c40 0 77 15 111 50zM428 335l38 -44c-31 -60 -100 -120 -193 -121c-117 0 -197 60 -197 201v204h-98v67h393v-67h-211l259 -254z" />
    <glyph glyph-name="dvS" horiz-adv-x="390" 
d="M493 265h-197c-84 0 -137 4 -170 9l184 -274h-95l-187 282v62h66c80 0 98 34 98 94v137h-214v67h434v-67h-142v-143c0 -42 -9 -75 -27 -99h250v-68z" />
    <glyph glyph-name="dvH" horiz-adv-x="530" 
d="M249 -99h80l140 -165h-97zM-22 642h575v-67h-113v-157h-240c-31 0 -56 -8 -56 -45c0 -38 25 -65 47 -76c28 10 60 15 97 15c117 0 170 -67 170 -134c0 -18 -3 -39 -11 -56h-77c11 15 14 36 14 52c0 39 -29 73 -97 73c-93 0 -140 -48 -140 -99c0 -62 50 -113 174 -113
c35 0 82 6 125 18v-67c-53 -13 -92 -17 -131 -17c-168 0 -246 94 -246 180c0 44 21 87 63 118c-29 19 -67 54 -67 116c0 66 53 100 122 100h176v92h-385v67z" />
    <glyph glyph-name="dvLL" horiz-adv-x="798" 
d="M557 91c-80 0 -136 33 -172 73c-28 -42 -70 -73 -147 -73c-112 0 -192 71 -192 185c0 113 82 189 190 189c87 0 140 -38 169 -68c29 38 72 67 150 67c118 0 197 -75 197 -183c0 -116 -87 -190 -195 -190zM554 400c-95 0 -109 -94 -136 -174c31 -37 79 -69 136 -69
c73 0 119 50 119 125c0 70 -45 118 -119 118zM239 157c95 0 103 101 133 179c-25 29 -71 64 -132 64c-72 0 -115 -53 -115 -125s45 -118 114 -118zM-22 575v67h842v-67h-842z" />
    <glyph glyph-name="dvK_SS" horiz-adv-x="531" 
d="M271 583c-54 0 -90 -39 -90 -85c0 -59 37 -91 95 -103c44 15 84 41 84 104c0 41 -39 84 -89 84zM647 325h-315c-25 0 -48 2 -71 7c-69 -21 -129 -62 -129 -127c0 -58 46 -94 104 -94c68 0 123 48 139 117h72v-228h-77v112c-19 -36 -80 -67 -140 -67
c-107 0 -179 64 -179 158c0 78 57 133 128 161c-46 30 -75 76 -75 135c0 75 66 149 163 149c102 0 170 -67 170 -145c0 -56 -24 -90 -58 -114h268v-64z" />
    <glyph glyph-name="dvJ_NY" horiz-adv-x="513" 
d="M535 642v-67h-565v67h565zM708 402h-459c-54 0 -91 -14 -91 -55c0 -38 29 -49 120 -50c105 -1 179 -37 179 -135c0 -92 -78 -145 -171 -145c-58 0 -109 19 -144 51v-116h-77v226h71c22 -54 81 -98 146 -98c57 0 95 31 95 82c0 61 -54 71 -127 71c-112 0 -173 34 -173 112
c0 83 72 124 170 124h461v-67z" />
    <glyph glyph-name="dvKx" horiz-adv-x="527" 
d="M154 13c30 0 54 -24 54 -53c0 -30 -24 -52 -54 -52s-52 22 -52 52c0 29 22 53 52 53zM425 575v-143c28 29 69 48 117 48c52 0 98 -18 130 -48l-55 -54c-19 23 -48 37 -84 37c-57 0 -108 -45 -108 -107v-308h-79v144c-28 -29 -69 -46 -116 -46c-109 0 -184 72 -184 180
c0 120 90 192 198 192c9 0 18 -1 23 -3v-66c-5 1 -13 1 -19 1c-69 0 -124 -44 -124 -123c0 -68 47 -117 115 -117c57 0 107 45 107 108v305h-368v67h563v-67h-116z" />
    <glyph glyph-name="dvKHx" horiz-adv-x="581" 
d="M84 47c30 0 54 -24 54 -53c0 -30 -24 -52 -54 -52s-52 22 -52 52c0 29 22 53 52 53zM535 282v-61c-17 -7 -36 -11 -54 -11c-75 0 -137 52 -137 132c0 83 68 149 159 149c101 0 187 -60 187 -192c0 -134 -106 -257 -287 -257c-175 0 -294 122 -338 267v65h66
c69 0 75 29 75 95v106h-228v67h627v-67h-320v-117c0 -93 -26 -144 -113 -148c-2 -1 -14 -2 -16 -2c27 -104 121 -197 252 -197c129 0 210 77 210 188c0 73 -35 129 -111 129c-57 0 -87 -40 -87 -84s30 -72 70 -72c14 0 29 2 45 10z" />
    <glyph glyph-name="dvGx" horiz-adv-x="320" 
d="M129 83c30 0 54 -24 54 -53c0 -30 -24 -52 -54 -52s-52 22 -52 52c0 29 22 53 52 53zM342 642v-67h-114v-234c0 -84 -43 -132 -125 -132c-30 0 -56 6 -73 13v69s30 -14 61 -14c41 0 60 22 60 67v231h-173v67h364z" />
    <glyph glyph-name="dvJx" horiz-adv-x="423" 
d="M444 642v-67h-466v67h466zM154 -33c30 0 54 -24 54 -53c0 -30 -24 -52 -54 -52s-52 22 -52 52c0 29 22 53 52 53zM545 451v-67h-268c44 -26 72 -74 72 -141c0 -107 -79 -180 -199 -180c-46 0 -88 9 -120 22v72c31 -16 68 -28 112 -28c76 0 129 43 129 119
c0 91 -68 136 -175 136v67h449z" />
    <glyph glyph-name="dvPHx" horiz-adv-x="606" 
d="M140 67c30 0 54 -24 54 -53c0 -30 -24 -52 -54 -52s-52 22 -52 52c0 29 22 53 52 53zM147 575v-201c0 -97 35 -130 106 -130c67 0 128 47 128 138v193h-234zM460 575v-138c29 30 71 47 122 47c83 0 139 -42 170 -98l-60 -46c-22 50 -63 80 -116 80
c-65 0 -116 -45 -116 -110v-310h-79v238c-28 -35 -72 -58 -133 -59c-115 0 -180 51 -180 192v204h-90v67h660v-67h-178z" />
    <glyph glyph-name="dvAnusvara" unicode="&#x902;" 
d="M-189 783c0 30 23 55 54 55s55 -25 55 -55c0 -31 -24 -53 -55 -53s-54 22 -54 53z" />
    <glyph glyph-name="dvCandrabindu" unicode="&#x901;" 
d="M-136 739c-96 0 -180 49 -180 157h78c0 -53 36 -95 102 -95s103 42 103 95h77c0 -105 -86 -157 -180 -157zM-186 951c0 29 21 52 51 52c29 0 52 -23 52 -52c0 -30 -23 -51 -52 -51c-30 0 -51 21 -51 51z" />
    <glyph glyph-name="dvVisarga" unicode="&#x903;" horiz-adv-x="298" 
d="M60 484c0 30 22 54 53 54s55 -24 55 -54c0 -31 -24 -54 -55 -54s-53 23 -53 54zM60 156c0 30 22 55 53 55s55 -25 55 -55c0 -31 -24 -53 -55 -53s-53 22 -53 53z" />
    <glyph glyph-name="dvAvagraha" unicode="&#x93d;" horiz-adv-x="453" 
d="M227 -3c-94 0 -169 29 -209 53v83c63 -41 145 -66 211 -66c87 0 124 49 124 95c0 135 -333 200 -333 364c0 71 47 116 128 116h257v-70h-248c-32 0 -56 -15 -56 -49c0 -98 331 -185 331 -357c0 -82 -60 -169 -205 -169z" />
    <glyph glyph-name="dvVirama" unicode="&#x94d;" 
d="M58 -233h-97l-123 165h80z" />
    <glyph glyph-name="dvNukta" unicode="&#x93c;" 
d="M-326 -128c0 29 22 53 52 53s54 -24 54 -53c0 -30 -24 -52 -54 -52s-52 22 -52 52z" />
    <glyph glyph-name="dvZero" unicode="&#x966;" horiz-adv-x="539" 
d="M41 329c0 207 92 333 226 333c140 0 232 -126 232 -333c0 -198 -81 -337 -232 -337c-138 0 -226 134 -226 337zM122 329c0 -171 66 -262 145 -262c90 0 151 91 151 262c0 174 -68 258 -151 258c-73 0 -145 -84 -145 -258z" />
    <glyph glyph-name="dvOne" unicode="&#x967;" horiz-adv-x="357" 
d="M44 475v85l155 94h74v-654h-78v568z" />
    <glyph glyph-name="dvTwo" unicode="&#x968;" horiz-adv-x="505" 
d="M153 69h304v-69h-413v67c150 113 310 263 310 390c0 85 -53 129 -133 129c-49 0 -108 -23 -156 -59v79c44 34 107 55 163 55c110 0 208 -64 208 -196c0 -128 -115 -266 -283 -396z" />
    <glyph glyph-name="dvThree" unicode="&#x969;" horiz-adv-x="491" 
d="M79 547v77c29 18 82 37 134 37c137 0 205 -81 205 -172c0 -69 -34 -129 -105 -158c74 -17 124 -70 124 -151c0 -102 -73 -186 -214 -186c-52 0 -119 12 -163 33v79c49 -26 103 -39 161 -39c87 0 135 51 135 119c0 71 -55 110 -153 110h-42v69h42c71 0 133 42 133 116
c0 73 -50 107 -124 107c-46 0 -98 -19 -133 -41z" />
    <glyph glyph-name="dvFour" unicode="&#x96a;" horiz-adv-x="571" 
d="M135 228h219v379zM529 228v-69h-97v-159h-78v159h-299v69l249 426h128v-426h97z" />
    <glyph glyph-name="dvFive" unicode="&#x96b;" horiz-adv-x="528" 
d="M179 585v-196c27 6 53 10 78 10c133 0 217 -76 217 -195c0 -128 -89 -212 -237 -212c-55 0 -119 10 -168 34v78c39 -23 102 -38 155 -38c109 0 168 46 168 141c0 79 -60 120 -140 120c-56 0 -111 -17 -151 -35v362h328v-69h-250z" />
    <glyph glyph-name="dvSix" unicode="&#x96c;" horiz-adv-x="525" 
d="M280 62c77 0 122 66 122 151s-49 137 -120 137c-58 0 -109 -17 -152 -67c2 -160 67 -221 150 -221zM439 658v-77c-27 12 -57 19 -91 19c-127 0 -195 -118 -213 -242c42 41 97 63 156 63c121 0 193 -85 193 -209c0 -129 -80 -223 -204 -223c-158 0 -231 125 -231 300
c0 208 105 384 298 384c36 0 64 -6 92 -15z" />
    <glyph glyph-name="dvSeven" unicode="&#x96d;" horiz-adv-x="500" 
d="M37 654h426v-69l-270 -585h-85l272 585h-343v69z" />
    <glyph glyph-name="dvEight" unicode="&#x96e;" horiz-adv-x="540" 
d="M268 62c94 0 139 55 139 115c0 58 -40 110 -139 113c-96 -4 -134 -60 -134 -122c0 -56 43 -106 134 -106zM267 591c-79 0 -122 -56 -122 -116c0 -79 56 -112 126 -112c67 0 120 38 120 114c0 60 -39 114 -124 114zM368 328c71 -22 119 -71 119 -159
c0 -110 -98 -177 -220 -177c-119 0 -214 64 -214 172c0 84 46 138 116 162c-65 24 -105 75 -105 147c0 122 101 188 203 188c103 0 204 -60 204 -187c0 -68 -39 -120 -103 -146z" />
    <glyph glyph-name="dvNine" unicode="&#x96f;" horiz-adv-x="513" 
d="M394 368v5c0 114 -37 216 -143 216c-76 0 -121 -63 -121 -143c0 -93 55 -142 135 -142c56 0 100 29 129 64zM85 11v78c34 -15 70 -23 110 -23c131 0 183 81 196 227c-35 -39 -79 -59 -145 -59c-102 0 -198 78 -198 211c0 112 69 217 200 217c156 0 226 -134 226 -289
c0 -228 -78 -381 -276 -381c-42 0 -78 7 -113 19z" />
    <glyph glyph-name="dvOm" unicode="&#x950;" horiz-adv-x="1235" 
d="M780 186c-38 -73 -86 -141 -177 -141c-74 0 -117 45 -136 81c-13 -63 -82 -126 -189 -126c-67 0 -128 19 -168 43v79c39 -28 99 -55 169 -55c78 0 123 45 123 108c0 55 -42 91 -128 91h-54v67h35c82 0 117 41 117 101c0 55 -37 95 -100 95c-46 0 -98 -19 -127 -39v70
c32 20 76 37 134 37c108 0 171 -71 171 -157c0 -68 -35 -112 -77 -129c48 -2 79 -33 104 -76c32 -54 58 -119 122 -119c55 0 92 61 133 137c57 103 110 220 221 220c104 0 173 -84 173 -214c0 -105 -67 -215 -190 -215c-29 0 -63 5 -90 17v73c21 -13 55 -23 84 -23
c69 0 118 58 118 156c0 63 -29 135 -89 135c-49 0 -82 -34 -179 -216zM631 727c0 29 22 52 52 52c29 0 52 -23 52 -52s-23 -51 -52 -51c-30 0 -52 22 -52 51zM682 516c-96 0 -180 49 -180 156h77c0 -52 37 -94 103 -94s102 42 102 94h78c0 -105 -86 -156 -180 -156z" />
    <glyph glyph-name="dvAbbreviationsign" unicode="&#x970;" horiz-adv-x="434" 
d="M57 303c0 86 71 158 159 158c87 0 158 -72 158 -158c0 -88 -71 -159 -158 -159c-88 0 -159 71 -159 159zM126 303c0 -50 40 -90 90 -90c49 0 89 40 89 90c0 49 -40 89 -89 89c-50 0 -90 -40 -90 -89z" />
    <glyph glyph-name="danda" unicode="&#x964;" horiz-adv-x="343" 
d="M160 0v642h79v-642h-79z" />
    <glyph glyph-name="doubledanda" unicode="&#x965;" horiz-adv-x="560" 
d="M160 0v642h79v-642h-79zM377 0v642h78v-642h-78z" />
    <glyph glyph-name="rupee" unicode="&#x20a8;" horiz-adv-x="889" 
d="M158 604v-269h102c96 0 142 60 142 134c0 88 -49 135 -151 135h-93zM77 674h169c159 0 238 -80 238 -207c-2 -93 -50 -161 -136 -188l177 -279h-97l-165 266h-8h-97v-266h-81v674zM839 490v-75c-28 17 -77 28 -126 28c-54 0 -87 -28 -87 -66c0 -51 51 -70 106 -94
c71 -29 136 -66 136 -148c0 -87 -65 -141 -170 -141c-61 0 -118 14 -149 31v77c42 -25 95 -40 144 -40c64 0 94 28 94 67c0 52 -46 73 -115 101c-61 24 -126 61 -126 144c0 87 74 138 166 138c58 0 103 -11 127 -22z" />
    <glyph glyph-name="indianrupee" unicode="&#x20b9;" horiz-adv-x="541" 
d="M493 674v-68h-162c34 -26 54 -61 63 -104h99v-67h-96c-9 -108 -94 -180 -230 -180h-9l204 -255h-100l-198 255v67h98c96 0 147 41 155 113h-253v67h249c-15 63 -63 104 -152 104h-97v68h429z" />
    <glyph glyph-name="apostrophemod" unicode="&#x2bc;" horiz-adv-x="181" 
d="M12 471l84 224h98l-120 -224h-62z" />
    <glyph glyph-name="zerowidthspace" unicode="&#x200b;" 
 />
    <glyph glyph-name="zerowidthnonjoiner" unicode="&#x200c;" 
d="M24 -230h-47v1041h47v-1041z" />
    <glyph glyph-name="zerowidthjoiner" unicode="&#x200d;" 
d="M129 593l-33 -33l-72 75v-865h-47v865l-69 -73l-33 33l93 93l-95 95l33 33l95 -95l96 95l32 -32l-96 -96z" />
    <glyph glyph-name="dottedcircle" unicode="&#x25cc;" horiz-adv-x="660" 
d="M139 517c0 25 18 44 44 44s44 -19 44 -44c0 -26 -18 -45 -44 -45s-44 19 -44 45zM57 407c0 25 20 44 46 44c24 0 44 -19 44 -44s-20 -44 -44 -44c-26 0 -46 19 -46 44zM44 281c0 26 19 45 44 45c26 0 44 -19 44 -45c0 -25 -18 -43 -44 -43c-25 0 -44 18 -44 43zM96 165
c0 25 18 44 44 44c25 0 44 -19 44 -44c0 -26 -19 -44 -44 -44c-26 0 -44 18 -44 44zM197 90c0 24 19 44 45 44c25 0 44 -20 44 -44c0 -26 -19 -46 -44 -46c-26 0 -45 20 -45 46zM324 74c0 26 18 44 44 44s45 -18 45 -44s-19 -44 -45 -44s-44 18 -44 44zM445 127
c0 25 19 44 44 44s45 -19 45 -44c0 -26 -20 -44 -45 -44s-44 18 -44 44zM518 225c0 26 19 45 45 45c24 0 43 -19 43 -45c0 -25 -19 -44 -43 -44c-26 0 -45 19 -45 44zM528 359c0 26 18 44 44 44c25 0 44 -18 44 -44s-19 -44 -44 -44c-26 0 -44 18 -44 44zM478 477
c0 26 19 45 44 45c26 0 44 -19 44 -45c0 -25 -18 -44 -44 -44c-25 0 -44 19 -44 44zM383 545c0 26 19 45 45 45c25 0 43 -19 43 -45c0 -24 -18 -44 -43 -44c-26 0 -45 20 -45 44zM257 560c0 26 18 44 44 44s44 -18 44 -44s-18 -44 -44 -44s-44 18 -44 44z" />
    <glyph glyph-name="itfLogo" horiz-adv-x="1648" 
d="M147 0v634h196v-634h-196zM383 449v185h196v-185h-196zM619 0v634h196v-634h-196zM855 449v185h196v-185h-196zM1091 0v634h196v-634h-196zM1327 449v185h196v-185h-196zM1327 224v185h196v-185h-196z" />
    <glyph glyph-name="dvReph" 
d="M-63 805c-46 0 -74 -30 -74 -77c0 -39 26 -77 50 -97h-85c-21 17 -45 54 -45 106c0 75 55 138 146 138c27 0 52 -5 70 -14v-70c-15 7 -37 14 -62 14z" />
    <glyph glyph-name="dvEyelash" horiz-adv-x="194" 
d="M11 375c24 -17 64 -35 123 -35c56 0 110 20 150 43l19 -66c-38 -20 -96 -42 -167 -42c-54 0 -95 11 -125 28v72zM216 575h-238v67h238v-67z" />
    <glyph glyph-name="dvRashtrasign" 
d="M-193 0h119l131 -165h-95l-95 126l-96 -126h-95z" />
    <glyph glyph-name="dvK_RA" horiz-adv-x="778" 
d="M800 575h-367v-142c28 29 68 47 116 47c109 0 184 -73 184 -181c0 -120 -90 -191 -198 -191c-9 0 -18 1 -23 2v67c5 -1 13 -2 19 -2c69 0 124 45 124 124c0 67 -47 116 -115 116c-57 0 -107 -45 -107 -107v-308h-79v147l-181 -192h-95l140 145c-96 7 -165 76 -165 178
c0 120 90 192 199 192c8 0 17 -1 23 -3v-66c-5 1 -14 1 -20 1c-69 0 -123 -44 -123 -123c0 -68 46 -117 114 -117c57 0 108 45 108 108v305h-376v67h822v-67z" />
    <glyph glyph-name="dvKH_RA" horiz-adv-x="783" 
d="M611 450v125h-335v-116c0 -95 -26 -145 -116 -148l-12 -1c27 -104 120 -194 250 -194c127 0 217 76 217 187c0 75 -41 125 -115 125c-57 0 -89 -39 -89 -83c0 -43 29 -71 70 -71c15 0 29 3 45 10v-61c-17 -7 -35 -11 -54 -11c-74 0 -136 52 -136 132c0 83 69 147 157 147
c48 0 88 -15 118 -41zM805 642v-67h-115v-575h-79v141c-52 -54 -145 -125 -308 -250h-118l202 157c-169 5 -279 108 -330 263v65h66c69 0 75 28 75 95v104h-220v67h827z" />
    <glyph glyph-name="dvG_RA" horiz-adv-x="581" 
d="M-22 642h625v-67h-116v-575h-77v194l-254 -214h-110l364 313v282h-174v-234c0 -84 -44 -132 -126 -132c-30 0 -56 6 -73 13v69s30 -14 61 -14c41 0 60 22 60 67v231h-180v67z" />
    <glyph glyph-name="dvGH_RA" horiz-adv-x="647" 
d="M476 330v245h-259c-37 -20 -57 -50 -57 -89c0 -63 55 -79 126 -79h48v-68h-59c-74 0 -121 -33 -121 -93c0 -62 62 -87 121 -87c114 0 201 80 201 171zM669 642v-67h-116v-575h-77v183l-259 -228h-106l160 141c-98 -6 -195 43 -195 150c0 71 46 112 116 126
c-53 6 -110 40 -110 112c0 36 14 67 42 91h-146v67h691z" />
    <glyph glyph-name="dvNG_RA" horiz-adv-x="574" 
d="M511 401c31 0 55 -24 55 -55s-24 -53 -55 -53s-54 22 -54 53s23 55 54 55zM-22 642h619v-67h-195v-151h-174c-41 0 -84 -16 -84 -63c0 -45 34 -64 136 -69c107 -3 179 -40 179 -138c0 -70 -47 -125 -126 -146l113 -148h-95l-93 129l-94 -129h-95l111 145
c-43 8 -82 21 -113 38v77c49 -31 123 -55 189 -55c75 0 123 31 123 88c0 50 -37 70 -130 74c-116 5 -183 45 -183 132c0 89 70 132 159 132h99v84h-346v67z" />
    <glyph glyph-name="dvC_RA" horiz-adv-x="638" 
d="M660 642v-67h-116v-575h-78v178l-263 -223h-110l171 146c-95 7 -168 64 -168 161c0 59 29 101 78 125h-142v67h341v-67c-159 0 -199 -63 -199 -121c0 -67 49 -102 118 -102c111 0 174 82 174 149v262h-488v67h682z" />
    <glyph glyph-name="dvCH_RA" horiz-adv-x="638" 
d="M435 481v94h-205c-42 -23 -62 -61 -62 -102c0 -58 48 -92 101 -92h30v-67h-38c-72 0 -110 -35 -110 -88c0 -65 67 -104 152 -104c115 0 201 67 201 186c0 65 -36 110 -112 110c-15 0 -34 -3 -43 -7v65c12 5 36 7 55 7c11 0 21 -1 31 -2zM660 575h-153v-117
c51 -29 76 -83 76 -149c0 -118 -78 -210 -193 -241l115 -150h-95l-93 128l-94 -128h-95l110 144c-98 18 -166 75 -166 163c0 72 47 120 113 127c-43 7 -95 49 -95 121c0 37 14 76 45 102h-157v67h682v-67z" />
    <glyph glyph-name="dvJ_RA" horiz-adv-x="657" 
d="M-22 642h701v-67h-115v-575h-78v119l-257 -219h-109l366 311v173h-198c44 -26 68 -72 68 -122c0 -95 -74 -169 -199 -169c-46 0 -87 9 -119 22v72c31 -16 67 -28 111 -28c77 0 129 37 129 107c0 83 -67 118 -174 118v67h382v124h-508v67z" />
    <glyph glyph-name="dvJH_RA" horiz-adv-x="843" 
d="M277 317h394v258h-254v-141l-2 1v-1h-160c-58 0 -92 -20 -92 -60c0 -41 36 -51 114 -57zM865 642v-67h-116v-575h-78v106l-245 -233h-107l352 324v56h-240c19 -23 30 -52 30 -86c0 -87 -67 -152 -167 -152c-56 0 -109 18 -145 50v-113h-76v226h70c23 -56 84 -98 147 -98
c56 0 93 32 93 85c0 46 -33 80 -119 86c-101 6 -181 29 -181 121c0 83 69 129 167 129h88v74h-360v67h887z" />
    <glyph glyph-name="dvNY_RA" horiz-adv-x="687" 
d="M709 642v-67h-116v-575h-78v122l-245 -222h-108l353 313v61h-125c-10 -101 -91 -175 -210 -175c-65 0 -122 19 -152 35v74c36 -22 86 -41 146 -41c90 0 137 53 137 129c0 71 -45 120 -122 120c-31 0 -60 -5 -79 -14v67c18 7 50 13 80 13c110 0 180 -52 197 -141h128v234
h-537v67h731z" />
    <glyph glyph-name="dvTT_RA" horiz-adv-x="496" 
d="M407 575v-186c-21 3 -47 5 -71 5c-114 0 -198 -53 -198 -157c0 -97 73 -149 177 -149c54 0 110 20 142 38v-71c-21 -12 -57 -24 -98 -30l110 -142h-95l-92 128l-95 -128h-95l118 153c-93 29 -153 99 -153 202c0 130 103 219 247 220c8 0 16 0 24 -1v118h-350v67h540v-67
h-111z" />
    <glyph glyph-name="dvTTH_RA" horiz-adv-x="564" 
d="M429 259c0 85 -61 128 -147 128c-72 0 -147 -36 -147 -127c0 -80 57 -134 147 -134c88 0 147 54 147 133zM586 575h-244v-129c95 -18 167 -81 167 -187c0 -92 -57 -162 -149 -187l115 -149h-95l-93 128l-94 -128h-95l112 147c-94 24 -155 94 -155 190
c0 126 105 185 209 191v124h-286v67h608v-67z" />
    <glyph glyph-name="dvDD_RA" horiz-adv-x="522" 
d="M400 424h-174c-42 0 -84 -16 -84 -63c0 -48 38 -72 92 -72l76 4c101 -2 147 -62 147 -139c-1 -70 -47 -125 -127 -146l113 -148h-94l-94 129l-93 -129h-95l110 146c-43 7 -82 20 -113 37v77c50 -31 124 -55 190 -55c75 0 123 31 123 88c0 46 -31 73 -85 74
c-2 0 -73 -6 -76 -6c-81 2 -153 48 -153 138c0 89 71 132 160 132h99v84h-344v67h566v-67h-144v-151z" />
    <glyph glyph-name="dvDDH_RA" horiz-adv-x="557" 
d="M432 575v-183c-37 6 -70 10 -102 10c-123 0 -196 -67 -196 -159c0 -93 69 -157 167 -157c69 0 123 32 123 88c0 36 -28 61 -73 61c-33 0 -65 -11 -85 -23v65c26 13 60 21 94 21c92 0 141 -53 141 -123c0 -69 -49 -126 -131 -146l112 -147h-95l-93 128l-93 -128h-95
l114 149c-98 27 -166 105 -166 213c0 125 98 224 254 225c14 0 30 -1 45 -3v109h-375v67h601v-67h-147z" />
    <glyph glyph-name="dvNN_RA" horiz-adv-x="753" 
d="M341 354v221h-183v-221c0 -65 24 -108 89 -108c61 0 94 33 94 108zM775 642v-67h-116v-575h-78v194l-243 -215h-114l357 312v284h-162v-219c0 -114 -60 -177 -173 -177c-111 0 -166 57 -166 178v218h-102v67h797z" />
    <glyph glyph-name="dvT_RA" horiz-adv-x="565" 
d="M587 642v-67h-116v-575h-79v223l-276 -172l-42 58l295 184c-31 59 -88 102 -165 104c-59 0 -114 -21 -149 -40v73c32 19 88 35 150 35c75 0 142 -31 187 -89v199h-414v67h609z" />
    <glyph glyph-name="dvTH_RA" horiz-adv-x="643" 
d="M365 507c0 -115 -97 -176 -241 -211c19 -80 77 -118 161 -118c93 0 186 63 186 197v267h194v-67h-116v-575h-78v194l-267 -239h-107l176 157c-119 4 -225 74 -241 230c170 36 256 82 256 164c0 42 -20 76 -66 76c-47 0 -68 -32 -68 -69c0 -32 9 -45 13 -56h-77
c-5 14 -12 30 -12 64c0 66 54 127 144 127c92 0 143 -64 143 -141z" />
    <glyph glyph-name="dvD_RA" horiz-adv-x="555" 
d="M-22 642h599v-67h-120v-167h-176c-90 0 -146 -49 -146 -133c0 -88 51 -139 129 -139c80 0 130 50 132 118h75v-264h-78v133l-192 -179h-103l139 129c-118 11 -186 95 -186 199c0 115 78 202 224 202h104v101h-401v67z" />
    <glyph glyph-name="dvDH_RA" horiz-adv-x="640" 
d="M662 642v-67h-116v-575h-78v166l-254 -211h-111l155 129c-117 5 -189 63 -189 149c0 73 57 121 127 128c-72 7 -123 38 -123 113c0 45 23 81 62 101h-157v67h315v-67h-1c-90 0 -140 -43 -140 -100c0 -64 63 -81 136 -81h51v-67h-59c-75 0 -132 -35 -132 -92
c0 -54 47 -86 132 -86c119 0 188 89 188 167v326h194z" />
    <glyph glyph-name="dvN_RA" horiz-adv-x="504" 
d="M-22 642h548v-67h-115v-575h-79v280l-182 -206h-96l278 310h-195c-25 0 -33 -12 -33 -39c0 -22 6 -50 13 -74h-65c-13 24 -29 63 -29 104c0 45 27 75 87 75h222v125h-354v67z" />
    <glyph glyph-name="dvP_RA" horiz-adv-x="558" 
d="M386 399v176h-234v-183c0 -97 35 -134 106 -134c67 0 128 50 128 141zM580 642v-67h-115v-575h-79v255l-243 -255h-102l184 196c-96 9 -152 67 -152 197v182h-95v67h602z" />
    <glyph glyph-name="dvPH_RA" horiz-adv-x="807" 
d="M386 399v176h-234v-183c0 -97 35 -134 106 -134c67 0 128 50 128 141zM829 575h-364v-137c29 30 70 47 118 47c109 0 182 -74 182 -180c0 -123 -91 -192 -198 -192c-9 0 -18 1 -24 3v66c6 -1 14 -2 20 -2c69 0 123 43 123 125c0 67 -46 115 -112 115
c-60 0 -109 -46 -109 -109v-311h-79v255l-243 -255h-102l184 196c-96 9 -152 67 -152 197v182h-95v67h851v-67z" />
    <glyph glyph-name="dvB_RA" horiz-adv-x="624" 
d="M380 173l-212 206c-19 -24 -29 -56 -29 -93c0 -83 59 -141 140 -141c40 0 74 10 101 28zM646 642v-67h-116v-575h-78v160l-248 -225h-108l165 149c-108 5 -198 85 -198 203c0 122 92 208 219 208c30 0 57 -4 83 -10v-69c-29 9 -56 13 -78 13c-30 0 -57 -6 -78 -17
l209 -205c22 28 34 63 34 99v269h-474v67h668z" />
    <glyph glyph-name="dvBH_RA" horiz-adv-x="565" 
d="M393 642h194v-67h-116v-575h-78v160l-226 -200h-110l336 297v68h-196v-137h-69l-25 56c-14 30 -27 63 -27 89c0 28 18 49 43 55v126c0 44 -12 65 -46 65c-20 0 -42 -5 -57 -13v65c18 9 44 15 70 15c78 0 111 -42 111 -119v-136h196v251z" />
    <glyph glyph-name="dvM_RA" horiz-adv-x="578" 
d="M197 391h209v184h-209v-184zM-22 642h622v-67h-116v-575h-78v172l-232 -212h-112l344 313v49h-209v-135h-69l-25 56c-13 31 -27 64 -27 90c0 28 17 49 42 55v187h-140v67z" />
    <glyph glyph-name="dvY_RA" horiz-adv-x="628" 
d="M456 192l-262 -237h-113l194 176c-110 7 -202 88 -221 237c109 17 162 62 162 118c0 39 -14 70 -30 89h-208v67h672v-67h-116v-575h-78v192zM302 194c91 0 154 55 154 142v239h-186c14 -23 24 -55 24 -93c0 -93 -70 -139 -148 -163c18 -73 78 -125 156 -125z" />
    <glyph glyph-name="dvL_RA" horiz-adv-x="734" 
d="M756 642v-67h-116v-575h-79v122l-162 -174h-92l254 266v182c-14 7 -33 13 -54 13c-66 0 -108 -38 -108 -127v-72h-78v74c0 83 -32 119 -87 119s-101 -46 -101 -141c0 -89 42 -191 141 -195c6 -1 16 -1 25 0v-65c-10 -1 -24 -2 -34 -1c-140 3 -210 121 -210 262
c0 119 66 206 172 206c73 0 121 -35 134 -94c15 64 65 98 140 98c24 0 45 -5 60 -11v113h-583v67h778z" />
    <glyph glyph-name="dvV_RA" horiz-adv-x="584" 
d="M606 642v-67h-116v-575h-78v161l-240 -226h-110l169 158c-93 8 -174 75 -174 189c0 109 81 191 197 191c23 0 47 -3 64 -8v-69c-17 6 -37 9 -59 9c-69 0 -123 -48 -123 -122c0 -79 55 -128 124 -128c98 0 152 78 152 158v262h-434v67h628z" />
    <glyph glyph-name="dvSH_RA" horiz-adv-x="696" 
d="M265 583c-53 0 -87 -39 -87 -85c0 -42 25 -82 91 -120c41 25 81 68 81 117c0 44 -31 88 -85 88zM522 642h196v-67h-116v-575h-80v212l-256 -215l-62 45l235 195c-64 19 -117 38 -162 58l-184 -131l-62 48l175 122c-75 49 -106 103 -106 165c0 74 60 149 161 149
c107 0 167 -69 167 -151c0 -62 -43 -115 -93 -151c49 -20 110 -40 187 -58v354z" />
    <glyph glyph-name="dvSS_RA" horiz-adv-x="580" 
d="M408 383v192h-247l242 -235c3 13 5 28 5 43zM153 512v-128c0 -97 51 -140 124 -140c40 0 79 17 104 50zM602 642v-67h-116v-575h-78v237l-240 -237h-96l183 181c-108 5 -179 67 -179 200v194h-98v67h624z" />
    <glyph glyph-name="dvS_RA" horiz-adv-x="740" 
d="M294 575v-143c0 -6 0 -11 -1 -16c31 16 70 29 116 29c71 0 127 -33 159 -65v195h-274zM762 642v-67h-116v-575h-78v269l-156 -147h-104l229 202c-32 30 -76 54 -128 54c-60 0 -105 -22 -150 -55c-24 -26 -59 -40 -104 -42h-11l181 -281h-93l-180 282v62h66
c80 0 97 34 97 94v137h-237v67h784z" />
    <glyph glyph-name="dvH_RA" horiz-adv-x="586" 
d="M476 418h-270c-30 0 -56 -8 -56 -45c0 -36 23 -62 44 -74c33 14 73 21 117 21c132 0 230 -72 230 -201c0 -25 -5 -56 -10 -73h-74c7 17 11 46 11 72c0 32 -7 59 -22 80l-133 -152h-93l173 194c-23 10 -51 15 -84 15c-111 0 -168 -67 -168 -152c0 -93 67 -164 203 -164
c32 0 79 6 109 15v-65c-43 -10 -81 -14 -115 -14c-165 0 -275 95 -275 230c0 67 27 124 75 162c-29 19 -67 54 -67 116c0 66 54 100 123 100h204v92h-420v67h631v-67h-133v-157z" />
    <glyph glyph-name="dvLL_RA" horiz-adv-x="798" 
d="M673 282c0 70 -45 118 -119 118c-95 0 -109 -94 -136 -174c31 -37 79 -69 136 -69c73 0 119 50 119 125zM239 157c95 0 103 101 133 179c-25 29 -71 64 -132 64c-72 0 -115 -53 -115 -125s45 -118 114 -118zM820 575h-221v-115c93 -16 153 -85 153 -179
c0 -90 -53 -155 -127 -179l118 -149h-95l-95 126l-96 -126h-95l119 149c-41 13 -73 36 -96 62c-28 -42 -70 -73 -147 -73c-112 0 -192 71 -192 185c0 113 82 189 190 189c87 0 140 -38 169 -68c25 32 60 58 118 65v113h-545v67h842v-67z" />
    <glyph glyph-name="dvKx_RA" horiz-adv-x="778" 
d="M284 -26c30 0 54 -24 54 -53c0 -30 -24 -52 -54 -52s-52 22 -52 52c0 29 22 53 52 53zM800 575h-367v-142c28 29 68 47 116 47c109 0 184 -73 184 -181c0 -120 -90 -191 -198 -191c-9 0 -18 1 -23 2v67c5 -1 13 -2 19 -2c69 0 124 45 124 124c0 67 -47 116 -115 116
c-57 0 -107 -45 -107 -107v-308h-79v147l-181 -192h-95l140 145c-96 7 -165 76 -165 178c0 120 90 192 199 192c8 0 17 -1 23 -3v-66c-5 1 -14 1 -20 1c-69 0 -123 -44 -123 -123c0 -68 46 -117 114 -117c57 0 108 45 108 108v305h-376v67h822v-67z" />
    <glyph glyph-name="dvKHx_RA" horiz-adv-x="783" 
d="M528 -28c30 0 54 -24 54 -53c0 -30 -24 -52 -54 -52s-52 22 -52 52c0 29 22 53 52 53zM611 450v125h-335v-116c0 -95 -26 -145 -116 -148l-12 -1c27 -104 120 -194 250 -194c127 0 217 76 217 187c0 75 -41 125 -115 125c-57 0 -89 -39 -89 -83c0 -43 29 -71 70 -71
c15 0 29 3 45 10v-61c-17 -7 -35 -11 -54 -11c-74 0 -136 52 -136 132c0 83 69 147 157 147c48 0 88 -15 118 -41zM805 642v-67h-115v-575h-79v141c-52 -54 -145 -125 -308 -250h-118l202 157c-169 5 -279 108 -330 263v65h66c69 0 75 28 75 95v104h-220v67h827z" />
    <glyph glyph-name="dvGx_RA" horiz-adv-x="581" 
d="M309 -13c30 0 54 -24 54 -53c0 -30 -24 -52 -54 -52s-52 22 -52 52c0 29 22 53 52 53zM-22 642h625v-67h-116v-575h-77v194l-254 -214h-110l364 313v282h-174v-234c0 -84 -44 -132 -126 -132c-30 0 -56 6 -73 13v69s30 -14 61 -14c41 0 60 22 60 67v231h-180v67z" />
    <glyph glyph-name="dvJx_RA" horiz-adv-x="657" 
d="M404 -67c30 0 54 -24 54 -53c0 -30 -24 -52 -54 -52s-52 22 -52 52c0 29 22 53 52 53zM-22 642h701v-67h-115v-575h-78v119l-257 -219h-109l366 311v173h-198c44 -26 68 -72 68 -122c0 -95 -74 -169 -199 -169c-46 0 -87 9 -119 22v72c31 -16 67 -28 111 -28
c77 0 129 37 129 107c0 83 -67 118 -174 118v67h382v124h-508v67z" />
    <glyph glyph-name="dvPHx_RA" horiz-adv-x="807" 
d="M268 -12c30 0 54 -24 54 -53c0 -30 -24 -52 -54 -52s-52 22 -52 52c0 29 22 53 52 53zM386 399v176h-234v-183c0 -97 35 -134 106 -134c67 0 128 50 128 141zM829 575h-364v-137c29 30 70 47 118 47c109 0 182 -74 182 -180c0 -123 -91 -192 -198 -192c-9 0 -18 1 -24 3
v66c6 -1 14 -2 20 -2c69 0 123 43 123 125c0 67 -46 115 -112 115c-60 0 -109 -46 -109 -109v-311h-79v255l-243 -255h-102l184 196c-96 9 -152 67 -152 197v182h-95v67h851v-67z" />
    <glyph glyph-name="dvK_R" horiz-adv-x="533" 
d="M433 575v-142c28 29 68 47 116 47c52 0 98 -18 130 -48l-54 -54c-20 23 -49 37 -85 37c-57 0 -107 -45 -107 -107v-308h-79v147l-181 -192h-95l140 145c-96 7 -165 76 -165 178c0 120 90 192 199 192c8 0 17 -1 23 -3v-66c-5 1 -14 1 -20 1c-69 0 -123 -44 -123 -123
c0 -68 46 -117 114 -117c57 0 108 45 108 108v305h-376v67h577v-67h-122z" />
    <glyph glyph-name="dvKH_R" horiz-adv-x="570" 
d="M526 284v-61c-17 -7 -35 -11 -54 -11c-74 0 -136 52 -136 132c0 83 69 147 157 147c118 0 189 -78 189 -185c0 -97 -57 -161 -109 -203l-268 -212h-118l202 157c-171 5 -281 108 -332 263v65h66c69 0 75 28 75 95v104h-220v67h614v-67h-316v-116
c0 -95 -26 -145 -116 -148l-12 -1c27 -104 120 -194 250 -194c126 0 211 76 211 187c0 75 -35 125 -109 125c-57 0 -89 -39 -89 -83c0 -43 29 -71 70 -71c15 0 29 3 45 10z" />
    <glyph glyph-name="dvG_R" horiz-adv-x="379" 
d="M37 222v69s30 -14 61 -14c41 0 60 22 60 67v231h-180v67h423v-67h-165v-234c0 -84 -44 -132 -126 -132c-30 0 -56 6 -73 13zM455 332l38 -66l-337 -286h-110z" />
    <glyph glyph-name="dvGH_R" horiz-adv-x="409" 
d="M494 310l41 -83l-314 -272h-110l160 141c-98 -6 -195 43 -195 150c0 71 46 112 116 126c-53 6 -110 40 -110 112c0 36 14 67 42 91h-146v67h453v-67h-214c-37 -20 -57 -50 -57 -89c0 -63 55 -79 126 -79h48v-68h-59c-74 0 -121 -33 -121 -93c0 -62 62 -87 121 -87
c107 0 188 84 219 151z" />
    <glyph glyph-name="dvNG_R" horiz-adv-x="574" 
d="M218 -208h80l140 -165h-97zM511 401c31 0 55 -24 55 -55s-24 -53 -55 -53s-54 22 -54 53s23 55 54 55zM-22 642h619v-67h-195v-151h-174c-41 0 -84 -16 -84 -63c0 -45 34 -64 136 -69c107 -3 179 -40 179 -138c0 -70 -47 -125 -126 -146l113 -148h-95l-93 129l-94 -129
h-95l111 145c-43 8 -82 21 -113 38v77c49 -31 123 -55 189 -55c75 0 123 31 123 88c0 50 -37 70 -130 74c-116 5 -183 45 -183 132c0 89 70 132 159 132h99v84h-346v67z" />
    <glyph glyph-name="dvC_R" horiz-adv-x="417" 
d="M439 642v-67h-461v67h461zM495 302l39 -71l-327 -276h-112l171 146c-95 5 -170 63 -170 161c0 59 29 101 78 125h-142v67h341v-67c-159 0 -199 -63 -199 -121c0 -67 49 -102 118 -102c89 0 163 68 203 138z" />
    <glyph glyph-name="dvCH_R" horiz-adv-x="638" 
d="M660 575h-430c-42 -23 -62 -61 -62 -102c0 -58 48 -92 101 -92h30v-67h-38c-72 0 -110 -35 -110 -88c0 -65 67 -104 152 -104c115 0 201 67 201 186c0 65 -36 110 -112 110c-15 0 -34 -3 -43 -7v65c12 5 36 7 55 7c120 0 179 -73 179 -174c0 -118 -78 -210 -193 -241
l115 -150h-95l-93 128l-94 -128h-95l110 144c-98 18 -166 75 -166 163c0 72 47 120 113 127c-43 7 -95 49 -95 121c0 37 14 76 45 102h-157v67h682v-67z" />
    <glyph glyph-name="dvJ_R" horiz-adv-x="472" 
d="M494 642v-67h-516v67h516zM120 -100l417 356l42 -57l-350 -299h-109zM104 451h539v-67h-355c44 -26 68 -72 68 -122c0 -95 -74 -169 -199 -169c-46 0 -87 9 -119 22v72c31 -16 67 -28 111 -28c77 0 129 37 129 107c0 83 -67 118 -174 118v67z" />
    <glyph glyph-name="dvJH_R" horiz-adv-x="607" 
d="M713 253h-282c19 -23 30 -52 30 -86c0 -87 -67 -152 -167 -152c-56 0 -109 18 -145 50v-113h-76v226h70c23 -56 84 -98 147 -98c56 0 93 32 93 85c0 46 -33 80 -119 86c-101 6 -181 29 -181 121c0 83 69 129 167 129h88v74h-360v67h652v-67h-213v-141l-2 1v-1h-160
c-58 0 -92 -20 -92 -60c0 -41 36 -51 114 -57h436v-64zM705 228l45 -58l-324 -297h-107z" />
    <glyph glyph-name="dvNY_R" horiz-adv-x="504" 
d="M526 642v-67h-548v67h548zM573 274h-183c-10 -101 -91 -175 -210 -175c-65 0 -122 19 -152 35v74c36 -22 86 -41 146 -41c90 0 137 53 137 129c0 71 -45 120 -122 120c-31 0 -60 -5 -79 -14v67c18 7 50 13 80 13c110 0 180 -52 197 -141h186v-67zM572 261l39 -55
l-341 -306h-108z" />
    <glyph glyph-name="dvTT_R" horiz-adv-x="496" 
d="M244 -185h80l140 -165h-97zM407 575v-186c-21 3 -47 5 -71 5c-114 0 -198 -53 -198 -157c0 -97 73 -149 177 -149c54 0 110 20 142 38v-71c-21 -12 -57 -24 -98 -30l110 -142h-95l-92 128l-95 -128h-95l118 153c-93 29 -153 99 -153 202c0 130 103 219 247 220
c8 0 16 0 24 -1v118h-350v67h540v-67h-111z" />
    <glyph glyph-name="dvTTH_R" horiz-adv-x="564" 
d="M251 -145h80l140 -165h-97zM429 259c0 85 -61 128 -147 128c-72 0 -147 -36 -147 -127c0 -80 57 -134 147 -134c88 0 147 54 147 133zM586 575h-244v-129c95 -18 167 -81 167 -187c0 -92 -57 -162 -149 -187l115 -149h-95l-93 128l-94 -128h-95l112 147
c-94 24 -155 94 -155 190c0 126 105 185 209 191v124h-286v67h608v-67z" />
    <glyph glyph-name="dvDD_R" horiz-adv-x="522" 
d="M214 -208h80l140 -165h-97zM400 424h-174c-42 0 -84 -16 -84 -63c0 -48 38 -72 92 -72l76 4c101 -2 147 -62 147 -139c-1 -70 -47 -125 -127 -146l113 -148h-94l-94 129l-93 -129h-95l110 146c-43 7 -82 20 -113 37v77c50 -31 124 -55 190 -55c75 0 123 31 123 88
c0 46 -31 73 -85 74c-2 0 -73 -6 -76 -6c-81 2 -153 48 -153 138c0 89 71 132 160 132h99v84h-344v67h566v-67h-144v-151z" />
    <glyph glyph-name="dvDDH_R" horiz-adv-x="557" 
d="M255 -186h80l140 -165h-97zM432 575v-183c-37 6 -70 10 -102 10c-123 0 -196 -67 -196 -159c0 -93 69 -157 167 -157c69 0 123 32 123 88c0 36 -28 61 -73 61c-33 0 -65 -11 -85 -23v65c26 13 60 21 94 21c92 0 141 -53 141 -123c0 -69 -49 -126 -131 -146l112 -147h-95
l-93 128l-93 -128h-95l114 149c-98 27 -166 105 -166 213c0 125 98 224 254 225c14 0 30 -1 45 -3v109h-375v67h601v-67h-147z" />
    <glyph glyph-name="dvNN_R" horiz-adv-x="503" 
d="M148 575v-221c0 -65 24 -108 89 -108c61 0 94 33 94 108v221h-183zM409 575v-219c0 -114 -60 -177 -173 -177c-111 0 -166 57 -166 178v218h-102v67h557v-67h-116zM591 309l36 -67l-299 -263h-114z" />
    <glyph glyph-name="dvT_R" horiz-adv-x="357" 
d="M379 642v-67h-401v67h401zM443 260l1 -4l-328 -205l-42 58l293 181c-31 60 -85 105 -163 107c-59 0 -114 -21 -149 -40v73c32 19 88 35 150 35c116 0 213 -74 238 -205v0z" />
    <glyph glyph-name="dvTH_R" horiz-adv-x="436" 
d="M365 507c0 -115 -97 -176 -241 -211c19 -80 77 -118 161 -118c86 0 160 47 212 128l53 -55l-338 -296h-105l176 157c-123 1 -235 71 -251 230c170 36 256 82 256 164c0 42 -20 76 -66 76c-47 0 -68 -32 -68 -69c0 -32 9 -45 13 -56h-77c-5 14 -12 30 -12 64
c0 66 54 127 144 127c92 0 143 -64 143 -141z" />
    <glyph glyph-name="dvD_R" horiz-adv-x="555" 
d="M499 -289h-97l-123 165h80zM-22 642h599v-67h-120v-167h-176c-90 0 -146 -49 -146 -133c0 -88 51 -139 129 -139c80 0 130 50 132 118h75v-264h-78v133l-192 -179h-103l139 129c-118 11 -186 95 -186 199c0 115 78 202 224 202h104v101h-401v67z" />
    <glyph glyph-name="dvDH_R" horiz-adv-x="442" 
d="M516 299l50 -58l-345 -286h-114l160 129c-120 2 -198 58 -198 149c0 73 57 121 127 128c-72 7 -123 38 -123 113c0 45 23 81 62 101h-157v67h315v-67h-1c-90 0 -140 -43 -140 -100c0 -64 63 -81 136 -81h51v-67h-59c-75 0 -132 -35 -132 -92c0 -54 47 -86 132 -86
c94 0 170 64 236 150z" />
    <glyph glyph-name="dvN_R" horiz-adv-x="279" 
d="M301 642v-67h-323v67h323zM436 388l7 -9l-293 -305h-96l299 310h-216c-25 0 -33 -12 -33 -39c0 -22 6 -50 13 -74h-65c-13 24 -29 63 -29 104c0 45 27 75 87 75h326v-62z" />
    <glyph glyph-name="dvP_R" horiz-adv-x="335" 
d="M416 378l39 -52l-312 -326h-102l185 196c-97 8 -153 67 -153 197v182h-95v67h379v-67h-205v-183c0 -97 35 -134 106 -134c66 0 118 52 158 120z" />
    <glyph glyph-name="dvPH_R" horiz-adv-x="603" 
d="M152 575v-183c0 -97 35 -134 106 -134c67 0 128 50 128 141v176h-234zM465 575v-137c29 30 71 47 122 47c83 0 139 -42 170 -99l-60 -46c-22 51 -63 80 -116 80c-65 0 -116 -44 -116 -109v-311h-79v255l-243 -255h-102l184 196c-96 9 -152 67 -152 197v182h-95v67h647
v-67h-160z" />
    <glyph glyph-name="dvB_R" horiz-adv-x="374" 
d="M396 642v-67h-418v67h418zM378 174l-210 205c-19 -24 -29 -56 -29 -93c0 -83 59 -141 140 -141c40 0 72 11 99 29zM457 269l42 -68l-295 -266h-108l166 149c-109 4 -199 85 -199 203c0 122 92 208 219 208c30 0 57 -4 83 -10v-69c-29 9 -56 13 -78 13
c-30 0 -57 -6 -78 -17l208 -204c15 18 28 38 40 61z" />
    <glyph glyph-name="dvBH_R" horiz-adv-x="370" 
d="M197 391h302v-66l-326 -365h-108l340 365h-208v-137h-69l-25 56c-14 30 -27 63 -27 89c0 28 18 49 43 55v126c0 44 -12 65 -46 65c-20 0 -42 -5 -57 -13v65c18 9 44 15 70 15c78 0 111 -42 111 -119v-136z" />
    <glyph glyph-name="dvM_R" horiz-adv-x="384" 
d="M197 391h309v-69l-321 -362h-110l332 362h-210v-135h-69l-25 56c-13 31 -27 64 -27 90c0 28 17 49 42 55v187h-140v67h428v-67h-209v-184z" />
    <glyph glyph-name="dvY_R" horiz-adv-x="383" 
d="M405 575h-135c14 -23 24 -55 24 -93c0 -93 -70 -139 -148 -163c18 -73 78 -125 156 -125c63 0 114 28 168 103l36 -59l-312 -283h-113l194 176c-110 7 -202 88 -221 237c109 17 162 62 162 118c0 39 -14 70 -30 89h-208v67h427v-67z" />
    <glyph glyph-name="dvL_R" horiz-adv-x="500" 
d="M299 67v-65c-11 -1 -25 -2 -35 -1c-139 3 -209 121 -209 262c0 119 66 206 172 206c73 0 121 -35 134 -94c15 64 65 98 140 98c52 0 93 -23 112 -47l-27 -57c-11 17 -43 40 -83 40c-60 0 -104 -38 -104 -127v-72h-78v74c0 83 -32 119 -87 119s-101 -46 -101 -141
c0 -89 43 -192 142 -196c5 0 15 0 24 1zM-22 575v67h536v-67h-536zM582 236l44 -44l-227 -244h-92z" />
    <glyph glyph-name="dvV_R" horiz-adv-x="360" 
d="M318 465v-69c-17 6 -37 9 -59 9c-69 0 -123 -48 -123 -122c0 -79 55 -128 124 -128c75 0 129 46 183 123l44 -58l-308 -285h-109l171 158c-101 4 -184 74 -184 189c0 109 81 191 197 191c23 0 47 -3 64 -8zM382 575h-404v67h404v-67z" />
    <glyph glyph-name="dvSH_R" horiz-adv-x="493" 
d="M265 583c-53 0 -87 -35 -87 -83c0 -44 30 -88 88 -124c42 25 84 69 84 119c0 44 -31 88 -85 88zM584 287v-68l-23 2l-290 -226l-61 45l253 195c-74 13 -138 33 -190 57l-180 -128l-62 48l172 119c-68 47 -103 105 -103 166c0 80 59 151 161 151c107 0 167 -69 167 -151
c0 -63 -45 -118 -97 -154c65 -27 150 -47 253 -56z" />
    <glyph glyph-name="dvSS_R" horiz-adv-x="356" 
d="M153 512v-128c0 -97 51 -140 124 -140c39 0 78 18 108 47zM428 354l35 -64l-295 -290h-96l183 181c-108 5 -179 67 -179 200v194h-98v67h400v-67h-217l254 -246c5 8 9 16 13 25z" />
    <glyph glyph-name="dvS_R" horiz-adv-x="528" 
d="M294 575v-143c0 -6 0 -11 -1 -16c31 16 70 29 116 29c107 0 172 -65 212 -129l-43 -43l-2 3l-164 -154h-104l228 202c-32 31 -74 54 -127 54c-60 0 -105 -22 -150 -55c-24 -26 -59 -40 -104 -42h-11l181 -281h-93l-180 282v62h66c80 0 97 34 97 94v137h-237v67h732v-67
h-416z" />
    <glyph glyph-name="dvH_R" horiz-adv-x="586" 
d="M263 -193h80l140 -165h-97zM476 418h-270c-30 0 -56 -8 -56 -45c0 -36 23 -62 44 -74c33 14 73 21 117 21c132 0 230 -72 230 -201c0 -25 -5 -56 -10 -73h-74c7 17 11 46 11 72c0 32 -7 59 -22 80l-133 -152h-93l173 194c-23 10 -51 15 -84 15c-111 0 -168 -67 -168 -152
c0 -93 67 -164 203 -164c32 0 79 6 109 15v-65c-43 -10 -81 -14 -115 -14c-165 0 -275 95 -275 230c0 67 27 124 75 162c-29 19 -67 54 -67 116c0 66 54 100 123 100h204v92h-420v67h631v-67h-133v-157z" />
    <glyph glyph-name="dvLL_R" horiz-adv-x="798" 
d="M554 157c73 0 119 50 119 125c0 70 -45 118 -119 118c-95 0 -109 -94 -136 -174c31 -37 79 -69 136 -69zM239 157c95 0 103 101 133 179c-25 29 -71 64 -132 64c-72 0 -115 -53 -115 -125s45 -118 114 -118zM362 -47l119 149c-41 13 -73 36 -96 62
c-28 -42 -70 -73 -147 -73c-112 0 -192 71 -192 185c0 113 82 189 190 189c87 0 140 -38 169 -68c29 38 72 67 150 67c118 0 197 -75 197 -183c0 -90 -53 -155 -127 -179l118 -149h-95l-95 126l-96 -126h-95zM-22 642h842v-67h-842v67z" />
    <glyph glyph-name="dvKx_R" horiz-adv-x="533" 
d="M287 -75c30 0 54 -24 54 -53c0 -30 -24 -52 -54 -52s-52 22 -52 52c0 29 22 53 52 53zM433 575v-142c28 29 68 47 116 47c52 0 98 -18 130 -48l-54 -54c-20 23 -49 37 -85 37c-57 0 -107 -45 -107 -107v-308h-79v147l-181 -192h-95l140 145c-96 7 -165 76 -165 178
c0 120 90 192 199 192c8 0 17 -1 23 -3v-66c-5 1 -14 1 -20 1c-69 0 -123 -44 -123 -123c0 -68 46 -117 114 -117c57 0 108 45 108 108v305h-376v67h577v-67h-122z" />
    <glyph glyph-name="dvKHx_R" horiz-adv-x="570" 
d="M535 -71c30 0 54 -24 54 -53c0 -30 -24 -52 -54 -52s-52 22 -52 52c0 29 22 53 52 53zM526 284v-61c-17 -7 -35 -11 -54 -11c-74 0 -136 52 -136 132c0 83 69 147 157 147c118 0 189 -78 189 -185c0 -97 -57 -161 -109 -203l-268 -212h-118l202 157
c-171 5 -281 108 -332 263v65h66c69 0 75 28 75 95v104h-220v67h614v-67h-316v-116c0 -95 -26 -145 -116 -148l-12 -1c27 -104 120 -194 250 -194c126 0 211 76 211 187c0 75 -35 125 -109 125c-57 0 -89 -39 -89 -83c0 -43 29 -71 70 -71c15 0 29 3 45 10z" />
    <glyph glyph-name="dvGx_R" horiz-adv-x="379" 
d="M37 222v69s30 -14 61 -14c41 0 60 22 60 67v231h-180v67h423v-67h-165v-234c0 -84 -44 -132 -126 -132c-30 0 -56 6 -73 13zM455 332l38 -66l-337 -286h-110zM389 32c30 0 54 -24 54 -53c0 -30 -24 -52 -54 -52s-52 22 -52 52c0 29 22 53 52 53z" />
    <glyph glyph-name="dvJx_R" horiz-adv-x="472" 
d="M494 642v-67h-516v67h516zM512 -7c30 0 54 -24 54 -53c0 -30 -24 -52 -54 -52s-52 22 -52 52c0 29 22 53 52 53zM120 -100l417 356l42 -57l-350 -299h-109zM104 451h539v-67h-355c44 -26 68 -72 68 -122c0 -95 -74 -169 -199 -169c-46 0 -87 9 -119 22v72
c31 -16 67 -28 111 -28c77 0 129 37 129 107c0 83 -67 118 -174 118v67z" />
    <glyph glyph-name="dvPHx_R" horiz-adv-x="603" 
d="M261 -54c30 0 54 -24 54 -53c0 -30 -24 -52 -54 -52s-52 22 -52 52c0 29 22 53 52 53zM152 575v-183c0 -97 35 -134 106 -134c67 0 128 50 128 141v176h-234zM465 575v-137c29 30 71 47 122 47c83 0 139 -42 170 -99l-60 -46c-22 51 -63 80 -116 80
c-65 0 -116 -44 -116 -109v-311h-79v255l-243 -255h-102l184 196c-96 9 -152 67 -152 197v182h-95v67h647v-67h-160z" />
    <glyph glyph-name="dvK_KA" horiz-adv-x="1284" 
d="M859 270v305h-434v-143c28 29 69 48 117 48c44 0 83 -13 113 -34c30 16 65 24 102 24c9 0 18 -1 23 -3v-66c-5 1 -13 1 -19 1c-69 0 -124 -44 -124 -123c0 -68 47 -117 115 -117c57 0 107 45 107 108zM1306 575h-368v-143c28 29 69 48 117 48c109 0 184 -73 184 -181
c0 -120 -90 -191 -199 -191c-8 0 -17 1 -23 2v67c5 -1 14 -2 20 -2c69 0 123 45 123 124c0 67 -46 116 -114 116c-57 0 -108 -45 -108 -107v-308h-79v144c-28 -29 -69 -46 -116 -46c-109 0 -184 72 -184 180c0 47 14 87 38 118c-17 12 -39 19 -64 19
c-57 0 -108 -45 -108 -107v-308h-79v144c-28 -29 -69 -46 -116 -46c-109 0 -184 72 -184 180c0 120 90 192 198 192c9 0 18 -1 23 -3v-66c-5 1 -13 1 -19 1c-69 0 -124 -44 -124 -123c0 -68 47 -117 115 -117c57 0 107 45 107 108v305h-368v67h1328v-67z" />
    <glyph glyph-name="dvKx_KxA" horiz-adv-x="1284" 
d="M154 13c30 0 54 -24 54 -53c0 -30 -24 -52 -54 -52s-52 22 -52 52c0 29 22 53 52 53zM667 13c30 0 54 -24 54 -53c0 -30 -24 -52 -54 -52s-52 22 -52 52c0 29 22 53 52 53zM859 270v305h-434v-143c28 29 69 48 117 48c44 0 83 -13 113 -34c30 16 65 24 102 24
c9 0 18 -1 23 -3v-66c-5 1 -13 1 -19 1c-69 0 -124 -44 -124 -123c0 -68 47 -117 115 -117c57 0 107 45 107 108zM1306 575h-368v-143c28 29 69 48 117 48c109 0 184 -73 184 -181c0 -120 -90 -191 -199 -191c-8 0 -17 1 -23 2v67c5 -1 14 -2 20 -2c69 0 123 45 123 124
c0 67 -46 116 -114 116c-57 0 -108 -45 -108 -107v-308h-79v144c-28 -29 -69 -46 -116 -46c-109 0 -184 72 -184 180c0 47 14 87 38 118c-17 12 -39 19 -64 19c-57 0 -108 -45 -108 -107v-308h-79v144c-28 -29 -69 -46 -116 -46c-109 0 -184 72 -184 180
c0 120 90 192 198 192c9 0 18 -1 23 -3v-66c-5 1 -13 1 -19 1c-69 0 -124 -44 -124 -123c0 -68 47 -117 115 -117c57 0 107 45 107 108v305h-368v67h1328v-67z" />
    <glyph glyph-name="dvK_KHA" horiz-adv-x="1363" 
d="M804 441v134h-379v-141c25 28 62 45 108 45c98 0 149 -62 158 -135c81 2 113 39 113 97zM1385 642v-67h-115v-575h-79v180c-32 -33 -74 -47 -120 -47c-89 0 -167 65 -167 165c0 106 79 168 169 168c16 0 34 -2 48 -5v-65c-13 4 -26 5 -38 5c-57 0 -102 -42 -102 -104
s42 -101 103 -101c57 0 107 42 107 110v269h-309v-142c0 -97 -67 -150 -163 -154l-12 -1l220 -278h-97l-215 279v42c0 49 -31 94 -91 94c-53 0 -99 -45 -99 -107v-308h-79v144c-28 -29 -69 -46 -116 -46c-109 0 -184 72 -184 180c0 120 90 192 198 192c9 0 18 -1 23 -3v-66
c-5 1 -13 1 -19 1c-69 0 -124 -44 -124 -123c0 -68 47 -117 115 -117c57 0 107 45 107 108v305h-368v67h1407z" />
    <glyph glyph-name="dvK_CA" horiz-adv-x="1131" 
d="M959 322v253h-534v-136c22 26 55 41 99 41c37 0 67 -11 93 -30h250v-68c-160 0 -200 -63 -200 -121c0 -67 50 -102 119 -102c116 0 173 86 173 163zM1154 642v-67h-116v-575h-79v183c-29 -46 -89 -87 -182 -89c-105 0 -187 60 -187 163c0 58 29 101 76 125h-82
c-18 21 -37 33 -70 33c-58 0 -89 -45 -89 -107v-308h-79v144c-28 -29 -69 -46 -116 -46c-109 0 -184 72 -184 180c0 120 90 192 198 192c9 0 18 -1 23 -3v-66c-5 1 -13 1 -19 1c-69 0 -124 -44 -124 -123c0 -68 47 -117 115 -117c57 0 107 45 107 108v305h-368v67h1176z" />
    <glyph glyph-name="dvK_JA" horiz-adv-x="1171" 
d="M669 421h330v154h-574v-142c27 29 66 47 113 47c60 0 106 -28 131 -59zM1193 642v-67h-116v-575h-78v354h-201c42 -23 70 -62 70 -122c0 -107 -80 -169 -197 -169c-48 0 -89 9 -120 22v72c31 -16 68 -28 112 -28c76 0 128 34 128 106c0 79 -65 119 -174 119v3
c-13 32 -41 58 -92 58s-100 -45 -100 -107v-308h-79v144c-28 -29 -69 -46 -116 -46c-109 0 -184 72 -184 180c0 120 90 192 198 192c9 0 18 -1 23 -3v-66c-5 1 -13 1 -19 1c-69 0 -124 -44 -124 -123c0 -68 47 -117 115 -117c57 0 107 45 107 108v305h-368v67h1215z" />
    <glyph glyph-name="dvK_TTA" horiz-adv-x="1009" 
d="M425 575v-143c28 29 69 48 117 48c55 0 104 -20 137 -57c39 22 87 35 140 35c8 0 16 0 24 -1v118h-418zM921 575v-186c-19 3 -49 5 -70 5c-114 0 -198 -53 -198 -157c0 -97 73 -149 177 -149c53 0 112 20 142 38v-72c-31 -16 -90 -32 -145 -32c-149 0 -255 79 -255 216
c0 54 18 101 49 138c-23 27 -51 39 -88 39c-57 0 -108 -45 -108 -107v-308h-79v144c-28 -29 -69 -46 -116 -46c-109 0 -184 72 -184 180c0 120 90 192 198 192c9 0 18 -1 23 -3v-66c-5 1 -13 1 -19 1c-69 0 -124 -44 -124 -123c0 -68 47 -117 115 -117c57 0 107 45 107 108
v305h-368v67h1054v-67h-111z" />
    <glyph glyph-name="dvK_NNA" horiz-adv-x="1288" 
d="M876 348v227h-183v-227c0 -65 24 -109 89 -109c61 0 94 33 94 109zM425 575v-143c28 29 69 48 117 48c26 0 51 -5 73 -13v108h-190zM1310 642v-67h-116v-575h-78v575h-162v-225c0 -114 -60 -177 -173 -177c-111 0 -166 57 -166 177v30c-19 22 -47 35 -82 35
c-57 0 -108 -45 -108 -107v-308h-79v144c-28 -29 -69 -46 -116 -46c-109 0 -184 72 -184 180c0 120 90 192 198 192c9 0 18 -1 23 -3v-66c-5 1 -13 1 -19 1c-69 0 -124 -44 -124 -123c0 -68 47 -117 115 -117c57 0 107 45 107 108v305h-368v67h1332z" />
    <glyph glyph-name="dvK_TA" horiz-adv-x="907" 
d="M929 575h-400v-179c30 31 75 49 127 49c133 0 208 -94 208 -220c0 -134 -81 -223 -201 -223c-15 0 -33 2 -45 5v67c12 -4 28 -5 40 -5c77 0 125 60 125 156c0 81 -44 156 -132 156c-68 0 -122 -48 -122 -114v-267h-78v381h-76c-120 0 -180 -55 -180 -160
c0 -92 48 -151 144 -151c6 0 17 1 22 2v-68c-7 -1 -18 -2 -29 -2c-131 0 -217 83 -217 217c0 66 21 124 72 161c-17 -1 -34 -1 -53 -1h-60v69h377v127h-473v67h951v-67z" />
    <glyph glyph-name="dvKx_TA" horiz-adv-x="1103" 
d="M154 13c30 0 54 -24 54 -53c0 -30 -24 -52 -54 -52s-52 22 -52 52c0 29 22 53 52 53zM931 452v123h-506v-143c28 29 69 48 117 48c63 0 107 -26 142 -60c37 20 85 32 143 32h104zM1125 642v-67h-116v-575h-78v384h-95c-117 0 -177 -53 -177 -156c0 -95 46 -160 144 -160
c7 0 17 0 23 1v-67c-8 -1 -18 -2 -30 -2c-136 0 -216 98 -216 229c0 55 15 105 46 143c-25 28 -54 43 -93 43c-57 0 -108 -45 -108 -107v-308h-79v144c-28 -29 -69 -46 -116 -46c-109 0 -184 72 -184 180c0 120 90 192 198 192c9 0 18 -1 23 -3v-66c-5 1 -13 1 -19 1
c-69 0 -124 -44 -124 -123c0 -68 47 -117 115 -117c57 0 107 45 107 108v305h-368v67h1147z" />
    <glyph glyph-name="dvK_T_YA" horiz-adv-x="1491" 
d="M1320 334v241h-187c15 -23 25 -55 25 -93c0 -94 -70 -140 -148 -164c16 -72 75 -126 155 -126c92 0 155 55 155 142zM808 452h18c74 0 125 -30 151 -71c69 22 103 61 103 105c0 39 -15 70 -31 89h-624v-143c28 29 69 48 117 48c60 0 103 -22 135 -61c35 21 79 33 131 33z
M1513 642v-67h-115v-575h-78v194c-32 -43 -89 -69 -162 -69c-109 0 -201 69 -233 199c-18 36 -50 60 -97 60h-20c-90 0 -149 -53 -149 -156c0 -95 45 -160 144 -160c6 0 17 0 22 1v-67c-7 -1 -18 -2 -29 -2c-138 0 -217 98 -217 229c0 54 14 101 41 139
c-18 26 -47 47 -87 47c-57 0 -108 -45 -108 -107v-308h-79v144c-28 -29 -69 -46 -116 -46c-109 0 -184 72 -184 180c0 120 90 192 198 192c9 0 18 -1 23 -3v-66c-5 1 -13 1 -19 1c-69 0 -124 -44 -124 -123c0 -68 47 -117 115 -117c57 0 107 45 107 108v305h-368v67h1535z
" />
    <glyph glyph-name="dvK_T_RA" horiz-adv-x="1077" 
d="M925 373v202h-500v-144c25 26 61 41 99 41c43 0 75 -15 99 -37c29 13 69 22 112 22c76 0 144 -28 190 -84zM1120 642v-67h-116v-575h-79v224l-268 -165l-42 58l285 175c-33 57 -93 96 -166 97c-56 0 -100 -19 -134 -39c-14 31 -39 58 -84 58c-44 0 -91 -38 -91 -100v-308
h-79v144c-28 -29 -69 -46 -116 -46c-109 0 -184 72 -184 180c0 120 90 192 198 192c9 0 18 -1 23 -3v-66c-5 1 -13 1 -19 1c-69 0 -124 -44 -124 -123c0 -68 47 -117 115 -117c57 0 107 45 107 108v305h-368v67h1142z" />
    <glyph glyph-name="dvK_T_VA" horiz-adv-x="1458" 
d="M1270 313v262h-845v-145c28 30 70 48 118 48c56 0 106 -24 138 -58c37 21 84 32 142 32h195c27 13 60 21 95 21c22 0 47 -3 63 -8v-69c-17 6 -37 9 -59 9c-27 0 -52 -7 -72 -21v0v0c-31 -21 -51 -56 -51 -101c0 -79 55 -128 124 -128c98 0 152 78 152 158zM1464 642v-67
h-116v-575h-78v166c-30 -43 -84 -75 -160 -75c-101 0 -195 69 -195 191c0 38 10 73 28 102h-111c-117 0 -177 -53 -177 -156c0 -95 46 -160 144 -160c7 0 17 0 23 1v-67c-8 -1 -18 -2 -30 -2c-136 0 -216 98 -216 229c0 56 15 105 46 144c-19 22 -50 40 -88 40
c-58 0 -109 -42 -109 -105v-308h-79v144c-28 -29 -69 -46 -116 -46c-109 0 -184 72 -184 180c0 120 90 192 198 192c9 0 18 -1 23 -3v-66c-5 1 -13 1 -19 1c-69 0 -124 -44 -124 -123c0 -68 47 -117 115 -117c57 0 107 45 107 108v305h-368v67h1486z" />
    <glyph glyph-name="dvK_THA" horiz-adv-x="1226" 
d="M1054 642h192v-67h-114v-575h-78v205c-22 -41 -94 -97 -190 -97c-298 0 -194 306 -337 306c-59 0 -102 -42 -102 -106v-308h-79v144c-28 -29 -69 -46 -116 -46c-109 0 -184 72 -184 180c0 120 90 192 198 192c9 0 18 -1 23 -3v-66c-5 1 -13 1 -19 1
c-69 0 -124 -44 -124 -123c0 -68 47 -117 115 -117c57 0 107 45 107 108v305h-368v67h593v-67h-146v-141c25 28 61 44 107 44c90 0 128 -55 152 -117c124 33 187 74 187 145c0 42 -21 76 -67 76c-47 0 -67 -32 -67 -69c0 -30 8 -40 10 -50h-76c-4 11 -11 26 -11 58
c0 66 55 127 144 127c93 0 143 -64 143 -141c0 -115 -96 -174 -241 -208c24 -82 73 -124 161 -124c93 0 187 60 187 194v273z" />
    <glyph glyph-name="dvK_DA" horiz-adv-x="1048" 
d="M425 575v-143c28 29 69 48 117 48c34 0 66 -8 93 -22c29 22 69 33 114 33h99v84h-423zM926 424h-174c-42 0 -84 -16 -84 -63c0 -45 34 -64 135 -69c108 -3 180 -40 180 -138c-1 -90 -77 -155 -203 -155c-73 0 -141 18 -190 44v77c50 -31 124 -55 190 -55
c74 0 123 31 123 88c0 50 -37 70 -130 74c-117 5 -184 45 -184 132c0 14 2 27 5 39c-17 11 -37 17 -61 17c-57 0 -108 -45 -108 -107v-308h-79v144c-28 -29 -69 -46 -116 -46c-109 0 -184 72 -184 180c0 120 90 192 198 192c9 0 18 -1 23 -3v-66c-5 1 -13 1 -19 1
c-69 0 -124 -44 -124 -123c0 -68 47 -117 115 -117c57 0 107 45 107 108v305h-368v67h1092v-67h-144v-151z" />
    <glyph glyph-name="dvK_NA" horiz-adv-x="783" 
d="M804 575h-368v-143c28 29 69 48 117 48c109 0 184 -73 184 -181c0 -120 -90 -191 -199 -191c-8 0 -17 1 -23 2v67c6 -1 14 -2 20 -2c69 0 124 45 124 124c0 67 -47 116 -115 116c-57 0 -108 -45 -108 -107v-308h-78v148c-7 -8 -15 -15 -24 -21h1l-158 -110
c-11 -8 -16 -17 -16 -26c0 -27 36 -59 59 -79l-48 -36c-37 19 -97 64 -97 114c0 23 14 46 45 67l71 48c-81 19 -134 83 -134 174c0 119 90 191 199 191c8 0 17 -1 23 -3v-66c-5 1 -14 1 -20 1c-69 0 -123 -44 -123 -123c0 -67 46 -115 114 -115c57 0 108 45 108 108v303
h-380v67h826v-67z" />
    <glyph glyph-name="dvK_PA" horiz-adv-x="1091" 
d="M919 382v193h-234v-201c0 -97 35 -134 106 -134c67 0 128 51 128 142zM425 575v-143c28 29 69 48 117 48c23 0 44 -3 64 -10v105h-181zM1113 642v-67h-115v-575h-79v238c-28 -37 -72 -61 -133 -62c-113 0 -180 58 -180 199v14c-18 17 -43 26 -73 26
c-57 0 -108 -45 -108 -107v-308h-79v144c-28 -29 -69 -46 -116 -46c-109 0 -184 72 -184 180c0 120 90 192 198 192c9 0 18 -1 23 -3v-66c-5 1 -13 1 -19 1c-69 0 -124 -44 -124 -123c0 -68 47 -117 115 -117c57 0 107 45 107 108v305h-368v67h1135z" />
    <glyph glyph-name="dvK_P_RA" horiz-adv-x="1095" 
d="M923 399v176h-234v-183c0 -97 35 -134 106 -134c67 0 128 50 128 141zM425 575v-143c28 29 69 48 117 48c24 0 47 -4 68 -11v106h-185zM1117 642v-67h-115v-575h-79v255l-243 -255h-102l184 196c-94 9 -150 65 -152 190c-19 18 -45 29 -77 29c-57 0 -108 -45 -108 -107
v-308h-79v144c-28 -29 -69 -46 -116 -46c-109 0 -184 72 -184 180c0 120 90 192 198 192c9 0 18 -1 23 -3v-66c-5 1 -13 1 -19 1c-69 0 -124 -44 -124 -123c0 -68 47 -117 115 -117c57 0 107 45 107 108v305h-368v67h1139z" />
    <glyph glyph-name="dvK_PHA" horiz-adv-x="1329" 
d="M919 382v193h-234v-201c0 -97 35 -130 106 -130c67 0 128 47 128 138zM425 575v-143c28 29 69 48 117 48c23 0 44 -3 64 -10v105h-181zM1351 575h-353v-138c29 30 70 47 118 47c109 0 182 -74 182 -180c0 -122 -91 -191 -198 -191c-9 0 -18 0 -24 2v67c6 -1 14 -2 20 -2
c69 0 123 42 123 124c0 68 -46 116 -112 116c-60 0 -109 -47 -109 -110v-310h-79v238c-28 -35 -72 -58 -133 -59c-115 0 -180 51 -180 192v18c-18 17 -43 26 -73 26c-57 0 -108 -45 -108 -107v-308h-79v144c-28 -29 -69 -46 -116 -46c-109 0 -184 72 -184 180
c0 120 90 192 198 192c9 0 18 -1 23 -3v-66c-5 1 -13 1 -19 1c-69 0 -124 -44 -124 -123c0 -68 47 -117 115 -117c57 0 107 45 107 108v305h-368v67h1373v-67z" />
    <glyph glyph-name="dvKx_PHA" horiz-adv-x="1328" 
d="M154 13c30 0 54 -24 54 -53c0 -30 -24 -52 -54 -52s-52 22 -52 52c0 29 22 53 52 53zM918 382v193h-234v-201c0 -97 35 -130 106 -130c67 0 128 47 128 138zM425 575v-143c28 29 69 48 117 48c22 0 44 -3 63 -9v104h-180zM1350 575h-353v-138c29 30 70 47 118 47
c109 0 182 -74 182 -180c0 -122 -91 -191 -198 -191c-9 0 -18 0 -24 2v67c6 -1 14 -2 20 -2c69 0 123 42 123 124c0 68 -46 116 -112 116c-60 0 -109 -47 -109 -110v-310h-79v238c-28 -35 -72 -58 -133 -59c-115 0 -180 51 -180 192v19c-18 16 -43 25 -72 25
c-57 0 -108 -45 -108 -107v-308h-79v144c-28 -29 -69 -46 -116 -46c-109 0 -184 72 -184 180c0 120 90 192 198 192c9 0 18 -1 23 -3v-66c-5 1 -13 1 -19 1c-69 0 -124 -44 -124 -123c0 -68 47 -117 115 -117c57 0 107 45 107 108v305h-368v67h1372v-67z" />
    <glyph glyph-name="dvKx_PHxA" horiz-adv-x="1328" 
d="M154 13c30 0 54 -24 54 -53c0 -30 -24 -52 -54 -52s-52 22 -52 52c0 29 22 53 52 53zM677 67c30 0 54 -24 54 -53c0 -30 -24 -52 -54 -52s-52 22 -52 52c0 29 22 53 52 53zM918 382v193h-234v-201c0 -97 35 -130 106 -130c67 0 128 47 128 138zM425 575v-143
c28 29 69 48 117 48c22 0 44 -3 63 -9v104h-180zM1350 575h-353v-138c29 30 70 47 118 47c109 0 182 -74 182 -180c0 -122 -91 -191 -198 -191c-9 0 -18 0 -24 2v67c6 -1 14 -2 20 -2c69 0 123 42 123 124c0 68 -46 116 -112 116c-60 0 -109 -47 -109 -110v-310h-79v238
c-28 -35 -72 -58 -133 -59c-115 0 -180 51 -180 192v19c-18 16 -43 25 -72 25c-57 0 -108 -45 -108 -107v-308h-79v144c-28 -29 -69 -46 -116 -46c-109 0 -184 72 -184 180c0 120 90 192 198 192c9 0 18 -1 23 -3v-66c-5 1 -13 1 -19 1c-69 0 -124 -44 -124 -123
c0 -68 47 -117 115 -117c57 0 107 45 107 108v305h-368v67h1372v-67z" />
    <glyph glyph-name="dvKx_BA" horiz-adv-x="1136" 
d="M154 13c30 0 54 -24 54 -53c0 -30 -24 -52 -54 -52s-52 22 -52 52c0 29 22 53 52 53zM964 306v269h-539v-143c28 29 69 48 117 48c41 0 79 -11 109 -31c37 29 87 46 143 46c30 0 57 -4 83 -10v-69c-28 9 -55 13 -78 13c-30 0 -57 -6 -78 -17l209 -205c22 28 34 63 34 99z
M892 173l-212 206c-19 -24 -29 -56 -29 -93c0 -83 59 -141 141 -141c40 0 74 10 100 28zM1158 642v-67h-116v-575h-78v163c-34 -46 -98 -82 -179 -82c-112 0 -210 81 -210 206c0 40 10 75 27 106c-18 14 -41 22 -69 22c-57 0 -108 -45 -108 -107v-308h-79v144
c-28 -29 -69 -46 -116 -46c-109 0 -184 72 -184 180c0 120 90 192 198 192c9 0 18 -1 23 -3v-66c-5 1 -13 1 -19 1c-69 0 -124 -44 -124 -123c0 -68 47 -117 115 -117c57 0 107 45 107 108v305h-368v67h1180z" />
    <glyph glyph-name="dvK_MA" horiz-adv-x="1084" 
d="M913 343v232h-210v-232h210zM425 575v-143c28 30 70 48 119 48c30 0 57 -6 81 -17v112h-200zM1107 642v-67h-116v-575h-78v277h-210v-136h-68l-25 56c-13 31 -27 64 -27 90c0 27 17 47 42 53v43c-23 20 -52 32 -88 32c-57 0 -111 -43 -112 -107v-308h-79v144
c-28 -29 -69 -46 -116 -46c-109 0 -184 72 -184 180c0 120 90 192 198 192c9 0 18 -1 23 -3v-66c-5 1 -13 1 -19 1c-69 0 -124 -44 -124 -123c0 -68 47 -117 115 -117c57 0 107 45 107 108v305h-368v67h1129z" />
    <glyph glyph-name="dvKx_MA" horiz-adv-x="1084" 
d="M154 13c30 0 54 -24 54 -53c0 -30 -24 -52 -54 -52s-52 22 -52 52c0 29 22 53 52 53zM913 343v232h-210v-232h210zM425 575v-143c28 30 70 48 119 48c30 0 57 -6 81 -17v112h-200zM1107 642v-67h-116v-575h-78v277h-210v-136h-68l-25 56c-13 31 -27 64 -27 90
c0 27 17 47 42 53v43c-23 20 -52 32 -88 32c-57 0 -111 -43 -112 -107v-308h-79v144c-28 -29 -69 -46 -116 -46c-109 0 -184 72 -184 180c0 120 90 192 198 192c9 0 18 -1 23 -3v-66c-5 1 -13 1 -19 1c-69 0 -124 -44 -124 -123c0 -68 47 -117 115 -117c57 0 107 45 107 108
v305h-368v67h1129z" />
    <glyph glyph-name="dvK_YA" horiz-adv-x="1174" 
d="M1010 334v241h-187c15 -23 25 -55 25 -93c0 -94 -71 -145 -151 -168c24 -79 67 -122 157 -122c89 0 156 53 156 142zM425 575v-144c25 26 61 41 104 41c75 0 115 -43 141 -95c57 17 100 61 100 109c0 39 -15 70 -30 89h-315zM1204 642v-67h-116v-575h-78v194
c-27 -38 -84 -69 -166 -69c-269 0 -182 282 -323 282c-53 0 -96 -36 -96 -99v-308h-79v144c-28 -29 -69 -46 -116 -46c-109 0 -184 72 -184 180c0 120 90 192 198 192c9 0 18 -1 23 -3v-66c-5 1 -13 1 -19 1c-69 0 -124 -44 -124 -123c0 -68 47 -117 115 -117
c57 0 107 45 107 108v305h-368v67h1226z" />
    <glyph glyph-name="dvK_LA" horiz-adv-x="1261" 
d="M1088 462v113h-663v-143c28 29 69 48 117 48c46 0 88 -14 119 -39c26 18 57 28 93 28c73 0 121 -35 134 -94c15 64 65 98 140 98c24 0 45 -5 60 -11zM1283 642v-67h-116v-575h-79v396c-14 7 -33 13 -54 13c-66 0 -108 -38 -108 -127v-72h-78v74c0 83 -32 119 -87 119
s-101 -46 -101 -141c0 -106 53 -196 173 -196c6 0 17 0 27 2v-65c-12 -2 -27 -3 -38 -3c-147 0 -240 114 -240 263c0 47 10 88 29 122c-19 19 -46 30 -78 30c-57 0 -108 -45 -108 -107v-308h-79v144c-28 -29 -69 -46 -116 -46c-109 0 -184 72 -184 180c0 120 90 192 198 192
c9 0 18 -1 23 -3v-66c-5 1 -13 1 -19 1c-69 0 -124 -44 -124 -123c0 -68 47 -117 115 -117c57 0 107 45 107 108v305h-368v67h1305z" />
    <glyph glyph-name="dvK_VA" horiz-adv-x="1099" 
d="M927 313v262h-502v-143c28 29 69 48 117 48c45 0 86 -14 117 -37c31 19 68 30 111 30c22 0 47 -3 63 -8v-69c-17 6 -37 9 -59 9c-69 0 -123 -48 -123 -122c0 -79 55 -128 124 -128c98 0 152 78 152 158zM1121 642v-67h-116v-575h-78v166c-30 -43 -84 -75 -160 -75
c-101 0 -195 69 -195 191c0 41 12 78 32 109c-18 15 -42 24 -71 24c-57 0 -108 -45 -108 -107v-308h-79v144c-28 -29 -69 -46 -116 -46c-109 0 -184 72 -184 180c0 120 90 192 198 192c9 0 18 -1 23 -3v-66c-5 1 -13 1 -19 1c-69 0 -124 -44 -124 -123
c0 -68 47 -117 115 -117c57 0 107 45 107 108v305h-368v67h1143z" />
    <glyph glyph-name="dvK_V_YA" horiz-adv-x="1423" 
d="M1251 334v241h-187c15 -23 25 -55 25 -93c0 -94 -70 -140 -148 -164c16 -72 75 -126 155 -126c92 0 155 55 155 142zM829 465v-69c-17 7 -37 9 -59 9c-69 0 -123 -50 -123 -123c0 -78 60 -127 138 -127c56 0 96 21 128 51c-33 40 -56 94 -65 161c109 17 163 63 163 119
c0 39 -15 70 -31 89h-555v-143c28 29 69 48 117 48c44 0 84 -13 115 -36c30 19 67 29 109 29c22 0 47 -3 63 -8zM1444 642v-67h-115v-575h-78v194c-32 -43 -89 -69 -162 -69c-48 0 -92 13 -130 39c-39 -40 -100 -73 -181 -73c-112 0 -210 67 -210 191c0 42 12 80 34 111
c-18 14 -42 22 -69 22c-57 0 -108 -45 -108 -107v-308h-79v144c-28 -29 -69 -46 -116 -46c-109 0 -184 72 -184 180c0 120 90 192 198 192c9 0 18 -1 23 -3v-66c-5 1 -13 1 -19 1c-69 0 -124 -44 -124 -123c0 -68 47 -117 115 -117c57 0 107 45 107 108v305h-368v67h1466z
" />
    <glyph glyph-name="dvK_SHA" horiz-adv-x="1220" 
d="M425 575v-140c26 29 66 49 116 49c25 0 46 -4 65 -11c-1 7 -1 14 -1 21c0 74 52 149 149 149c109 0 164 -84 164 -186c0 -144 -96 -220 -216 -220h-27l215 -237h-104l-207 235v69h99c105 0 162 59 162 154c0 71 -31 117 -85 117s-76 -47 -76 -91c0 -29 11 -68 29 -98h-79
c-18 18 -46 34 -84 34c-65 0 -118 -44 -120 -110v-310h-79v144c-28 -29 -69 -46 -116 -46c-109 0 -184 72 -184 180c0 120 90 192 198 192c9 0 18 -1 23 -3v-66c-5 1 -13 1 -19 1c-69 0 -124 -44 -124 -123c0 -68 47 -117 115 -117c57 0 107 45 107 108v305h-368v67h547v-67
h-100zM1031 642h194v-67h-116v-575h-78v642z" />
    <glyph glyph-name="dvK_SS_MA" horiz-adv-x="1082" 
d="M910 346v229h-210v-229h210zM271 583c-54 0 -90 -39 -90 -85c0 -59 37 -91 95 -103c44 15 84 41 84 104c0 41 -39 84 -89 84zM487 642h616v-67h-115v-575h-78v280h-210v-136h-68l-25 56c-13 31 -27 65 -27 90c0 14 4 26 12 35h-260c-25 0 -48 2 -71 7
c-69 -21 -129 -62 -129 -127c0 -58 46 -94 104 -94c68 0 123 48 139 117h72v-228h-77v112c-19 -36 -80 -67 -140 -67c-107 0 -179 64 -179 158c0 78 57 133 128 161c-46 30 -75 76 -75 135c0 75 66 149 163 149c102 0 170 -67 170 -145c0 -56 -24 -90 -58 -114h243v186h-135
v67z" />
    <glyph glyph-name="dvK_SS_M_YA" horiz-adv-x="1449" 
d="M1278 334v241h-187c15 -23 25 -55 25 -93c0 -80 -64 -142 -148 -168c18 -71 76 -122 155 -122c92 0 155 55 155 142zM693 347h66c137 0 279 30 279 144c0 36 -12 64 -31 84h-314v-228zM271 583c-54 0 -90 -39 -90 -85c0 -59 37 -91 95 -103c44 15 84 41 84 104
c0 41 -39 84 -89 84zM480 642h992v-67h-116v-575h-78v194c-32 -43 -89 -69 -162 -69c-105 0 -188 58 -226 164c-47 -7 -98 -11 -152 -11h-45v-135h-68l-25 56c-13 31 -27 64 -27 90c0 14 4 26 12 36h-253c-25 0 -48 2 -71 7c-69 -21 -129 -62 -129 -127
c0 -58 46 -94 104 -94c68 0 123 48 139 117h72v-228h-77v112c-19 -36 -80 -67 -140 -67c-107 0 -179 64 -179 158c0 78 57 133 128 161c-46 30 -75 76 -75 135c0 75 66 149 163 149c102 0 170 -67 170 -145c0 -56 -24 -90 -58 -114h236v186h-135v67z" />
    <glyph glyph-name="dvK_SS_YA" horiz-adv-x="1096" 
d="M924 334v241h-187c17 -27 25 -59 25 -91c0 -86 -62 -133 -149 -156c18 -79 72 -136 157 -136c91 0 154 55 154 142zM271 583c-54 0 -90 -39 -90 -85c0 -48 28 -84 86 -106c48 15 93 41 93 106c0 41 -39 85 -89 85zM504 642h614v-67h-116v-575h-78v194
c-31 -43 -88 -69 -162 -69c-112 0 -196 68 -227 186c-30 -5 -63 -6 -98 -6c-75 0 -136 8 -185 24c-65 -22 -120 -62 -120 -124c0 -58 46 -94 104 -94c69 0 122 48 139 110h72v-221h-77v111c-20 -36 -80 -66 -140 -66c-107 0 -179 64 -179 158c0 78 56 132 127 161
c-50 34 -74 80 -74 135c0 75 66 149 163 149c102 0 170 -67 170 -145c0 -70 -37 -107 -87 -130c26 -3 55 -5 88 -5c115 0 246 22 246 126c0 34 -16 64 -30 81h-150v67z" />
    <glyph glyph-name="dvK_SS_VA" horiz-adv-x="1072" 
d="M271 583c-54 0 -90 -39 -90 -85c0 -59 37 -91 95 -103c44 15 84 41 84 104c0 41 -39 84 -89 84zM1094 642v-67h-116v-575h-78v166c-30 -43 -84 -75 -160 -75c-101 0 -195 69 -195 191c0 15 2 29 4 43h-217c-25 0 -48 2 -71 7c-69 -21 -129 -62 -129 -127
c0 -58 46 -94 104 -94c68 0 123 48 139 117h72v-228h-77v112c-19 -36 -80 -67 -140 -67c-107 0 -179 64 -179 158c0 78 57 133 128 161c-46 30 -75 76 -75 135c0 75 66 149 163 149c102 0 170 -67 170 -145c0 -56 -24 -90 -58 -114h197c34 51 94 84 167 84c23 0 47 -3 64 -8
v-69c-18 6 -37 9 -59 9c-69 0 -124 -48 -124 -122c0 -79 56 -128 125 -128c98 0 151 78 151 158v262h-390v67h584z" />
    <glyph glyph-name="dvK_SA" horiz-adv-x="1229" 
d="M837 333h220v242h-193v-143c0 -42 -9 -75 -27 -99zM425 575v-141c25 27 62 44 109 44c92 0 146 -57 162 -134c73 2 89 36 89 94v137h-360zM1251 642v-67h-116v-575h-78v265h-168c-84 0 -137 4 -170 9l184 -274h-95l-187 282v23c0 57 -34 109 -97 109
c-57 0 -99 -45 -99 -106v-308h-79v144c-28 -29 -69 -46 -116 -46c-109 0 -184 72 -184 180c0 120 90 192 198 192c9 0 18 -1 23 -3v-66c-5 1 -13 1 -19 1c-69 0 -124 -44 -124 -123c0 -68 47 -117 115 -117c57 0 107 45 107 108v305h-368v67h1273z" />
    <glyph glyph-name="dvK_S_TTA" horiz-adv-x="1003" 
d="M271 583c-54 0 -90 -39 -90 -85c0 -59 37 -91 95 -103c44 15 84 41 84 104c0 41 -39 84 -89 84zM915 575v-186c-20 3 -49 5 -71 5c-114 0 -198 -53 -198 -157c0 -97 73 -149 178 -149c52 0 111 20 141 38v-72c-30 -16 -90 -32 -145 -32c-149 0 -255 79 -255 216
c0 32 6 61 17 87h-250c-25 0 -48 2 -71 7c-69 -21 -129 -62 -129 -127c0 -58 46 -94 104 -94c68 0 123 48 139 117h72v-228h-77v112c-19 -36 -80 -67 -140 -67c-107 0 -179 64 -179 158c0 78 57 133 128 161c-46 30 -75 76 -75 135c0 75 66 149 163 149
c102 0 170 -67 170 -145c0 -56 -24 -90 -58 -114h248c44 43 109 68 185 69c8 0 17 0 24 -1v118h-329v67h518v-67h-110z" />
    <glyph glyph-name="dvK_S_DDA" horiz-adv-x="1041" 
d="M271 583c-54 0 -90 -39 -90 -85c0 -59 37 -91 95 -103c44 15 84 41 84 104c0 41 -39 84 -89 84zM920 424h-174c-42 0 -84 -16 -84 -63c0 -45 34 -64 135 -69c108 -3 180 -40 180 -138c-1 -90 -77 -155 -203 -155c-73 0 -141 18 -190 44v77c50 -31 124 -55 190 -55
c74 0 123 31 123 88c0 50 -37 70 -130 74c-101 4 -164 34 -180 98h-255c-25 0 -48 2 -71 7c-69 -21 -129 -62 -129 -127c0 -58 46 -94 104 -94c68 0 123 48 139 117h72v-228h-77v112c-19 -36 -80 -67 -140 -67c-107 0 -179 64 -179 158c0 78 57 133 128 161
c-46 30 -75 76 -75 135c0 75 66 149 163 149c102 0 170 -67 170 -145c0 -56 -24 -90 -58 -114h207c14 69 79 102 157 102h99v84h-343v67h565v-67h-144v-151z" />
    <glyph glyph-name="dvK_S_TA" horiz-adv-x="1086" 
d="M271 583c-54 0 -90 -39 -90 -85c0 -59 37 -91 95 -103c44 15 84 41 84 104c0 41 -39 84 -89 84zM1108 642v-67h-116v-575h-78v384h-94c-117 0 -177 -53 -177 -156c0 -95 45 -160 143 -160c7 0 18 0 23 1v-67c-7 -1 -18 -2 -30 -2c-136 0 -216 98 -216 229
c0 35 6 67 18 96h-249c-25 0 -48 2 -71 7c-69 -21 -129 -62 -129 -127c0 -58 46 -94 104 -94c68 0 123 48 139 117h72v-228h-77v112c-19 -36 -80 -67 -140 -67c-107 0 -179 64 -179 158c0 78 57 133 128 161c-46 30 -75 76 -75 135c0 75 66 149 163 149
c102 0 170 -67 170 -145c0 -56 -24 -90 -58 -114h245c41 39 103 63 186 63h104v123h-392v67h586z" />
    <glyph glyph-name="dvK_S_P_RA" horiz-adv-x="1539" 
d="M1366 399v176h-234v-183c0 -97 35 -134 106 -134c67 0 128 50 128 141zM837 333h221c-3 18 -5 38 -5 60v182h-189v-143c0 -42 -9 -75 -27 -99zM425 575v-141c25 27 62 44 109 44c92 0 146 -57 162 -134c73 2 90 36 90 94v137h-361zM1560 642v-67h-115v-575h-79v255
l-243 -255h-102l184 196c-55 5 -98 27 -123 69h-192c-84 0 -137 4 -170 9l184 -274h-95l-187 282v23h-1c0 57 -34 109 -97 109c-57 0 -99 -45 -99 -106v-308h-79v144c-28 -29 -69 -46 -116 -46c-109 0 -184 72 -184 180c0 120 90 192 198 192c9 0 18 -1 23 -3v-66
c-5 1 -13 1 -19 1c-69 0 -124 -44 -124 -123c0 -68 47 -117 115 -117c57 0 107 45 107 108v305h-368v67h1582z" />
    <glyph glyph-name="dvK_S_P_LA" horiz-adv-x="2038" 
d="M1865 462v113h-738v-201c0 -97 35 -134 106 -134c52 0 99 27 129 68c15 95 77 161 169 161c73 0 121 -35 134 -94c15 64 65 98 140 98c24 0 45 -5 60 -11zM837 333h213c-1 13 -2 27 -2 42v200h-184v-143c0 -42 -9 -75 -27 -99zM425 575v-141c25 27 62 44 109 44
c92 0 146 -57 162 -134c73 2 89 36 89 94v137h-360zM2060 642v-67h-116v-575h-79v396c-14 7 -33 13 -54 13c-66 0 -108 -38 -108 -127v-72h-78v74c0 83 -32 119 -87 119s-101 -46 -101 -141c0 -106 53 -196 173 -196c6 0 17 0 27 2v-65c-12 -2 -27 -3 -38 -3
c-133 0 -222 93 -237 221c-36 -27 -80 -45 -134 -45c-78 0 -133 27 -161 89h-178c-84 0 -137 4 -170 9l184 -274h-95l-187 282v23c0 57 -34 109 -97 109c-57 0 -99 -45 -99 -106v-308h-79v144c-28 -29 -69 -46 -116 -46c-109 0 -184 72 -184 180c0 120 90 192 198 192
c9 0 18 -1 23 -3v-66c-5 1 -13 1 -19 1c-69 0 -124 -44 -124 -123c0 -68 47 -117 115 -117c57 0 107 45 107 108v305h-368v67h2082z" />
    <glyph glyph-name="dvKH_KHA" horiz-adv-x="1350" 
d="M1178 451v124h-335v-117c0 -95 -26 -145 -116 -149l-13 -1c27 -104 121 -197 251 -197c127 0 217 81 217 192c0 75 -41 125 -115 125c-58 0 -89 -40 -89 -84s30 -72 70 -72c15 0 29 2 45 10v-61c-17 -7 -35 -11 -53 -11c-75 0 -137 52 -137 132c0 83 68 149 159 149
c43 0 84 -13 116 -40zM285 575v-117c0 -93 -26 -144 -113 -148c-2 -1 -14 -2 -16 -2c27 -104 121 -197 252 -197c129 0 210 77 210 188c0 73 -35 129 -111 129c-57 0 -87 -40 -87 -84s30 -72 70 -72c14 0 29 2 45 10v-61c-17 -7 -36 -11 -54 -11c-75 0 -137 52 -137 132
c0 83 68 149 159 149c79 0 149 -37 176 -117h10c70 0 76 29 76 95v106h-480zM1373 642v-67h-116v-575h-79v137c-46 -57 -120 -95 -219 -95c-129 0 -228 68 -288 162c-38 -92 -131 -162 -268 -162c-175 0 -294 122 -338 267v65h66c69 0 75 29 75 95v106h-228v67h1395z" />
    <glyph glyph-name="dvKH_TA" horiz-adv-x="1140" 
d="M968 452v123h-683v-117c0 -93 -26 -144 -113 -148c-2 -1 -14 -2 -16 -2c27 -104 121 -197 252 -197c129 0 210 77 210 188c0 73 -35 129 -111 129c-57 0 -87 -40 -87 -84s30 -72 70 -72c14 0 29 2 45 10v-61c-17 -7 -36 -11 -54 -11c-75 0 -137 52 -137 132
c0 83 68 149 159 149c76 0 143 -34 172 -106c41 42 103 67 189 67h104zM1162 642v-67h-116v-575h-78v384h-95c-117 0 -177 -53 -177 -156c0 -95 46 -160 144 -160c7 0 17 0 23 1v-67c-8 -1 -18 -2 -30 -2c-102 0 -173 55 -202 138c-48 -57 -126 -96 -228 -96
c-175 0 -294 122 -338 267v65h66c69 0 75 29 75 95v106h-228v67h1184z" />
    <glyph glyph-name="dvKHx_TA" horiz-adv-x="1140" 
d="M84 47c30 0 54 -24 54 -53c0 -30 -24 -52 -54 -52s-52 22 -52 52c0 29 22 53 52 53zM968 452v123h-683v-117c0 -93 -26 -144 -113 -148c-2 -1 -14 -2 -16 -2c27 -104 121 -197 252 -197c129 0 210 77 210 188c0 73 -35 129 -111 129c-57 0 -87 -40 -87 -84s30 -72 70 -72
c14 0 29 2 45 10v-61c-17 -7 -36 -11 -54 -11c-75 0 -137 52 -137 132c0 83 68 149 159 149c76 0 143 -34 172 -106c41 42 103 67 189 67h104zM1162 642v-67h-116v-575h-78v384h-95c-117 0 -177 -53 -177 -156c0 -95 46 -160 144 -160c7 0 17 0 23 1v-67
c-8 -1 -18 -2 -30 -2c-102 0 -173 55 -202 138c-48 -57 -126 -96 -228 -96c-175 0 -294 122 -338 267v65h66c69 0 75 29 75 95v106h-228v67h1184z" />
    <glyph glyph-name="dvKH_NA" horiz-adv-x="792" 
d="M620 450v125h-335v-117c0 -95 -27 -145 -116 -149l-13 -1c27 -104 121 -197 251 -197c127 0 217 81 217 192c0 75 -41 125 -116 125c-57 0 -88 -40 -88 -84s30 -72 70 -72c14 0 29 2 45 10v-61c-17 -7 -36 -11 -54 -11c-75 0 -137 52 -137 132c0 83 68 149 159 149
c43 0 85 -13 117 -41zM814 642v-67h-116v-575h-78v138c-24 -30 -55 -54 -93 -71v0l-281 -122c-16 -7 -24 -16 -24 -31c0 -23 19 -59 37 -85l-58 -18c-25 22 -63 69 -63 115c0 31 18 55 62 71l124 53c-132 30 -222 137 -259 259v65h66c69 0 75 29 75 95v106h-228v67h836z" />
    <glyph glyph-name="dvKH_MA" horiz-adv-x="1143" 
d="M972 346v229h-210v-229h210zM535 282v-61c-17 -7 -36 -11 -54 -11c-75 0 -137 52 -137 132c0 83 68 149 159 149c85 0 160 -43 181 -135v219h-399v-117c0 -93 -26 -144 -113 -148c-2 -1 -14 -2 -16 -2c27 -104 121 -197 252 -197c129 0 210 77 210 188
c0 73 -35 129 -111 129c-57 0 -87 -40 -87 -84s30 -72 70 -72c14 0 29 2 45 10zM1165 642v-67h-115v-575h-78v280h-210v-136h-68l-25 55c-39 -89 -132 -157 -266 -157c-175 0 -294 122 -338 267v65h66c69 0 75 29 75 95v106h-228v67h1187z" />
    <glyph glyph-name="dvKHx_MA" horiz-adv-x="1143" 
d="M84 47c30 0 54 -24 54 -53c0 -30 -24 -52 -54 -52s-52 22 -52 52c0 29 22 53 52 53zM972 346v229h-210v-229h210zM535 282v-61c-17 -7 -36 -11 -54 -11c-75 0 -137 52 -137 132c0 83 68 149 159 149c85 0 160 -43 181 -135v219h-399v-117c0 -93 -26 -144 -113 -148
c-2 -1 -14 -2 -16 -2c27 -104 121 -197 252 -197c129 0 210 77 210 188c0 73 -35 129 -111 129c-57 0 -87 -40 -87 -84s30 -72 70 -72c14 0 29 2 45 10zM1165 642v-67h-115v-575h-78v280h-210v-136h-68l-25 55c-39 -89 -132 -157 -266 -157c-175 0 -294 122 -338 267v65h66
c69 0 75 29 75 95v106h-228v67h1187z" />
    <glyph glyph-name="dvKH_YA" horiz-adv-x="1186" 
d="M1015 334v241h-187c15 -23 25 -55 25 -93c0 -94 -70 -140 -148 -164c16 -72 75 -126 155 -126c92 0 155 55 155 142zM535 282v-61c-17 -7 -36 -11 -54 -11c-75 0 -137 52 -137 132c0 83 68 149 159 149c77 0 145 -35 173 -109c66 23 99 60 99 104c0 39 -15 70 -31 89
h-459v-117c0 -93 -26 -144 -113 -148c-2 -1 -14 -2 -16 -2c27 -104 121 -197 252 -197c129 0 210 77 210 188c0 73 -35 129 -111 129c-57 0 -87 -40 -87 -84s30 -72 70 -72c14 0 29 2 45 10zM1208 642v-67h-115v-575h-78v194c-32 -43 -89 -69 -162 -69
c-71 0 -134 29 -179 85c-36 -95 -131 -168 -271 -168c-175 0 -294 122 -338 267v65h66c69 0 75 29 75 95v106h-228v67h1230z" />
    <glyph glyph-name="dvKHx_YA" horiz-adv-x="1186" 
d="M84 47c30 0 54 -24 54 -53c0 -30 -24 -52 -54 -52s-52 22 -52 52c0 29 22 53 52 53zM1015 334v241h-187c15 -23 25 -55 25 -93c0 -94 -70 -140 -148 -164c16 -72 75 -126 155 -126c92 0 155 55 155 142zM535 282v-61c-17 -7 -36 -11 -54 -11c-75 0 -137 52 -137 132
c0 83 68 149 159 149c77 0 145 -35 173 -109c66 23 99 60 99 104c0 39 -15 70 -31 89h-459v-117c0 -93 -26 -144 -113 -148c-2 -1 -14 -2 -16 -2c27 -104 121 -197 252 -197c129 0 210 77 210 188c0 73 -35 129 -111 129c-57 0 -87 -40 -87 -84s30 -72 70 -72
c14 0 29 2 45 10zM1208 642v-67h-115v-575h-78v194c-32 -43 -89 -69 -162 -69c-71 0 -134 29 -179 85c-36 -95 -131 -168 -271 -168c-175 0 -294 122 -338 267v65h66c69 0 75 29 75 95v106h-228v67h1230z" />
    <glyph glyph-name="dvKH_VA" horiz-adv-x="1146" 
d="M974 313v262h-689v-117c0 -93 -26 -144 -113 -148c-2 -1 -14 -2 -16 -2c27 -104 121 -197 252 -197c129 0 210 77 210 188c0 73 -35 129 -111 129c-57 0 -87 -40 -87 -84s30 -72 70 -72c14 0 29 2 45 10v-61c-17 -7 -36 -11 -54 -11c-75 0 -137 52 -137 132
c0 83 68 149 159 149c67 0 128 -27 161 -83c35 40 89 65 153 65c22 0 47 -3 63 -8v-69c-17 6 -37 9 -59 9c-69 0 -123 -48 -123 -122c0 -79 55 -128 124 -128c98 0 152 78 152 158zM1168 642v-67h-116v-575h-78v166c-30 -43 -84 -75 -160 -75c-63 0 -124 27 -161 78
c-45 -74 -131 -127 -250 -127c-175 0 -294 122 -338 267v65h66c69 0 75 29 75 95v106h-228v67h1190z" />
    <glyph glyph-name="dvKHx_VA" horiz-adv-x="1146" 
d="M84 47c30 0 54 -24 54 -53c0 -30 -24 -52 -54 -52s-52 22 -52 52c0 29 22 53 52 53zM974 313v262h-689v-117c0 -93 -26 -144 -113 -148c-2 -1 -14 -2 -16 -2c27 -104 121 -197 252 -197c129 0 210 77 210 188c0 73 -35 129 -111 129c-57 0 -87 -40 -87 -84s30 -72 70 -72
c14 0 29 2 45 10v-61c-17 -7 -36 -11 -54 -11c-75 0 -137 52 -137 132c0 83 68 149 159 149c67 0 128 -27 161 -83c35 40 89 65 153 65c22 0 47 -3 63 -8v-69c-17 6 -37 9 -59 9c-69 0 -123 -48 -123 -122c0 -79 55 -128 124 -128c98 0 152 78 152 158zM1168 642v-67h-116
v-575h-78v166c-30 -43 -84 -75 -160 -75c-63 0 -124 27 -161 78c-45 -74 -131 -127 -250 -127c-175 0 -294 122 -338 267v65h66c69 0 75 29 75 95v106h-228v67h1190z" />
    <glyph glyph-name="dvKH_SHA" horiz-adv-x="1285" 
d="M780 442h-77c-10 21 -13 43 -13 64c0 72 52 137 145 137c103 0 165 -80 165 -173c0 -143 -115 -214 -226 -214h-33l230 -256h-103l-191 219c-34 -99 -130 -177 -274 -177c-175 0 -294 122 -338 267v65h66c69 0 75 29 75 95v106h-228v67h627v-67h-320v-117
c0 -93 -26 -144 -113 -148c-2 -1 -14 -2 -16 -2c27 -104 121 -197 252 -197c129 0 210 77 210 188c0 73 -35 129 -111 129c-57 0 -87 -40 -87 -84s30 -72 70 -72c14 0 29 2 45 10v-61c-17 -7 -36 -11 -54 -11c-75 0 -137 52 -137 132c0 83 68 149 159 149
c95 0 176 -53 186 -168h57c111 0 176 54 176 145c0 75 -36 107 -87 107c-49 0 -70 -36 -70 -76c0 -21 5 -40 15 -57zM1112 642h195v-67h-116v-575h-79v642z" />
    <glyph glyph-name="dvKHx_SHA" horiz-adv-x="1284" 
d="M84 47c30 0 54 -24 54 -53c0 -30 -24 -52 -54 -52s-52 22 -52 52c0 29 22 53 52 53zM780 442h-77c-10 21 -13 43 -13 64c0 72 52 137 145 137c103 0 165 -80 165 -173c0 -143 -115 -214 -226 -214h-33l230 -256h-103l-191 219c-34 -99 -130 -177 -274 -177
c-175 0 -294 122 -338 267v65h66c69 0 75 29 75 95v106h-228v67h627v-67h-320v-117c0 -93 -26 -144 -113 -148c-2 -1 -14 -2 -16 -2c27 -104 121 -197 252 -197c129 0 210 77 210 188c0 73 -35 129 -111 129c-57 0 -87 -40 -87 -84s30 -72 70 -72c14 0 29 2 45 10v-61
c-17 -7 -36 -11 -54 -11c-75 0 -137 52 -137 132c0 83 68 149 159 149c95 0 176 -53 186 -168h57c111 0 176 54 176 145c0 75 -36 107 -87 107c-49 0 -70 -36 -70 -76c0 -21 5 -40 15 -57zM1112 642h195v-67h-116v-575h-79v642z" />
    <glyph glyph-name="dvKHx_SA" horiz-adv-x="1236" 
d="M84 47c30 0 54 -24 54 -53c0 -30 -24 -52 -54 -52s-52 22 -52 52c0 29 22 53 52 53zM844 333h221v242h-194v-143c0 -42 -9 -75 -27 -99zM285 575v-117c0 -93 -26 -144 -113 -148c-2 -1 -14 -2 -16 -2c27 -104 121 -197 252 -197c129 0 210 77 210 188
c0 73 -35 129 -111 129c-57 0 -87 -40 -87 -84s30 -72 70 -72c14 0 29 2 45 10v-61c-17 -7 -36 -11 -54 -11c-75 0 -137 52 -137 132c0 83 68 149 159 149c89 0 166 -46 183 -147h9c80 0 98 34 98 94v137h-508zM1258 642v-67h-115v-575h-78v265h-168c-84 0 -137 4 -170 9
l184 -274h-95l-141 213c-36 -96 -131 -171 -272 -171c-175 0 -294 122 -338 267v65h66c69 0 75 29 75 95v106h-228v67h1280z" />
    <glyph glyph-name="dvG_GA" horiz-adv-x="878" 
d="M900 642v-67h-116v-575h-77v575h-175v-234c0 -84 -43 -132 -125 -132c-30 0 -56 6 -73 13v69s30 -14 61 -14c41 0 60 22 60 67v231h-227v-234c0 -84 -43 -132 -125 -132c-30 0 -56 6 -73 13v69s30 -14 61 -14c41 0 60 22 60 67v231h-173v67h922z" />
    <glyph glyph-name="dvG_GHA" horiz-adv-x="932" 
d="M762 330v245h-260c-37 -20 -56 -50 -56 -89c0 -63 55 -79 126 -79h48v-68h-59c-74 0 -121 -33 -121 -93c0 -62 61 -87 121 -87c114 0 201 80 201 171zM955 642v-67h-116v-575h-77v186c-38 -50 -114 -93 -207 -93c-115 0 -194 59 -194 153c0 71 47 112 117 126
c-53 6 -111 40 -111 112c0 36 14 67 42 91h-181v-234c0 -84 -43 -132 -125 -132c-30 0 -56 6 -73 13v69s30 -14 61 -14c41 0 60 22 60 67v231h-173v67h977z" />
    <glyph glyph-name="dvG_JA" horiz-adv-x="962" 
d="M984 642v-67h-116v-575h-78v384h-201c44 -26 72 -74 72 -141c0 -107 -79 -180 -199 -180c-46 0 -88 9 -120 22v72c31 -16 68 -28 112 -28c76 0 129 43 129 119c0 91 -68 136 -175 136v67h382v124h-562v-234c0 -84 -43 -132 -125 -132c-30 0 -56 6 -73 13v69
s30 -14 61 -14c41 0 60 22 60 67v231h-173v67h1006z" />
    <glyph glyph-name="dvG_NNA" horiz-adv-x="1054" 
d="M642 348v227h-183v-227c0 -65 24 -109 89 -109c61 0 94 33 94 109zM1076 642v-67h-116v-575h-78v575h-162v-225c0 -114 -60 -177 -173 -177c-111 0 -166 57 -166 177v225h-153v-234c0 -84 -43 -132 -125 -132c-30 0 -56 6 -73 13v69s30 -14 61 -14c41 0 60 22 60 67v231
h-173v67h1098z" />
    <glyph glyph-name="dvG_DA" horiz-adv-x="856" 
d="M758 408h-176c-90 0 -146 -49 -146 -133c0 -88 51 -139 129 -139c80 0 130 50 132 118h75v-264h-78v133c-26 -33 -78 -52 -135 -52c-127 0 -207 90 -207 201c0 115 78 202 224 202h104v101h-452v-234c0 -84 -43 -132 -125 -132c-30 0 -56 6 -73 13v69s30 -14 61 -14
c41 0 60 22 60 67v231h-173v67h900v-67h-120v-167z" />
    <glyph glyph-name="dvG_DHA" horiz-adv-x="915" 
d="M937 642v-67h-115v-575h-78v157c-31 -48 -99 -93 -192 -93c-130 0 -208 70 -208 160c0 77 55 121 127 130c-71 7 -122 45 -122 120c0 45 23 81 62 101h-183v-234c0 -84 -43 -132 -125 -132c-30 0 -56 6 -73 13v69s30 -14 61 -14c41 0 60 22 60 67v231h-173v67h591v-67h-1
c-91 0 -140 -43 -140 -100c0 -64 63 -88 136 -88h50v-67h-59c-81 0 -131 -36 -131 -96c0 -53 49 -93 132 -93c119 0 188 89 188 167v344h193z" />
    <glyph glyph-name="dvG_DH_YA" horiz-adv-x="1316" 
d="M1144 334v241h-187c15 -23 25 -55 25 -93c0 -94 -70 -140 -148 -164c16 -72 76 -126 156 -126c91 0 154 55 154 142zM742 642h596v-67h-116v-575h-78v194c-31 -43 -88 -69 -162 -69c-53 0 -101 16 -141 47c-55 -57 -139 -108 -252 -108c-131 0 -210 70 -210 160
c0 77 55 121 127 130c-71 7 -122 45 -122 120c0 45 23 81 62 101h-218v-234c0 -84 -43 -132 -125 -132c-30 0 -56 6 -73 13v69s30 -14 61 -14c41 0 60 22 60 67v231h-173v67h626v-67h-1c-91 0 -140 -43 -140 -100c0 -64 63 -88 136 -88h50v-67h-59c-81 0 -131 -36 -131 -96
c0 -53 49 -93 134 -93c86 0 152 37 202 91c-27 37 -46 86 -53 145c109 17 162 63 162 119c0 39 -15 70 -30 89h-132v67z" />
    <glyph glyph-name="dvG_DH_VA" horiz-adv-x="1306" 
d="M1328 642v-67h-116v-575h-78v166c-30 -43 -84 -75 -160 -75c-58 0 -113 23 -150 65c-55 -50 -133 -92 -235 -92c-131 0 -210 70 -210 160c0 77 55 121 127 130c-71 7 -122 45 -122 120c0 45 23 81 62 101h-218v-234c0 -84 -43 -132 -125 -132c-30 0 -56 6 -73 13v69
s30 -14 61 -14c41 0 60 22 60 67v231h-173v67h626v-67h-1c-91 0 -140 -43 -140 -100c0 -64 63 -88 136 -88h50v-67h-59c-81 0 -131 -36 -131 -96c0 -53 49 -93 134 -93c83 0 147 34 196 85c-6 20 -10 42 -10 66c0 109 81 191 198 191c22 0 47 -3 63 -8v-69
c-17 6 -37 9 -59 9c-69 0 -123 -48 -123 -122c0 -79 56 -128 124 -128c98 0 152 78 152 158v262h-358v67h552z" />
    <glyph glyph-name="dvG_NA" horiz-adv-x="582" 
d="M-22 642h626v-67h-116v-575h-77v163l-185 -111c-12 -8 -18 -18 -18 -29c0 -27 34 -58 55 -76l-50 -34c-34 20 -92 65 -92 114c0 29 16 48 48 68l242 147v333h-175v-234c0 -84 -44 -132 -125 -132c-30 0 -56 6 -73 13v69s30 -14 61 -14c41 0 60 22 60 67v231h-181v67z" />
    <glyph glyph-name="dvG_N_YA" horiz-adv-x="1175" 
d="M1003 334v241h-187c15 -23 25 -55 25 -93c0 -94 -70 -140 -148 -164c16 -72 75 -126 155 -126c92 0 155 55 155 142zM1196 642v-67h-115v-575h-78v194c-32 -43 -89 -69 -162 -69c-109 0 -202 70 -233 201c-11 11 -37 28 -96 28h-58c-25 0 -33 -12 -33 -38
c0 -22 5 -51 13 -74h-66c-12 23 -28 63 -28 104c0 45 27 75 87 75h89c70 0 116 -20 144 -40c69 22 103 60 103 105c0 39 -15 70 -31 89h-504v-234c0 -84 -43 -132 -125 -132c-30 0 -56 6 -73 13v69s30 -14 61 -14c41 0 60 22 60 67v231h-173v67h1218z" />
    <glyph glyph-name="dvG_BA" horiz-adv-x="900" 
d="M657 173l-212 206c-19 -24 -29 -56 -29 -93c0 -83 59 -141 141 -141c40 0 74 10 100 28zM923 642v-67h-116v-575h-78v163c-34 -46 -98 -82 -179 -82c-112 0 -210 81 -210 206c0 122 92 208 219 208c30 0 57 -4 83 -10v-69c-28 9 -55 13 -78 13c-30 0 -57 -6 -78 -17
l209 -205c22 28 34 63 34 99v269h-501v-234c0 -84 -43 -132 -125 -132c-30 0 -56 6 -73 13v69s30 -14 61 -14c41 0 60 22 60 67v231h-173v67h945z" />
    <glyph glyph-name="dvG_BHA" horiz-adv-x="845" 
d="M674 642h193v-67h-116v-575h-77v281h-197v-137h-69l-25 56c-14 31 -27 63 -27 89c0 28 18 50 43 55v165c0 43 -10 66 -54 66h-117v-234c0 -84 -43 -132 -125 -132c-30 0 -56 6 -73 13v69s30 -14 61 -14c41 0 60 22 60 67v231h-173v67h380c90 0 119 -40 119 -117v-178h197
v295z" />
    <glyph glyph-name="dvG_BH_YA" horiz-adv-x="1226" 
d="M1055 334v241h-187c15 -23 25 -55 25 -93c0 -94 -69 -149 -148 -172c16 -72 75 -118 155 -118c92 0 155 55 155 142zM621 642h627v-67h-115v-575h-78v194c-32 -43 -89 -69 -162 -69c-106 0 -190 56 -225 167c-51 -9 -103 -11 -145 -11h-46v-137h-69l-25 56
c-14 31 -27 63 -27 89c0 28 18 50 43 55v165c0 43 -10 66 -54 66h-117v-234c0 -84 -43 -132 -125 -132c-30 0 -56 6 -73 13v69s30 -14 61 -14c41 0 60 22 60 67v231h-173v67h380c90 0 119 -40 119 -117v-178h46c102 0 292 10 292 140c0 39 -15 69 -31 88h-163v67z" />
    <glyph glyph-name="dvG_MA" horiz-adv-x="861" 
d="M689 346v229h-210v-229h210zM882 642v-67h-115v-575h-78v280h-210v-136h-68l-25 56c-13 31 -27 65 -27 90c0 27 17 47 42 53v232h-173v-234c0 -84 -43 -132 -125 -132c-30 0 -56 6 -73 13v69s30 -14 61 -14c41 0 60 22 60 67v231h-173v67h904z" />
    <glyph glyph-name="dvG_YA" horiz-adv-x="936" 
d="M765 334v241h-187c15 -23 25 -55 25 -93c0 -94 -70 -140 -148 -164c16 -72 75 -126 155 -126c92 0 155 55 155 142zM958 642v-67h-115v-575h-78v194c-32 -43 -89 -69 -162 -69c-120 0 -220 84 -241 242c109 17 163 63 163 119c0 39 -15 70 -31 89h-266v-234
c0 -84 -43 -132 -125 -132c-30 0 -56 6 -73 13v69s30 -14 61 -14c41 0 60 22 60 67v231h-173v67h980z" />
    <glyph glyph-name="dvG_R_YA" horiz-adv-x="976" 
d="M805 334v241h-187c15 -23 25 -55 25 -93c0 -94 -70 -140 -148 -164c16 -72 75 -126 155 -126c92 0 155 55 155 142zM998 642v-67h-115v-575h-78v194c-32 -43 -89 -69 -162 -69c-78 0 -148 36 -193 105l-294 -250h-110l371 319c-7 21 -12 44 -15 68c109 17 163 63 163 119
c0 39 -15 70 -31 89h-298v-234c0 -84 -44 -132 -126 -132c-30 0 -56 6 -73 13v69s30 -14 61 -14c41 0 60 22 60 67v231h-180v67h1020z" />
    <glyph glyph-name="dvG_LA" horiz-adv-x="1033" 
d="M1054 642v-67h-116v-575h-79v396c-14 7 -33 13 -54 13c-66 0 -108 -38 -108 -127v-72h-78v74c0 83 -32 119 -87 119s-101 -46 -101 -141c0 -106 53 -196 173 -196c6 0 17 0 27 2v-65c-12 -2 -27 -3 -38 -3c-147 0 -240 114 -240 263c0 119 66 206 172 206
c73 0 121 -35 134 -94c15 64 65 98 140 98c24 0 45 -5 60 -11v113h-631v-234c0 -84 -43 -132 -125 -132c-30 0 -56 6 -73 13v69s30 -14 61 -14c41 0 60 22 60 67v231h-173v67h1076z" />
    <glyph glyph-name="dvG_VA" horiz-adv-x="880" 
d="M902 642v-67h-116v-575h-78v166c-30 -43 -84 -75 -160 -75c-101 0 -195 69 -195 191c0 109 81 191 198 191c22 0 47 -3 63 -8v-69c-17 6 -37 9 -59 9c-69 0 -123 -48 -123 -122c0 -79 55 -128 124 -128c98 0 152 78 152 158v262h-480v-234c0 -84 -43 -132 -125 -132
c-30 0 -56 6 -73 13v69s30 -14 61 -14c41 0 60 22 60 67v231h-173v67h924z" />
    <glyph glyph-name="dvG_SA" horiz-adv-x="962" 
d="M569 333h221v242h-194v-143c0 -42 -9 -75 -27 -99zM983 642v-67h-115v-575h-78v265h-168c-84 0 -137 4 -170 9l184 -274h-95l-187 282v62h66c80 0 98 34 98 94v137h-290v-234c0 -84 -43 -132 -125 -132c-30 0 -56 6 -73 13v69s30 -14 61 -14c41 0 60 22 60 67v231h-173
v67h1005z" />
    <glyph glyph-name="dvGH_NA" horiz-adv-x="646" 
d="M475 330v245h-259c-37 -20 -57 -48 -57 -86c0 -59 58 -82 126 -82h48v-68h-59c-74 0 -121 -33 -121 -93c0 -62 61 -87 121 -87c114 0 201 80 201 171zM668 642v-67h-116v-575h-77v186c-18 -23 -44 -45 -76 -62l-167 -106c-16 -9 -22 -21 -22 -35c0 -26 27 -56 51 -79
l-51 -34c-38 21 -88 67 -88 116c0 27 14 48 45 68l71 40c-98 10 -164 66 -164 152c0 71 50 116 117 126c-53 6 -111 43 -111 112c0 36 14 67 42 91h-144v67h690z" />
    <glyph glyph-name="dvGH_MA" horiz-adv-x="914" 
d="M743 346v229h-210v-229h210zM329 339h-59c-74 0 -121 -33 -121 -93c0 -62 61 -87 121 -87s121 23 159 68c-9 23 -16 45 -16 63c0 27 17 47 42 53v232h-244c-37 -20 -56 -50 -56 -89c0 -63 55 -79 126 -79h48v-68zM936 642v-67h-115v-575h-78v280h-210v-136h-68l-10 23
c-46 -45 -115 -74 -191 -74c-115 0 -194 59 -194 153c0 71 47 112 117 126c-53 6 -111 40 -111 112c0 36 14 67 42 91h-140v67h958z" />
    <glyph glyph-name="dvGH_YA" horiz-adv-x="980" 
d="M808 334v241h-187c15 -23 25 -55 25 -93c0 -94 -70 -140 -148 -164c16 -72 75 -126 155 -126c92 0 155 55 155 142zM329 339h-59c-74 0 -121 -33 -121 -93c0 -62 61 -87 121 -87c73 0 131 32 175 83c-20 35 -34 76 -40 125c109 17 163 63 163 119c0 39 -15 70 -31 89
h-326c-37 -20 -56 -50 -56 -89c0 -63 55 -79 126 -79h48v-68zM1001 642v-67h-115v-575h-78v194c-32 -43 -89 -69 -162 -69c-63 0 -121 23 -164 68c-51 -59 -123 -100 -218 -100c-115 0 -194 59 -194 153c0 71 47 112 117 126c-53 6 -111 40 -111 112c0 36 14 67 42 91h-140
v67h1023z" />
    <glyph glyph-name="dvC_CA" horiz-adv-x="998" 
d="M1020 642v-67h-116v-575h-78v188c-29 -46 -89 -88 -183 -89c-73 0 -134 29 -165 81c-42 -45 -109 -81 -192 -81c-110 0 -194 57 -194 162c0 57 28 101 77 126h-141v67h342v-67c-160 0 -200 -63 -200 -121c0 -63 52 -102 122 -102c71 0 131 39 165 84v14
c0 59 29 101 77 125h-112v67h312v-67c-160 0 -200 -63 -200 -121c0 -67 49 -102 118 -102c116 0 174 86 174 163v248h-848v67h1042z" />
    <glyph glyph-name="dvC_CHA" horiz-adv-x="1027" 
d="M823 481v94h-204c-42 -23 -62 -61 -62 -102c0 -58 48 -92 101 -92h30v-67h-38c-72 0 -110 -35 -110 -88c0 -65 67 -104 152 -104c115 0 201 67 201 186c0 65 -36 110 -112 110c-15 0 -34 -3 -43 -7v65c12 5 36 7 55 7c10 0 20 -1 30 -2zM1049 575h-153v-117
c51 -29 76 -83 76 -149c0 -146 -119 -252 -280 -252c-108 0 -194 41 -222 115c-42 -42 -106 -73 -184 -73c-110 0 -194 57 -194 162c0 57 28 101 77 126h-141v67h342v-67c-160 0 -200 -63 -200 -121c0 -63 52 -102 122 -102c78 0 144 49 173 96c13 52 54 86 109 92
c-43 7 -95 49 -95 121c0 37 14 76 45 102h-546v67h1071v-67z" />
    <glyph glyph-name="dvC_CH_VA" horiz-adv-x="1038" 
d="M851 481v94h-241c-41 -22 -61 -57 -61 -98c0 -59 47 -84 100 -84h30v-67h-38c-69 0 -110 -34 -110 -81c0 -69 76 -107 179 -107c118 0 210 70 210 172c0 65 -36 108 -112 108c-15 0 -34 -3 -43 -7v65c12 5 36 7 55 7c11 0 21 -1 31 -2zM845 7v93
c-41 -18 -87 -28 -135 -28h-9v0c-78 0 -132 -39 -132 -111c0 -74 52 -114 124 -114c98 0 152 79 152 160zM1060 575h-137v-116c51 -28 76 -81 76 -147c0 -64 -30 -121 -77 -163v-453h-77v166c-29 -44 -82 -79 -160 -79c-101 0 -195 62 -195 178c0 58 30 107 78 136
c-44 17 -77 42 -97 75c-42 -41 -107 -73 -185 -73c-110 0 -194 57 -194 162c0 57 28 101 77 126h-141v67h342v-67c-160 0 -200 -63 -200 -121c0 -63 52 -102 122 -102c68 0 127 37 160 78v0c0 68 53 112 113 119c-42 7 -95 44 -95 116c0 37 14 73 45 98h-537v67h1082v-67z
" />
    <glyph glyph-name="dvC_NA" horiz-adv-x="642" 
d="M664 642v-67h-116v-575h-78v190c-14 -23 -35 -45 -64 -62l-172 -108c-12 -8 -19 -17 -19 -31c0 -27 26 -61 46 -79l-51 -35c-35 24 -81 67 -81 116c0 27 15 50 46 68l76 43c-87 12 -151 69 -151 160c0 59 29 101 78 125h-142v67h341v-67c-159 0 -199 -63 -199 -121
c0 -67 49 -102 118 -102c116 0 174 86 174 163v248h-492v67h686z" />
    <glyph glyph-name="dvC_MA" horiz-adv-x="947" 
d="M776 346v229h-210v-229h210zM969 642v-67h-115v-575h-78v280h-210v-136h-68l-17 38c-42 -46 -110 -83 -195 -83c-110 0 -194 57 -194 162c0 57 28 101 77 126h-141v67h342v-67c-160 0 -200 -63 -200 -121c0 -63 52 -102 122 -102c69 0 128 37 163 81c-5 17 -9 32 -9 45
c0 27 17 47 42 53v232h-510v67h991z" />
    <glyph glyph-name="dvC_YA" horiz-adv-x="1008" 
d="M837 334v241h-187c15 -23 25 -55 25 -93c0 -94 -70 -140 -148 -164c16 -72 75 -126 155 -126c92 0 155 55 155 142zM1030 642v-67h-115v-575h-78v194c-32 -43 -89 -69 -162 -69c-69 0 -131 28 -175 81c-39 -57 -115 -107 -214 -107c-110 0 -194 57 -194 162
c0 57 28 101 77 126h-141v67h342v-67c-160 0 -200 -63 -200 -121c0 -63 52 -102 122 -102c76 0 140 46 173 95c-15 31 -26 67 -31 108c109 17 163 63 163 119c0 39 -15 70 -31 89h-588v67h1052z" />
    <glyph glyph-name="dvCH_YA" horiz-adv-x="1188" 
d="M1017 278v297h-794c-42 -23 -62 -61 -62 -102c0 -58 48 -92 101 -92h30v-67h-38c-72 0 -110 -35 -110 -88c0 -65 67 -104 152 -104c115 0 201 67 201 186c0 65 -36 110 -112 110c-15 0 -34 -3 -43 -7v65c12 5 36 7 55 7c46 0 84 -11 112 -30c55 24 137 37 185 37
c131 0 177 -55 177 -120c0 -66 -59 -117 -131 -140c14 -60 65 -100 135 -100c91 0 142 68 142 148zM1215 642v-67h-120v-575h-78v132c-26 -38 -76 -71 -149 -71c-108 0 -201 66 -220 215c85 15 145 43 145 96c0 38 -43 54 -97 54c-41 0 -94 -10 -140 -26
c13 -26 20 -57 20 -91c0 -146 -119 -252 -280 -252c-132 0 -231 62 -231 168c0 72 47 120 113 127c-43 7 -95 49 -95 121c0 37 14 76 45 102h-150v67h1237z" />
    <glyph glyph-name="dvCH_R_YA" horiz-adv-x="1200" 
d="M1029 278v297h-799c-42 -23 -62 -61 -62 -102c0 -58 48 -92 101 -92h30v-67h-38c-72 0 -110 -35 -110 -88c0 -65 67 -104 152 -104c115 0 201 67 201 186c0 65 -36 110 -112 110c-15 0 -34 -3 -43 -7v65c12 5 36 7 55 7c48 0 86 -11 114 -32c55 26 139 39 188 39
c130 0 176 -55 176 -120c0 -66 -59 -117 -130 -140c13 -60 64 -100 135 -100c91 0 142 68 142 148zM1227 642v-67h-121v-575h-77v132c-27 -38 -77 -71 -150 -71c-107 0 -201 66 -219 215c85 15 144 43 144 96c0 38 -42 54 -96 54c-43 0 -97 -10 -145 -27
c13 -26 20 -56 20 -90c0 -118 -78 -210 -193 -241l115 -150h-95l-93 128l-94 -128h-95l110 144c-98 18 -166 75 -166 163c0 72 47 120 113 127c-43 7 -95 49 -95 121c0 37 14 76 45 102h-157v67h1249z" />
    <glyph glyph-name="dvJ_KA" horiz-adv-x="1207" 
d="M1229 575h-368v-143c28 29 69 48 117 48c109 0 184 -73 184 -181c0 -120 -90 -191 -199 -191c-8 0 -17 1 -23 2v67c5 -1 14 -2 20 -2c69 0 123 45 123 124c0 67 -46 116 -114 116c-57 0 -108 -45 -108 -107v-308h-79v144c-28 -29 -69 -46 -116 -46
c-109 0 -184 72 -184 180c0 41 11 77 29 106h-234c44 -26 72 -74 72 -141c0 -107 -79 -180 -199 -180c-46 0 -88 9 -120 22v72c31 -16 68 -28 112 -28c76 0 129 43 129 119c0 91 -68 136 -175 136v67h493c27 12 58 19 91 19c9 0 18 -1 23 -3v-66c-5 1 -13 1 -19 1
c-69 0 -124 -44 -124 -123c0 -68 47 -117 115 -117c57 0 107 45 107 108v305h-804v67h1251v-67z" />
    <glyph glyph-name="dvJ_JA" horiz-adv-x="1050" 
d="M1072 642v-67h-116v-575h-78v384h-201c44 -26 72 -74 72 -141c0 -107 -79 -180 -199 -180c-46 0 -88 9 -120 22v72c31 -16 68 -28 112 -28c76 0 129 43 129 119c0 91 -68 136 -175 136h-219c44 -26 72 -74 72 -141c0 -107 -79 -180 -199 -180c-46 0 -88 9 -120 22v72
c31 -16 68 -28 112 -28c76 0 129 43 129 119c0 91 -68 136 -175 136v67h782v124h-900v67h1094z" />
    <glyph glyph-name="dvJx_JxA" horiz-adv-x="1050" 
d="M154 -33c30 0 54 -24 54 -53c0 -30 -24 -52 -54 -52s-52 22 -52 52c0 29 22 53 52 53zM554 -33c30 0 54 -24 54 -53c0 -30 -24 -52 -54 -52s-52 22 -52 52c0 29 22 53 52 53zM1072 642v-67h-116v-575h-78v384h-201c44 -26 72 -74 72 -141c0 -107 -79 -180 -199 -180
c-46 0 -88 9 -120 22v72c31 -16 68 -28 112 -28c76 0 129 43 129 119c0 91 -68 136 -175 136h-219c44 -26 72 -74 72 -141c0 -107 -79 -180 -199 -180c-46 0 -88 9 -120 22v72c31 -16 68 -28 112 -28c76 0 129 43 129 119c0 91 -68 136 -175 136v67h782v124h-900v67h1094z
" />
    <glyph glyph-name="dvJ_J_NYA" horiz-adv-x="1175" 
d="M1213 642v-67h-132v-575h-78v424h-322c-54 0 -91 -18 -91 -58c0 -38 29 -59 120 -60c105 -1 179 -40 179 -137c0 -92 -78 -152 -171 -152c-58 0 -109 19 -144 51v-116h-77v226h71c22 -54 81 -98 146 -98c57 0 95 37 95 89c0 60 -54 73 -127 73c-112 0 -173 44 -173 121
c0 7 1 14 2 21h-234c44 -26 72 -74 72 -141c0 -107 -79 -180 -199 -180c-46 0 -88 9 -120 22v72c31 -16 68 -28 112 -28c76 0 129 43 129 119c0 91 -68 136 -175 136v67h452c31 26 77 40 131 40h324v84h-1025v67h1235z" />
    <glyph glyph-name="dvJ_J_YA" horiz-adv-x="1438" 
d="M1266 334v241h-187c15 -23 25 -55 25 -93c0 -94 -71 -140 -149 -164c28 -74 78 -126 157 -126c91 0 154 55 154 142zM1460 642v-67h-116v-575h-78v194c-32 -44 -88 -69 -162 -69c-258 0 -165 259 -365 259h-62c45 -27 72 -75 72 -141c0 -107 -79 -180 -199 -180
c-46 0 -88 9 -120 22v72c31 -16 68 -28 112 -28c76 0 129 43 129 119c0 88 -65 134 -167 136h-227c44 -26 72 -74 72 -141c0 -107 -79 -180 -199 -180c-46 0 -88 9 -120 22v72c31 -16 68 -28 112 -28c76 0 129 43 129 119c0 91 -68 136 -175 136v67h643
c93 0 149 -35 178 -71c64 19 109 54 109 111c0 36 -15 66 -30 84h-1018v67h1482z" />
    <glyph glyph-name="dvJ_J_VA" horiz-adv-x="1394" 
d="M1416 642v-67h-116v-575h-78v166c-30 -43 -84 -75 -160 -75c-101 0 -195 69 -195 191c0 38 10 73 28 102h-216c44 -26 72 -74 72 -141c0 -107 -79 -180 -199 -180c-46 0 -88 9 -120 22v72c31 -16 68 -28 112 -28c76 0 129 43 129 119c0 91 -68 136 -174 136h-222
c44 -26 72 -74 72 -141c0 -107 -79 -180 -199 -180c-46 0 -88 9 -120 22v72c31 -16 68 -28 112 -28c76 0 129 43 129 119c0 91 -68 136 -175 136v67h872c28 14 61 22 97 22c22 0 47 -3 63 -8v-69c-17 6 -37 9 -59 9c-69 0 -123 -48 -123 -122c0 -79 55 -128 124 -128
c98 0 152 78 152 158v262h-1244v67h1438z" />
    <glyph glyph-name="dvJ_JHA" horiz-adv-x="1169" 
d="M693 316h304v259h-180v-141h-160c-58 0 -92 -20 -92 -60c0 -41 36 -51 114 -57zM1192 642v-67h-116v-575h-79v252h-163c19 -23 29 -51 29 -85c0 -87 -67 -152 -167 -152c-56 0 -108 18 -144 50v-113h-76v226h70c23 -56 83 -98 146 -98c56 0 93 32 93 85
c0 46 -33 80 -118 86c-102 6 -181 29 -181 121v12h-209c44 -26 72 -74 72 -141c0 -107 -79 -180 -199 -180c-46 0 -88 9 -120 22v72c31 -16 68 -28 112 -28c76 0 129 43 129 119c0 91 -68 136 -175 136v67h418c29 33 78 50 138 50h86v74h-760v67h1214z" />
    <glyph glyph-name="dvJ_NY_YA" horiz-adv-x="1108" 
d="M936 334v241h-186c14 -23 24 -55 24 -93c0 -94 -67 -139 -151 -166c30 -74 63 -124 159 -124c91 0 154 55 154 142zM1130 642v-67h-116v-575h-78v194c-31 -43 -88 -69 -162 -69c-285 0 -140 277 -394 277h-131c-54 0 -91 -14 -91 -55c0 -38 29 -49 120 -50
c105 -1 179 -37 179 -135c0 -92 -78 -145 -171 -145c-58 0 -109 19 -144 51v-116h-77v226h71c22 -54 81 -98 146 -98c57 0 95 31 95 82c0 61 -54 71 -127 71c-112 0 -173 34 -173 112c0 83 72 124 170 124h151c107 0 156 -40 194 -91c64 23 104 61 104 108
c0 39 -14 70 -30 89h-696v67h1160z" />
    <glyph glyph-name="dvJ_TTA" horiz-adv-x="907" 
d="M818 575v-186c-19 3 -49 5 -70 5c-114 0 -198 -53 -198 -157c0 -97 73 -149 177 -149c53 0 112 20 142 38v-72c-31 -16 -90 -32 -145 -32c-149 0 -255 79 -255 216c0 58 21 108 57 146h-249c44 -26 72 -74 72 -141c0 -107 -79 -180 -199 -180c-46 0 -88 9 -120 22v72
c31 -16 68 -28 112 -28c76 0 129 43 129 119c0 91 -68 136 -175 136v67h554c21 4 43 7 66 7c8 0 16 0 24 -1v118h-762v67h951v-67h-111z" />
    <glyph glyph-name="dvJ_DDA" horiz-adv-x="931" 
d="M810 424h-175c-41 0 -84 -16 -84 -63c0 -45 34 -64 136 -69c107 -3 179 -40 179 -138c0 -90 -77 -155 -203 -155c-73 0 -140 18 -189 44v77c49 -31 123 -55 189 -55c75 0 123 31 123 88c0 50 -37 70 -129 74c-117 5 -184 45 -184 132c0 9 1 17 2 25h-198
c44 -26 72 -74 72 -141c0 -107 -79 -180 -199 -180c-46 0 -88 9 -120 22v72c31 -16 68 -28 112 -28c76 0 129 43 129 119c0 91 -68 136 -175 136v67h414c29 27 73 40 122 40h99v84h-753v67h975v-67h-143v-151z" />
    <glyph glyph-name="dvJ_TA" horiz-adv-x="1010" 
d="M1032 642v-67h-116v-575h-78v384h-95c-117 0 -177 -53 -177 -156c0 -95 46 -160 144 -160c7 0 17 0 23 1v-67c-8 -1 -18 -2 -30 -2c-136 0 -216 98 -216 229c0 62 19 117 57 156h-267c45 -26 72 -72 72 -139c0 -107 -79 -181 -199 -181c-46 0 -88 9 -120 23v71
c31 -16 68 -28 112 -28c76 0 129 43 129 119c0 91 -68 135 -175 135v67h634v0h4h104v123h-860v67h1054z" />
    <glyph glyph-name="dvJ_DA" horiz-adv-x="978" 
d="M880 408h-176c-90 0 -147 -49 -147 -133c0 -88 52 -139 130 -139c80 0 130 50 132 118h75v-264h-78v133c-26 -33 -78 -52 -135 -52c-127 0 -207 90 -207 201c0 42 10 80 31 112h-220c44 -26 72 -74 72 -141c0 -107 -79 -180 -199 -180c-46 0 -88 9 -120 22v72
c31 -16 68 -28 112 -28c76 0 129 43 129 119c0 91 -68 136 -175 136v67h478c32 15 70 23 115 23h105v101h-816v67h1014v-67h-120v-167z" />
    <glyph glyph-name="dvJ_NA" horiz-adv-x="642" 
d="M-22 642h686v-67h-115v-575h-79v90l-128 -84c-13 -9 -19 -19 -19 -33c0 -28 29 -53 52 -72l-51 -34c-35 18 -88 60 -88 110c0 24 12 48 45 69l189 121v217h-201c44 -26 72 -72 72 -138c0 -105 -81 -179 -199 -179c-46 0 -88 9 -120 23v71c31 -16 68 -28 112 -28
c76 0 129 41 129 117c0 89 -68 134 -174 134v67h381v124h-492v67z" />
    <glyph glyph-name="dvJ_BA" horiz-adv-x="1038" 
d="M794 173l-212 206c-19 -24 -29 -56 -29 -93c0 -83 59 -141 141 -141c40 0 74 10 100 28zM1060 642v-67h-116v-575h-78v163c-34 -46 -98 -82 -179 -82c-112 0 -210 81 -210 206c0 36 8 69 22 97h-222c44 -26 72 -74 72 -141c0 -107 -79 -180 -199 -180
c-46 0 -88 9 -120 22v72c31 -16 68 -28 112 -28c76 0 129 43 129 119c0 91 -68 136 -175 136v67h460c37 28 85 44 140 44c30 0 57 -4 83 -10v-69c-28 9 -55 13 -78 13c-30 0 -57 -6 -78 -17l209 -205c22 28 34 63 34 99v269h-888v67h1082z" />
    <glyph glyph-name="dvJ_MA" horiz-adv-x="999" 
d="M827 346v229h-210v-229h210zM1020 642v-67h-115v-575h-78v280h-210v-136h-68l-25 56c-13 31 -27 65 -27 90c0 27 17 47 42 53v41h-262c44 -26 72 -74 72 -141c0 -107 -79 -180 -199 -180c-46 0 -88 9 -120 22v72c31 -16 68 -28 112 -28c76 0 129 43 129 119
c0 91 -68 136 -175 136v67h443v124h-561v67h1042z" />
    <glyph glyph-name="dvJ_YA" horiz-adv-x="1034" 
d="M-22 575v67h1082v-67h-116v-575h-78v194c-32 -44 -88 -69 -162 -69c-258 0 -165 259 -365 259h-62c45 -27 72 -75 72 -141c0 -107 -79 -180 -199 -180c-46 0 -88 9 -120 22v72c31 -16 68 -28 112 -28c76 0 129 43 129 119c0 88 -65 134 -167 136h-8v67h243
c93 0 149 -35 178 -71c64 19 109 54 109 111c0 36 -15 66 -30 84h-618zM712 192c91 0 154 55 154 142v241h-187c15 -23 25 -55 25 -93c0 -94 -71 -140 -149 -164c28 -74 78 -126 157 -126z" />
    <glyph glyph-name="dvJx_YA" horiz-adv-x="1034" 
d="M126 -86c0 29 22 53 52 53s54 -24 54 -53c0 -30 -24 -52 -54 -52s-52 22 -52 52zM-22 575v67h1082v-67h-116v-575h-78v194c-32 -44 -88 -69 -162 -69c-258 0 -165 259 -365 259h-62c45 -27 72 -75 72 -141c0 -107 -79 -180 -199 -180c-46 0 -88 9 -120 22v72
c31 -16 68 -28 112 -28c76 0 129 43 129 119c0 88 -65 134 -167 136h-8v67h243c93 0 149 -35 178 -71c64 19 109 54 109 111c0 36 -15 66 -30 84h-618zM712 192c91 0 154 55 154 142v241h-187c15 -23 25 -55 25 -93c0 -94 -71 -140 -149 -164c28 -74 78 -126 157 -126z" />
    <glyph glyph-name="dvJ_VA" horiz-adv-x="996" 
d="M1018 642v-67h-116v-575h-78v166c-30 -43 -84 -75 -160 -75c-101 0 -195 69 -195 191c0 38 10 73 28 102h-220c44 -26 72 -74 72 -141c0 -107 -79 -180 -199 -180c-46 0 -88 9 -120 22v72c31 -16 68 -28 112 -28c76 0 129 43 129 119c0 91 -68 136 -175 136v67h474
c28 14 61 22 97 22c22 0 47 -3 63 -8v-69c-17 6 -37 9 -59 9c-69 0 -123 -48 -123 -122c0 -79 56 -128 124 -128c98 0 152 78 152 158v262h-846v67h1040z" />
    <glyph glyph-name="dvJH_NA" horiz-adv-x="856" 
d="M314 318h378v257h-252v-140h-179c-58 0 -93 -19 -93 -56c0 -40 41 -53 123 -59c8 0 16 -1 23 -2zM878 642v-67h-115v-575h-71v129l-169 -155c-15 -15 -22 -27 -22 -40c0 -25 25 -50 53 -73l-49 -31c-49 22 -88 61 -88 104c0 23 12 48 40 72l235 209v39h-248
c15 -22 23 -50 23 -83c0 -89 -75 -151 -172 -151c-51 0 -106 17 -142 48v-114h-77v226h71c23 -56 81 -96 144 -96c55 0 98 33 98 85c0 45 -25 80 -111 85c-105 5 -189 32 -189 123c0 78 67 124 167 124h106v74h-384v67h900z" />
    <glyph glyph-name="dvJH_MA" horiz-adv-x="1093" 
d="M922 346v229h-210v-229h210zM406 434h-160c-58 0 -92 -20 -92 -60c0 -41 36 -51 114 -57l14 -1h316c7 14 20 23 36 27v232h-228v-141zM1115 642v-67h-115v-575h-78v280h-210v-136h-68l-25 56c-7 17 -15 35 -20 52h-176c19 -23 29 -51 29 -85c0 -87 -67 -152 -167 -152
c-56 0 -108 18 -144 50v-113h-76v226h70c23 -56 83 -98 146 -98c56 0 93 32 93 85c0 46 -33 80 -118 86c-102 6 -181 29 -181 121c0 83 68 129 166 129h86v74h-349v67h1137z" />
    <glyph glyph-name="dvJH_YA" horiz-adv-x="1146" 
d="M972 334v241h-187c16 -24 25 -57 25 -93c0 -86 -67 -149 -147 -174c17 -72 75 -116 155 -116c91 0 154 55 154 142zM271 317c51 0 126 2 177 10c157 15 284 61 284 161c0 38 -15 68 -30 87h-296v-141h-160c-55 0 -92 -16 -92 -56s36 -55 114 -61h3zM1166 642v-67h-116
v-575h-78v194c-31 -43 -88 -69 -162 -69c-100 0 -186 50 -224 158c-37 -10 -79 -16 -125 -20c-13 -2 -28 -3 -43 -5c22 -23 34 -54 34 -91c0 -87 -67 -152 -167 -152c-56 0 -108 18 -144 50v-113h-76v226h70c25 -55 83 -98 146 -98c56 0 93 32 93 85c0 46 -33 80 -118 86
c-108 6 -181 33 -181 125c0 81 68 125 166 125h86v74h-349v67h1188z" />
    <glyph glyph-name="dvNY_CA" horiz-adv-x="1089" 
d="M1111 642v-67h-116v-575h-78v188c-29 -46 -89 -88 -183 -89c-101 0 -181 56 -187 152h-163c-12 -100 -90 -171 -210 -173c-70 0 -116 18 -152 36v74c36 -22 87 -42 146 -42c90 0 137 56 137 131c0 72 -45 123 -122 123c-31 0 -59 -6 -78 -14v67c17 7 49 13 79 13
c112 0 183 -56 199 -148h174c13 30 36 54 68 69h-142v67h341v-67c-159 0 -199 -63 -199 -121c0 -67 49 -102 118 -102c116 0 174 86 174 163v248h-939v67h1133z" />
    <glyph glyph-name="dvNY_CHA" horiz-adv-x="1066" 
d="M862 481v94h-204c-42 -23 -62 -61 -62 -102c0 -58 48 -92 101 -92h30v-67h-38c-72 0 -110 -35 -110 -88c0 -65 67 -104 152 -104c115 0 201 67 201 186c0 65 -36 110 -112 110c-15 0 -34 -3 -43 -7v65c12 5 36 7 55 7c10 0 20 -1 30 -2zM1088 575h-153v-117
c51 -29 76 -83 76 -149c0 -146 -119 -252 -280 -252c-132 0 -231 62 -231 168c0 12 1 23 4 33h-119c-9 -104 -89 -178 -211 -180c-70 0 -116 18 -152 36v74c36 -22 87 -42 146 -42c90 0 137 56 137 131c0 72 -45 123 -122 123c-31 0 -59 -6 -78 -14v67c17 7 49 13 79 13
c110 0 180 -53 197 -141h164c18 15 42 24 68 27c-43 7 -95 49 -95 121c0 37 14 76 45 102h-585v67h1110v-67z" />
    <glyph glyph-name="dvNY_JA" horiz-adv-x="1134" 
d="M514 258h-129c-9 -104 -89 -178 -211 -180c-70 0 -116 18 -152 36v74c36 -22 87 -42 146 -42c90 0 137 56 137 131c0 72 -45 123 -122 123c-31 0 -59 -6 -78 -14v67c17 7 49 13 79 13c110 0 180 -53 197 -141h133v-67zM1156 642v-67h-116v-575h-78v384h-201
c44 -26 71 -74 71 -141c0 -107 -78 -180 -199 -180c-45 0 -87 9 -120 22v72c32 -16 69 -28 112 -28c76 0 129 43 129 119c0 91 -68 136 -174 136v67h382v124h-984v67h1178z" />
    <glyph glyph-name="dvNY_SHA" horiz-adv-x="1166" 
d="M477 642v-67h-499v67h499zM661 442h-77c-9 21 -13 43 -13 64c0 72 53 137 145 137c104 0 165 -80 165 -173c0 -143 -114 -214 -225 -214h-32l229 -256h-104l-222 256h-142c-9 -104 -89 -178 -211 -180c-70 0 -116 18 -152 36v74c36 -22 87 -42 146 -42
c90 0 137 56 137 131c0 72 -45 123 -122 123c-31 0 -59 -6 -78 -14v66c17 8 49 14 79 14c110 0 180 -53 197 -141h246c111 0 176 54 176 145c0 75 -36 107 -86 107s-71 -36 -71 -76c0 -21 6 -40 15 -57zM994 642h194v-67h-115v-575h-79v642z" />
    <glyph glyph-name="dvTT_TTA" horiz-adv-x="561" 
d="M435 575v-146c-20 3 -73 5 -95 5c-99 0 -212 -20 -212 -110c0 -86 96 -110 193 -110c59 0 134 19 168 40v-71c-15 -8 -37 -16 -62 -22v-149c-20 4 -73 6 -95 6c-99 0 -207 -16 -207 -103c0 -80 84 -102 182 -102c66 0 132 19 181 46v-72c-48 -23 -116 -40 -182 -40
c-133 0 -262 40 -262 169c0 114 131 165 257 166c7 0 40 0 47 -1v67c-9 -1 -18 -1 -27 -1c-133 0 -274 45 -274 178c0 116 131 172 261 173c8 0 40 0 48 -1v78h-378v67h605v-67h-148z" />
    <glyph glyph-name="dvTT_TTHA" horiz-adv-x="581" 
d="M456 -98c0 77 -76 109 -170 109c-80 0 -171 -27 -171 -108c0 -75 78 -115 171 -115c87 0 170 35 170 114zM426 575v-146c-20 3 -73 5 -95 5c-99 0 -212 -20 -212 -110c0 -86 96 -110 193 -110c66 0 137 19 180 45v-72c-40 -20 -96 -34 -147 -38v-78
c105 -14 192 -68 192 -169c0 -113 -115 -178 -252 -179c-135 0 -250 62 -250 180s118 167 232 172v74c-118 9 -229 58 -229 176c0 116 132 172 262 173c7 0 40 0 47 -1v78h-353v67h609v-67h-177z" />
    <glyph glyph-name="dvTT_YA" horiz-adv-x="1020" 
d="M848 279v296h-446v-96c24 4 63 6 104 6c88 0 196 -28 196 -126c0 -66 -60 -110 -131 -132c14 -59 65 -97 134 -97c94 0 143 70 143 149zM1042 642v-67h-116v-575h-78v132c-26 -38 -77 -71 -149 -71c-107 0 -201 66 -219 211c87 14 144 37 144 88c0 41 -50 58 -111 59
c-179 0 -377 -26 -377 -186c0 -96 77 -145 177 -145c49 0 107 19 137 37v-70c-29 -17 -85 -33 -140 -33c-146 0 -253 76 -253 213c0 149 123 218 267 234v106h-346v67h1064z" />
    <glyph glyph-name="dvTT_VA" horiz-adv-x="546" 
d="M371 84v66c-16 -2 -33 -3 -50 -3c-13 0 -26 0 -39 1v0c-81 1 -145 -37 -145 -110c0 -61 41 -98 108 -98c77 0 126 52 126 144zM435 575v-146c-20 3 -73 5 -95 5c-99 0 -212 -20 -212 -110c0 -86 96 -110 193 -110c74 0 137 20 184 48v-72c-16 -9 -36 -17 -58 -24v-358
h-76v129c-28 -38 -75 -61 -133 -61c-96 0 -180 58 -180 161c0 64 38 114 95 140c-62 27 -106 74 -106 148c0 116 131 172 262 173c7 0 40 0 47 -1v78h-378v67h591v-67h-134z" />
    <glyph glyph-name="dvTTH_TTHA" horiz-adv-x="577" 
d="M461 327c0 75 -76 110 -172 110c-83 0 -174 -28 -174 -109c0 -79 81 -116 174 -116c87 0 172 37 172 115zM461 -88c0 74 -76 109 -172 109c-83 0 -174 -27 -174 -108c0 -80 81 -115 174 -115c89 0 172 36 172 114zM599 575h-251v-78c103 -15 194 -70 194 -170
c0 -99 -85 -159 -194 -175v-71c103 -15 194 -69 194 -169c0 -116 -117 -178 -254 -179c-135 0 -253 62 -253 180c0 119 124 167 235 172v62c-127 6 -235 68 -235 182c0 118 124 167 235 172v74h-292v67h621v-67z" />
    <glyph glyph-name="dvTTH_YA" horiz-adv-x="1118" 
d="M947 278v297h-605v-120c32 -6 62 -17 88 -33c51 37 131 66 196 66c126 0 175 -56 175 -123c0 -65 -60 -115 -131 -137c13 -61 64 -98 135 -98c91 0 142 68 142 148zM282 120c92 0 154 57 154 139c0 89 -64 134 -154 134c-75 0 -154 -37 -154 -133c0 -83 59 -140 154 -140
zM1141 642v-67h-117v-575h-77v132c-25 -38 -77 -71 -150 -71c-107 0 -200 64 -219 212c85 15 145 41 145 94c0 40 -43 56 -97 56c-49 0 -107 -23 -145 -47c24 -31 38 -70 38 -117c0 -122 -94 -205 -237 -206c-142 0 -237 83 -237 207c0 132 110 193 219 200v115h-286v67
h1163z" />
    <glyph glyph-name="dvTTH_VA" horiz-adv-x="577" 
d="M461 327c0 75 -76 110 -172 110c-83 0 -174 -28 -174 -109c0 -79 81 -116 174 -116c87 0 172 37 172 115zM382 83v75c-27 -6 -57 -10 -87 -11v0c-83 1 -147 -37 -147 -110c0 -61 41 -98 109 -98c76 0 125 52 125 144zM599 575h-251v-78c103 -15 194 -70 194 -170
c0 -61 -32 -107 -83 -138v-383h-77v128c-28 -37 -76 -59 -133 -59c-96 0 -180 58 -180 161c0 61 33 108 85 135c-70 28 -119 82 -119 158c0 118 124 167 235 172v74h-292v67h621v-67z" />
    <glyph glyph-name="dvDD_DDA" horiz-adv-x="551" 
d="M424 444h-190c-63 0 -93 -14 -93 -47c0 -23 17 -43 93 -43c29 0 67 5 119 5c83 0 126 -48 126 -111c-1 -84 -80 -130 -213 -130c-15 0 -31 1 -47 2c-39 -5 -63 -24 -63 -53c0 -24 16 -43 78 -43c26 0 78 7 121 7c85 -1 131 -48 131 -107c0 -85 -76 -138 -205 -138
c-71 0 -157 14 -212 43v77c52 -33 140 -55 214 -55c71 0 125 23 125 67c0 28 -22 47 -66 47c-38 0 -91 -8 -119 -8c-98 0 -148 43 -148 103c0 31 18 62 49 78c-24 7 -46 15 -63 24v77c49 -30 140 -55 204 -55c80 0 136 19 136 63c0 30 -24 49 -67 49c-48 0 -89 -7 -122 -7
c-106 0 -152 49 -152 106c0 84 75 115 169 115h117v65h-368v67h595v-67h-149v-131z" />
    <glyph glyph-name="dvDD_DDHA" horiz-adv-x="554" 
d="M435 444h-191c-59 0 -92 -14 -92 -47c0 -22 15 -43 74 -43c26 0 79 7 130 7c92 0 135 -50 135 -112c0 -77 -70 -123 -185 -130c-100 -12 -158 -57 -158 -133c0 -71 53 -117 148 -117c75 0 127 26 127 67c0 32 -27 47 -71 47c-35 0 -76 -14 -96 -28v65c26 14 67 26 101 26
c84 0 143 -37 143 -104c0 -84 -90 -138 -205 -138c-126 0 -228 67 -228 182c0 62 34 114 93 146c-34 7 -65 18 -88 30v77c49 -30 140 -55 204 -55c80 0 136 19 136 63c0 30 -25 48 -68 48c-51 0 -94 -7 -129 -7c-96 0 -144 49 -144 107c0 84 77 115 169 115h117v65h-379v67
h598v-67h-141v-131z" />
    <glyph glyph-name="dvDD_YA" horiz-adv-x="1058" 
d="M887 278v297h-485v-87h154c132 0 184 -49 184 -124c0 -64 -57 -115 -130 -136c14 -60 66 -98 135 -98c91 0 142 71 142 148zM1080 642v-67h-116v-575h-77v132c-25 -38 -77 -71 -150 -71c-106 0 -200 68 -219 214c85 13 144 38 144 90c0 38 -37 57 -106 57h-327
c-41 0 -84 -16 -84 -63c0 -46 31 -71 76 -72l88 6c101 -1 150 -59 150 -139c-1 -94 -84 -155 -203 -155c-73 0 -140 18 -189 44v77c48 -31 122 -55 187 -55c73 0 125 28 125 89c0 45 -31 73 -81 73l-88 -7c-81 3 -144 54 -144 137c0 89 70 132 159 132h99v86h-346v67h1102z
" />
    <glyph glyph-name="dvDD_VA" horiz-adv-x="550" 
d="M370 40v72c-29 -7 -61 -10 -91 -10c-8 0 -17 0 -25 1c-75 -5 -114 -52 -114 -114c0 -63 46 -99 103 -99c91 0 127 66 127 150zM445 444h-200c-61 0 -93 -18 -93 -50c0 -26 15 -47 68 -47c31 0 72 6 137 6c86 0 136 -48 136 -112c0 -42 -18 -72 -46 -94v-378h-77v121
c-27 -38 -72 -64 -132 -64c-98 0 -177 63 -177 162c0 61 31 107 81 132c-27 7 -51 16 -70 26v77c49 -30 142 -55 206 -55c77 0 134 17 136 67c0 35 -30 53 -74 53c-50 0 -87 -8 -121 -8c-103 0 -148 49 -148 107c0 84 75 123 169 123h127v65h-389v67h594v-67h-127v-131z" />
    <glyph glyph-name="dvDDH_DDHA" horiz-adv-x="561" 
d="M441 575v-149c-31 6 -71 11 -107 11c-115 0 -190 -47 -190 -127s76 -123 163 -123c75 0 130 17 130 66c0 29 -27 46 -72 46c-41 0 -77 -13 -101 -26v65c26 13 61 23 104 23c89 0 146 -42 146 -110c0 -80 -96 -128 -200 -128h-5c-98 -11 -161 -55 -161 -129
c0 -73 68 -119 163 -119c75 0 133 26 133 67c0 32 -27 47 -70 47c-37 0 -80 -13 -103 -28v65c26 14 69 26 105 26c88 0 146 -38 146 -104c0 -84 -97 -138 -212 -138c-127 0 -241 65 -241 182c0 63 39 123 116 155c-68 28 -121 81 -121 164c0 114 107 189 250 190
c16 0 33 -1 49 -2v76h-385v67h605v-67h-142z" />
    <glyph glyph-name="dvDDH_YA" horiz-adv-x="1094" 
d="M594 422c-44 0 -96 -1 -147 -5c-166 -12 -313 -48 -313 -179c0 -92 72 -152 167 -152c69 0 123 32 123 88c0 36 -28 61 -73 61c-33 0 -65 -11 -85 -23v65c26 13 60 21 94 21c92 0 141 -53 141 -123c0 -87 -77 -154 -201 -154c-136 0 -246 84 -246 216
c0 141 121 218 299 237v101h-375v67h1139v-67h-117v-575h-78v132c-24 -38 -77 -71 -149 -71c-108 0 -201 64 -219 212c84 15 144 41 144 94c0 40 -45 55 -104 55zM432 575v-94c56 5 121 6 163 6c131 0 181 -53 181 -122c0 -65 -59 -115 -131 -137c14 -61 65 -98 135 -98
c92 0 142 68 142 148v297h-490z" />
    <glyph glyph-name="dvDDH_VA" horiz-adv-x="561" 
d="M314 123h-7v0c-83 1 -147 -37 -147 -110c0 -61 41 -98 109 -98c76 0 126 52 126 144v74c-25 -6 -53 -10 -81 -10zM441 575v-149c-31 6 -71 11 -107 11c-115 0 -190 -47 -190 -127s76 -123 163 -123c75 0 130 17 130 66c0 29 -27 46 -72 46c-41 0 -77 -13 -101 -26v65
c26 13 61 23 104 23c89 0 146 -42 146 -110c0 -33 -16 -61 -43 -82v-387h-76v130c-28 -39 -76 -61 -133 -61c-96 0 -181 58 -181 161c0 64 37 113 94 139c-63 29 -111 81 -111 160c0 114 107 189 250 190c16 0 33 -1 49 -2v76h-385v67h605v-67h-142z" />
    <glyph glyph-name="dvNN_TTA" horiz-adv-x="958" 
d="M334 348v227h-183v-227c0 -65 24 -109 89 -109c62 0 94 33 94 109zM869 575v-186c-19 3 -49 5 -70 5c-114 0 -198 -53 -198 -157c0 -97 73 -149 177 -149c53 0 112 20 142 38v-72c-31 -16 -90 -32 -145 -32c-149 0 -255 79 -255 216c0 130 103 219 247 220
c8 0 16 0 24 -1v118h-378v-225c0 -114 -61 -177 -174 -177c-111 0 -166 57 -166 177v225h-95v67h1002v-67h-111z" />
    <glyph glyph-name="dvNN_TTHA" horiz-adv-x="1152" 
d="M334 348v227h-183v-227c0 -65 24 -109 89 -109c62 0 94 33 94 109zM-22 575v67h540v-67h-105v-225c0 -114 -61 -177 -174 -177c-111 0 -166 57 -166 177v225h-95zM983 642h191v-67h-113v-575h-78v205c-22 -41 -94 -97 -191 -97c-120 0 -233 71 -249 234
c170 36 256 82 256 164c0 42 -20 76 -66 76c-47 0 -67 -32 -67 -69c0 -32 8 -45 12 -56h-77c-5 14 -12 30 -12 64c0 66 54 127 144 127c93 0 143 -64 143 -141c0 -115 -97 -176 -241 -211c19 -80 77 -121 161 -121c93 0 187 60 187 194v273z" />
    <glyph glyph-name="dvNN_DDA" horiz-adv-x="1004" 
d="M334 348v227h-183v-227c0 -65 24 -109 89 -109c62 0 94 33 94 109zM883 424h-174c-42 0 -84 -16 -84 -63c0 -45 34 -64 135 -69c108 -3 180 -40 180 -138c-1 -90 -77 -155 -203 -155c-73 0 -141 18 -190 44v77c50 -31 124 -55 190 -55c74 0 123 31 123 88
c0 50 -37 70 -130 74c-117 5 -184 45 -184 132c0 89 71 132 160 132h99v84h-392v-225c0 -114 -61 -177 -174 -177c-111 0 -166 57 -166 177v225h-95v67h1049v-67h-144v-151z" />
    <glyph glyph-name="dvNN_DDHA" horiz-adv-x="1023" 
d="M334 348v227h-183v-227c0 -65 24 -109 89 -109c62 0 94 33 94 109zM899 575v-183c-37 6 -70 10 -102 10c-123 0 -196 -67 -196 -159c0 -93 69 -157 167 -157c69 0 123 32 123 88c0 36 -28 61 -73 61c-33 0 -65 -11 -85 -23v65c26 13 60 21 94 21c92 0 141 -53 141 -123
c0 -87 -77 -154 -201 -154c-139 0 -246 87 -246 223c0 125 98 224 254 225c14 0 30 -1 45 -3v109h-407v-225c0 -114 -61 -177 -174 -177c-111 0 -166 57 -166 177v225h-95v67h1067v-67h-146z" />
    <glyph glyph-name="dvNN_NNA" horiz-adv-x="1229" 
d="M817 348v227h-183v-227c0 -65 24 -109 89 -109c61 0 94 33 94 109zM334 348v227h-183v-227c0 -65 24 -109 89 -109c62 0 94 33 94 109zM1251 642v-67h-116v-575h-78v575h-162v-225c0 -114 -60 -177 -173 -177c-111 0 -166 57 -166 177v225h-143v-225
c0 -114 -61 -177 -174 -177c-111 0 -166 57 -166 177v225h-95v67h1273z" />
    <glyph glyph-name="dvNN_MA" horiz-adv-x="1066" 
d="M894 346v229h-210v-229h210zM334 348v227h-183v-227c0 -65 24 -109 89 -109c62 0 94 33 94 109zM1087 642v-67h-115v-575h-78v280h-210v-136h-68l-25 56c-13 31 -27 65 -27 90c0 27 17 47 42 53v232h-193v-225c0 -114 -61 -177 -174 -177c-111 0 -166 57 -166 177v225
h-95v67h1109z" />
    <glyph glyph-name="dvNN_YA" horiz-adv-x="1105" 
d="M933 334v241h-187c15 -23 25 -55 25 -93c0 -94 -70 -140 -148 -164c16 -72 75 -126 155 -126c92 0 155 55 155 142zM334 348v227h-183v-227c0 -65 24 -109 89 -109c62 0 94 33 94 109zM1126 642v-67h-115v-575h-78v194c-32 -43 -89 -69 -162 -69c-120 0 -220 84 -241 242
c109 17 163 63 163 119c0 39 -15 70 -31 89h-249v-225c0 -114 -61 -177 -174 -177c-111 0 -166 57 -166 177v225h-95v67h1148z" />
    <glyph glyph-name="dvNN_VA" horiz-adv-x="1066" 
d="M334 348v227h-183v-227c0 -65 24 -109 89 -109c62 0 94 33 94 109zM1089 642v-67h-116v-575h-78v166c-30 -43 -84 -75 -160 -75c-101 0 -195 69 -195 191c0 109 81 191 198 191c22 0 47 -3 63 -8v-69c-17 6 -37 9 -59 9c-69 0 -123 -48 -123 -122c0 -79 55 -128 124 -128
c98 0 152 78 152 158v262h-482v-225c0 -114 -61 -177 -174 -177c-111 0 -166 57 -166 177v225h-95v67h1111z" />
    <glyph glyph-name="dvT_KA" horiz-adv-x="1151" 
d="M1173 575h-368v-143c28 29 69 48 117 48c109 0 184 -73 184 -181c0 -120 -90 -191 -199 -191c-8 0 -17 1 -23 2v67c5 -1 14 -2 20 -2c69 0 123 45 123 124c0 67 -46 116 -114 116c-57 0 -108 -45 -108 -107v-308h-79v144c-28 -29 -69 -46 -116 -46
c-109 0 -184 72 -184 180c0 41 11 77 29 106h-134c-117 0 -177 -53 -177 -156c0 -95 46 -160 144 -160c7 0 17 0 23 1v-67c-8 -1 -18 -2 -30 -2c-136 0 -216 98 -216 229c0 128 80 223 247 223h223c27 12 57 18 89 18c9 0 18 -1 23 -3v-66c-5 1 -13 1 -19 1
c-69 0 -124 -44 -124 -123c0 -68 47 -117 115 -117c57 0 107 45 107 108v305h-748v67h1195v-67z" />
    <glyph glyph-name="dvT_K_YA" horiz-adv-x="1242" 
d="M1390 334v241h-187c15 -23 25 -55 25 -93c0 -94 -71 -145 -151 -168c24 -79 67 -122 157 -122c89 0 156 53 156 142zM805 575v-144c25 26 61 41 104 41c75 0 115 -43 141 -95c57 17 100 61 100 109c0 39 -15 70 -30 89h-315zM1584 642v-67h-116v-575h-78v194
c-27 -38 -84 -69 -166 -69c-269 0 -182 282 -323 282c-53 0 -96 -36 -96 -99v-308h-79v144c-28 -29 -69 -46 -116 -46c-109 0 -184 72 -184 180c0 41 11 77 29 106h-134c-117 0 -177 -53 -177 -156c0 -95 46 -160 144 -160c7 0 17 0 23 1v-67c-8 -1 -18 -2 -30 -2
c-136 0 -216 98 -216 229c0 128 80 223 247 223h223c27 12 57 18 89 18c9 0 18 -1 23 -3v-66c-5 1 -13 1 -19 1c-69 0 -124 -44 -124 -123c0 -68 47 -117 115 -117c57 0 107 45 107 108v305h-748v67h1606z" />
    <glyph glyph-name="dvT_K_RA" horiz-adv-x="1140" 
d="M1162 575h-367v-142c28 29 68 47 116 47c109 0 184 -73 184 -181c0 -120 -90 -191 -198 -191c-9 0 -18 1 -23 2v67c5 -1 13 -2 19 -2c69 0 124 45 124 124c0 67 -47 116 -115 116c-57 0 -107 -45 -107 -107v-308h-79v147l-181 -192h-95l140 145c-96 7 -165 76 -165 178
c0 41 11 77 29 106h-123c-117 0 -177 -53 -177 -156c0 -95 46 -160 144 -160c7 0 17 0 23 1v-67c-8 -1 -18 -2 -30 -2c-136 0 -216 98 -216 229c0 128 80 223 247 223h213c27 12 57 18 89 18c8 0 17 -1 23 -3v-66c-5 1 -14 1 -20 1c-69 0 -123 -44 -123 -123
c0 -68 46 -117 114 -117c57 0 108 45 108 108v305h-738v67h1184v-67z" />
    <glyph glyph-name="dvT_K_VA" horiz-adv-x="1454" 
d="M1283 313v262h-492v-143c28 29 69 48 117 48c43 0 82 -12 112 -34c30 17 66 27 106 27c22 0 47 -3 63 -8v-69c-17 6 -37 9 -59 9c-69 0 -123 -48 -123 -122c0 -79 55 -128 124 -128c98 0 152 78 152 158zM1477 642v-67h-116v-575h-78v166c-30 -43 -84 -75 -160 -75
c-101 0 -195 69 -195 191c0 43 13 83 36 114c-18 12 -40 19 -65 19c-57 0 -108 -45 -108 -107v-308h-79v144c-28 -29 -69 -46 -116 -46c-109 0 -184 72 -184 180c0 41 11 77 29 106h-120c-117 0 -177 -53 -177 -156c0 -95 46 -160 144 -160c7 0 17 0 23 1v-67
c-8 -1 -18 -2 -30 -2c-136 0 -216 98 -216 229c0 128 80 223 247 223h209c27 12 57 18 89 18c9 0 18 -1 23 -3v-66c-5 1 -13 1 -19 1c-69 0 -124 -44 -124 -123c0 -68 47 -117 115 -117c57 0 107 45 107 108v305h-734v67h1499z" />
    <glyph glyph-name="dvT_K_SSA" horiz-adv-x="1156" 
d="M439 642v-67h-461v67h461zM673 583c-54 0 -90 -39 -90 -85c0 -59 37 -91 95 -103c44 15 84 41 84 104c0 41 -39 84 -89 84zM982 642h196v-67h-116v-575h-79l-1 325h-248c-25 0 -48 2 -71 7c-69 -21 -129 -62 -129 -127c0 -58 46 -94 104 -94c68 0 123 48 139 117h72v-228
h-77v112c-19 -36 -80 -67 -140 -67c-107 0 -179 64 -179 158c0 27 7 51 19 72c-12 62 -61 109 -126 109h-33c-106 0 -169 -53 -169 -156c0 -95 46 -160 144 -160c7 0 17 0 23 1v-67c-8 -1 -18 -2 -30 -2c-136 0 -216 98 -216 229c0 128 81 223 239 223h41
c96 0 155 -56 178 -120c17 13 37 24 58 32c-46 30 -75 76 -75 135c0 75 66 149 163 149c102 0 170 -67 170 -145c0 -56 -24 -90 -58 -114h201v253z" />
    <glyph glyph-name="dvT_KHA" horiz-adv-x="1179" 
d="M1201 642v-67h-115v-575h-79v180c-32 -33 -74 -47 -120 -47c-89 0 -167 65 -167 165c0 106 79 168 169 168c16 0 34 -2 48 -5v-65c-13 4 -26 5 -38 5c-57 0 -102 -42 -102 -104s42 -101 103 -101c57 0 107 42 107 110v269h-309v-142c0 -97 -67 -150 -163 -154l-12 -1
l220 -278h-97l-215 279v14c0 53 -40 91 -103 91h-36c-88 0 -148 -57 -148 -156c0 -95 46 -160 144 -160c7 0 17 0 23 1v-67c-8 -1 -18 -2 -30 -2c-137 0 -216 98 -216 229c0 127 78 223 227 223h38c88 0 150 -46 171 -108c86 1 119 38 119 97v134h-642v67h1223z" />
    <glyph glyph-name="dvT_KH_RA" horiz-adv-x="1159" 
d="M987 450v125h-335v-116c0 -95 -26 -145 -116 -148l-12 -1c27 -104 120 -194 250 -194c127 0 217 76 217 187c0 75 -41 125 -115 125c-57 0 -89 -39 -89 -83c0 -43 29 -71 70 -71c15 0 29 3 45 10v-61c-17 -7 -35 -11 -54 -11c-74 0 -136 52 -136 132c0 83 69 147 157 147
c48 0 88 -15 118 -41zM1181 642v-67h-115v-575h-79v141c-52 -54 -145 -125 -308 -250h-118l202 157c-169 5 -279 108 -330 263v8c-3 45 -35 65 -94 65h-45c-91 0 -150 -58 -150 -156c0 -95 46 -160 144 -160c7 0 17 0 23 1v-67c-8 -1 -18 -2 -30 -2c-136 0 -216 97 -216 229
c0 128 79 223 229 223h52c83 0 133 -30 156 -76c66 1 72 29 72 95v104h-596v67h1203z" />
    <glyph glyph-name="dvT_TA" horiz-adv-x="627" 
d="M649 642v-67h-116v-575h-78v384h-92c-119 0 -180 -54 -180 -159c0 -92 48 -157 144 -157c7 0 17 1 23 2v-68c-8 -1 -18 -2 -30 -2c-131 0 -216 89 -216 223c0 66 21 124 72 161c-17 -1 -35 -1 -54 -1h-59v68h392v124h-477v67h671z" />
    <glyph glyph-name="dvT_T_YA" horiz-adv-x="1020" 
d="M848 334v241h-187c15 -23 25 -55 25 -93c0 -94 -70 -140 -148 -164c16 -72 75 -126 155 -126c92 0 155 55 155 142zM1041 642v-67h-115v-575h-78v194c-32 -43 -89 -69 -162 -69c-104 0 -194 64 -229 184c-16 43 -46 75 -104 75h-19c-89 0 -151 -59 -151 -158
c0 -93 48 -158 144 -158c7 0 17 1 23 2v-68c-8 -1 -18 -2 -30 -2c-131 0 -216 89 -216 223c0 66 21 124 72 161c-17 -1 -35 -1 -54 -1h-59v68h290c75 0 125 -28 153 -70c68 22 102 61 102 105c0 39 -15 70 -31 89h-599v67h1063z" />
    <glyph glyph-name="dvT_T_VA" horiz-adv-x="971" 
d="M993 642v-67h-116v-575h-78v166c-30 -43 -84 -75 -160 -75c-101 0 -195 69 -195 191c0 38 10 73 28 102h-109c-119 0 -180 -54 -180 -159c0 -92 48 -157 144 -157c7 0 17 1 23 2v-68c-8 -1 -18 -2 -30 -2c-131 0 -216 89 -216 223c0 66 21 124 72 161
c-17 -1 -35 -1 -54 -1h-59v68h482c28 14 61 22 97 22c22 0 47 -3 63 -8v-69c-17 6 -37 9 -59 9c-69 0 -123 -48 -123 -122c0 -79 55 -128 124 -128c98 0 152 78 152 158v262h-821v67h1015z" />
    <glyph glyph-name="dvT_THA" horiz-adv-x="1008" 
d="M355 642v-67h-377v67h377zM850 642h192v-67h-113v-575h-79v205c-21 -41 -93 -97 -190 -97c-108 0 -210 58 -241 188c-18 52 -46 87 -106 87h-22c-88 0 -147 -52 -147 -155c0 -95 46 -160 144 -160c7 0 17 0 23 1v-67c-8 -1 -18 -2 -30 -2c-136 0 -216 98 -216 229
c0 127 79 222 225 222h29c77 0 127 -39 154 -94c129 34 194 78 194 149c0 42 -20 76 -66 76c-47 0 -68 -32 -68 -69c0 -30 9 -42 12 -52h-77c-4 12 -11 27 -11 60c0 66 54 127 144 127c92 0 143 -64 143 -141c0 -115 -102 -180 -244 -212c21 -74 77 -120 164 -120
c93 0 186 59 186 194v273z" />
    <glyph glyph-name="dvT_NA" horiz-adv-x="656" 
d="M678 642v-67h-116v-575h-78v326l-127 -84c-15 -11 -25 -22 -25 -39c0 -20 13 -42 34 -61l-47 -30c-39 26 -70 61 -70 99c0 31 17 54 57 78l166 100c-23 -2 -55 -5 -91 -5h-62c-117 0 -177 -53 -177 -156c0 -92 48 -154 134 -159v-69c-135 0 -213 101 -213 229
s80 225 247 225h174v121h-506v67h700z" />
    <glyph glyph-name="dvT_N_YA" horiz-adv-x="1031" 
d="M859 334v241h-187c15 -23 25 -55 25 -93c0 -94 -70 -140 -148 -164c16 -72 76 -126 155 -126c92 0 155 55 155 142zM1053 642v-67h-116v-575h-78v194c-32 -43 -89 -69 -162 -69c-100 0 -185 58 -223 168l-120 -47c-20 -8 -35 -23 -35 -42c0 -17 8 -38 23 -58l-51 -21
c-30 28 -53 63 -53 96c0 39 22 60 71 79l144 52c-16 26 -42 35 -83 35h-51c-118 0 -177 -56 -177 -159c0 -92 48 -154 134 -159v-69c-135 0 -213 101 -213 229s80 225 247 225h66c80 0 124 -30 148 -71c63 23 95 60 95 103c0 39 -15 70 -31 89h-610v67h1075z" />
    <glyph glyph-name="dvT_PA" horiz-adv-x="908" 
d="M735 382v193h-234v-201c0 -97 35 -134 106 -134c67 0 128 51 128 142zM929 642v-67h-115v-575h-79v238c-28 -37 -72 -61 -133 -62c-113 0 -180 58 -180 199v9h-101c-117 0 -177 -53 -177 -156c0 -95 46 -160 144 -160c7 0 17 0 23 1v-67c-8 -1 -18 -2 -30 -2
c-136 0 -216 98 -216 229c0 128 80 223 247 223h110v123h-444v67h951z" />
    <glyph glyph-name="dvT_P_RA" horiz-adv-x="925" 
d="M752 399v176h-234v-183c0 -97 35 -134 106 -134c67 0 128 50 128 141zM946 642v-67h-115v-575h-79v255l-243 -255h-102l184 196c-94 9 -149 64 -152 188h-118c-117 0 -177 -53 -177 -156c0 -95 46 -160 144 -160c7 0 17 0 23 1v-67c-8 -1 -18 -2 -30 -2
c-136 0 -216 98 -216 229c0 128 80 223 247 223h127v123h-461v67h968z" />
    <glyph glyph-name="dvT_P_LA" horiz-adv-x="1408" 
d="M1235 462v113h-740v-201c0 -97 35 -134 106 -134c53 0 101 28 132 72c16 93 77 157 168 157c73 0 121 -35 134 -94c15 64 65 98 140 98c24 0 45 -5 60 -11zM1430 642v-67h-116v-575h-79v396c-14 7 -33 13 -54 13c-66 0 -108 -38 -108 -127v-72h-78v74
c0 83 -32 119 -87 119s-101 -46 -101 -141c0 -106 53 -196 173 -196c6 0 17 0 27 2v-65c-12 -2 -27 -3 -38 -3c-133 0 -222 94 -238 222c-35 -27 -80 -46 -135 -46c-114 0 -180 58 -180 199v9h-95c-117 0 -177 -53 -177 -156c0 -95 46 -160 144 -160c7 0 17 0 23 1v-67
c-8 -1 -18 -2 -30 -2c-136 0 -216 98 -216 229c0 128 80 223 247 223h104v123h-438v67h1452z" />
    <glyph glyph-name="dvT_PHA" horiz-adv-x="1153" 
d="M743 382v193h-234v-201c0 -97 35 -130 106 -130c67 0 128 47 128 138zM1175 575h-353v-138c29 30 70 47 118 47c109 0 182 -74 182 -180c0 -122 -91 -191 -198 -191c-9 0 -18 0 -24 2v67c6 -1 14 -2 20 -2c69 0 123 42 123 124c0 68 -46 116 -112 116
c-60 0 -109 -47 -109 -110v-310h-79v238c-28 -35 -72 -58 -133 -59c-115 0 -180 51 -180 192v13h-109c-117 0 -177 -53 -177 -156c0 -95 46 -160 144 -160c7 0 17 0 23 1v-67c-8 -1 -18 -2 -30 -2c-136 0 -216 98 -216 229c0 128 80 223 247 223h118v123h-452v67h1197v-67z
" />
    <glyph glyph-name="dvT_MA" horiz-adv-x="931" 
d="M759 346v229h-210v-229h210zM952 642v-67h-115v-575h-78v280h-210v-136h-68l-25 56c-13 31 -27 65 -27 90c0 27 17 47 42 53v41h-150c-117 0 -177 -53 -177 -156c0 -95 46 -160 144 -160c7 0 17 0 23 1v-67c-8 -1 -18 -2 -30 -2c-136 0 -216 98 -216 229
c0 128 80 223 247 223h159v123h-493v67h974z" />
    <glyph glyph-name="dvT_M_YA" horiz-adv-x="1298" 
d="M1127 334v241h-187c15 -23 25 -55 25 -93c0 -80 -64 -142 -148 -168c18 -71 76 -122 155 -122c92 0 155 55 155 142zM542 347h66c137 0 279 30 279 144c0 36 -12 64 -31 84h-314v-228zM1321 642v-67h-116v-575h-78v194c-32 -43 -89 -69 -162 -69c-105 0 -188 58 -226 164
c-47 -7 -98 -11 -152 -11h-45v-135h-68l-25 56c-13 31 -27 64 -27 90c0 28 17 49 42 55v40h-143c-117 0 -177 -53 -177 -156c0 -95 46 -160 144 -160c7 0 17 0 23 1v-67c-8 -1 -18 -2 -30 -2c-136 0 -216 98 -216 229c0 128 80 223 247 223h152v123h-486v67h1343z" />
    <glyph glyph-name="dvT_YA" horiz-adv-x="977" 
d="M805 334v241h-187c15 -23 25 -55 25 -93c0 -94 -70 -140 -148 -164c16 -72 75 -126 155 -126c92 0 155 55 155 142zM998 642v-67h-115v-575h-78v194c-32 -43 -89 -69 -162 -69c-109 0 -201 69 -233 199c-17 36 -50 60 -97 60h-20c-90 0 -149 -53 -149 -156
c0 -95 46 -160 144 -160c7 0 17 0 23 1v-67c-8 -1 -18 -2 -30 -2c-138 0 -216 98 -216 229c0 128 79 223 228 223h18c74 0 125 -30 152 -71c68 23 102 61 102 105c0 39 -15 70 -31 89h-556v67h1020z" />
    <glyph glyph-name="dvT_R_YA" horiz-adv-x="926" 
d="M755 334v241h-187c15 -23 25 -55 25 -93c0 -94 -70 -140 -148 -164c16 -72 75 -126 155 -126c92 0 155 55 155 142zM948 642v-67h-115v-575h-78v194c-32 -43 -89 -69 -162 -69c-78 0 -148 36 -193 104l-284 -178l-42 58l293 181c-31 60 -85 105 -163 107
c-59 0 -114 -21 -149 -40v73c32 19 88 35 150 35c76 0 143 -31 188 -90c82 22 122 63 122 111c0 39 -15 70 -31 89h-506v67h970z" />
    <glyph glyph-name="dvT_LA" horiz-adv-x="1098" 
d="M1120 642v-67h-116v-575h-79v396c-14 7 -33 13 -54 13c-66 0 -108 -38 -108 -127v-72h-78v74c0 83 -32 119 -87 119s-101 -46 -101 -141c0 -106 53 -196 173 -196c6 0 17 0 27 2v-65c-12 -2 -27 -3 -38 -3c-147 0 -240 114 -240 263c0 46 10 88 28 121h-126
c-117 0 -177 -53 -177 -156c0 -95 46 -160 144 -160c7 0 17 0 23 1v-67c-8 -1 -18 -2 -30 -2c-136 0 -216 98 -216 229c0 128 80 223 247 223h204c22 11 47 17 75 17c73 0 121 -35 134 -94c15 64 65 98 140 98c24 0 45 -5 60 -11v113h-947v67h1142z" />
    <glyph glyph-name="dvT_VA" horiz-adv-x="936" 
d="M958 642v-67h-116v-575h-78v166c-30 -43 -84 -75 -160 -75c-101 0 -195 69 -195 191c0 38 10 73 28 102h-116c-117 0 -177 -53 -177 -156c0 -95 46 -160 144 -160c7 0 17 0 23 1v-67c-8 -1 -18 -2 -30 -2c-136 0 -216 98 -216 229c0 128 80 223 247 223h200
c27 13 60 21 95 21c22 0 47 -3 63 -8v-69c-17 6 -37 9 -59 9c-69 0 -123 -48 -123 -122c0 -79 55 -128 124 -128c98 0 152 78 152 158v262h-786v67h980z" />
    <glyph glyph-name="dvT_SA" horiz-adv-x="1039" 
d="M647 333h221v242h-194v-143c0 -42 -9 -75 -27 -99zM1061 642v-67h-115v-575h-78v265h-168c-84 0 -137 4 -170 9l184 -274h-95l-187 282v9c-4 56 -39 93 -107 93h-31c-92 0 -150 -57 -150 -156c0 -95 46 -160 144 -160c7 0 17 0 23 1v-67c-8 -1 -18 -2 -30 -2
c-137 0 -216 98 -216 229c0 128 78 223 228 223h35c95 0 152 -47 173 -108c78 1 95 35 95 94v137h-618v67h1083z" />
    <glyph glyph-name="dvT_S_NA" horiz-adv-x="1156" 
d="M674 575v-143c0 -6 0 -11 -1 -17c34 17 78 30 132 30c86 0 144 -34 179 -67v197h-310zM1178 642v-67h-116v-575h-78v257l-149 -53c-23 -9 -33 -23 -33 -43c0 -24 16 -52 33 -73l-58 -20c-33 28 -62 73 -62 111s23 64 67 78l176 58c-37 34 -89 63 -153 63
c-69 0 -120 -23 -168 -57c-23 -25 -58 -38 -102 -40h-10l180 -281h-93l-180 282v9c-4 56 -39 93 -107 93h-31c-92 0 -150 -57 -150 -156c0 -95 46 -160 144 -160c7 0 17 0 23 1v-67c-8 -1 -18 -2 -30 -2c-137 0 -216 98 -216 229c0 128 78 223 228 223h35
c95 0 152 -47 173 -108c78 1 95 35 95 94v137h-618v67h1200z" />
    <glyph glyph-name="dvT_S_YA" horiz-adv-x="1397" 
d="M1225 334v241h-186c14 -23 24 -55 24 -93c0 -93 -71 -154 -143 -177c19 -72 74 -113 151 -113c91 0 154 55 154 142zM647 333h41c144 0 297 45 297 153c0 39 -14 70 -30 89h-281v-143c0 -42 -9 -75 -27 -99zM1419 642v-67h-116v-575h-78v194c-31 -43 -88 -69 -162 -69
c-100 0 -181 47 -218 156c-49 -12 -98 -16 -139 -16h-22c-73 0 -123 5 -155 9l185 -274h-95l-187 282v9c-4 56 -39 93 -107 93h-31c-92 0 -150 -57 -150 -156c0 -95 46 -160 144 -160c7 0 17 0 23 1v-67c-8 -1 -18 -2 -30 -2c-137 0 -216 98 -216 229c0 128 78 223 228 223
h35c95 0 152 -47 173 -108c78 1 95 35 95 94v137h-618v67h1441z" />
    <glyph glyph-name="dvT_S_VA" horiz-adv-x="1352" 
d="M1181 313v262h-507v-143c0 -42 -9 -75 -27 -99h185c21 83 94 140 192 140c22 0 47 -3 63 -8v-69c-17 6 -37 9 -59 9c-69 0 -123 -48 -123 -122c0 -79 55 -128 124 -128c98 0 152 78 152 158zM1375 642v-67h-116v-575h-78v166c-30 -43 -84 -75 -160 -75
c-96 0 -186 63 -194 174h-127c-84 0 -137 4 -170 9l184 -274h-95l-187 282v9c-4 56 -39 93 -107 93h-31c-92 0 -150 -57 -150 -156c0 -95 46 -160 144 -160c7 0 17 0 23 1v-67c-8 -1 -18 -2 -30 -2c-137 0 -216 98 -216 229c0 128 78 223 228 223h35c95 0 152 -47 173 -108
c78 1 95 35 95 94v137h-618v67h1397z" />
    <glyph glyph-name="dvTH_NA" horiz-adv-x="656" 
d="M484 642h194v-67h-116v-575h-78v201c-10 -20 -32 -42 -62 -60v0l-221 -146c-14 -9 -20 -22 -20 -34c0 -28 22 -52 41 -72l-50 -32c-40 27 -77 66 -77 110c0 32 17 55 58 78l108 65c-107 12 -201 84 -216 232c170 36 256 82 256 164c0 42 -20 76 -67 76s-67 -32 -67 -69
c0 -32 9 -45 13 -56h-77c-5 14 -13 30 -13 64c0 66 55 127 144 127c93 0 144 -64 144 -141c0 -115 -97 -176 -242 -211c20 -80 78 -121 161 -121c94 0 187 64 187 198v269z" />
    <glyph glyph-name="dvTH_YA" horiz-adv-x="1022" 
d="M851 334v241h-187c15 -23 25 -55 25 -93c0 -94 -70 -140 -149 -164c17 -72 76 -126 156 -126c91 0 155 55 155 142zM448 642h596v-67h-116v-575h-77v194c-32 -43 -89 -69 -162 -69c-66 0 -126 25 -170 74c-56 -52 -134 -91 -226 -91c-129 0 -247 66 -265 234
c170 36 256 82 256 164c0 42 -20 76 -66 76c-47 0 -67 -32 -67 -69c0 -32 8 -45 12 -56h-77c-5 14 -12 30 -12 64c0 66 54 127 144 127c93 0 143 -64 143 -141c0 -115 -97 -176 -241 -211c19 -81 89 -121 173 -121c68 0 140 32 188 79c-16 32 -28 70 -33 113
c109 17 163 63 163 119c0 39 -15 70 -31 89h-132v67z" />
    <glyph glyph-name="dvTH_VA" horiz-adv-x="1004" 
d="M1026 642v-67h-115v-575h-78v167c-30 -44 -84 -76 -161 -76c-70 0 -136 33 -170 93c-55 -44 -126 -76 -209 -76c-129 0 -247 66 -265 234c170 36 256 82 256 164c0 42 -20 76 -66 76c-47 0 -67 -32 -67 -69c0 -32 8 -45 12 -56h-77c-5 14 -12 30 -12 64
c0 66 54 127 144 127c93 0 143 -64 143 -141c0 -115 -97 -176 -241 -211c19 -81 89 -121 173 -121c67 0 137 31 186 77c-1 10 -2 20 -2 30c0 109 82 191 198 191c23 0 47 -3 64 -8v-69c-18 6 -37 9 -59 9c-69 0 -124 -48 -124 -122c0 -79 56 -128 125 -128
c98 0 152 78 152 158v262h-390v67h583z" />
    <glyph glyph-name="dvD_GA" horiz-adv-x="558" 
d="M460 408h-175c-90 0 -147 -49 -147 -133c0 -88 52 -139 129 -139c80 0 130 50 132 118h75v-264h-77v133c-24 -31 -73 -50 -126 -52v-77c0 -78 -38 -120 -113 -120c-30 0 -53 6 -69 13v67s27 -14 57 -14c39 0 50 16 50 61v79c-89 25 -142 101 -142 192
c0 115 79 202 224 202h104v101h-404v67h602v-67h-120v-167z" />
    <glyph glyph-name="dvD_G_RA" horiz-adv-x="598" 
d="M462 408h-176c-90 0 -146 -49 -146 -133c0 -88 51 -139 130 -139c81 0 131 50 133 118h71l102 -264h-78l-63 167v-370h-74v84l-130 -105h-105l235 185v138c-26 -12 -57 -19 -92 -19h-7v-75c0 -77 -37 -118 -112 -118c-29 0 -52 6 -68 12v67s27 -14 57 -14
c38 0 49 16 49 60v81c-83 28 -132 102 -132 189c0 115 78 202 224 202h104v101h-406v67h642v-67h-158v-167z" />
    <glyph glyph-name="dvD_GHA" horiz-adv-x="718" 
d="M273 125l-17 -14c-26 -23 -50 -57 -50 -96c0 -33 22 -54 53 -54c48 0 89 42 103 117c-35 8 -65 25 -89 47zM213 272v7c-62 -3 -120 -34 -120 -84c0 -38 29 -54 61 -54c23 0 48 8 66 23l15 12c-14 29 -22 61 -22 96zM619 408h-176c-90 0 -147 -49 -147 -133
c0 -88 52 -139 130 -139c79 0 130 50 132 118h75v-264h-78v133c-25 -32 -75 -51 -129 -52c-24 -117 -97 -173 -172 -173c-62 0 -115 40 -115 107c0 33 10 65 34 87c-16 -6 -32 -9 -47 -9c-57 0 -108 37 -108 102c0 104 111 155 202 155h3c26 80 98 134 213 134h104v101h-562
v67h762v-67h-121v-167z" />
    <glyph glyph-name="dvD_DA" horiz-adv-x="520" 
d="M418 575v-159c-40 14 -96 23 -147 23c-69 0 -115 -24 -115 -66c0 -44 41 -62 100 -62h51v-68h-47c-68 0 -109 -34 -109 -81c0 -46 34 -75 89 -75c61 0 117 38 132 118h75v-222h-77v104c-24 -38 -82 -65 -139 -65c-87 0 -159 50 -159 135c0 59 42 109 102 117
c-61 4 -100 43 -100 102c0 79 72 128 189 128c27 0 53 -2 77 -6v77h-362v67h564v-67h-124z" />
    <glyph glyph-name="dvD_DHA" horiz-adv-x="731" 
d="M290 122l-18 -15c-27 -23 -51 -57 -51 -96c0 -33 23 -55 54 -55c47 0 89 44 103 121c-35 8 -64 24 -88 45zM632 408h-176c-90 0 -146 -49 -146 -133c0 -88 51 -139 129 -139c80 0 130 50 132 118h75v-264h-77v133c-25 -31 -73 -50 -127 -52c-23 -120 -97 -177 -173 -177
c-61 0 -115 40 -115 106c0 34 11 66 34 88c-15 -6 -32 -9 -47 -9c-56 0 -105 33 -105 96c0 65 63 84 63 168l67 -22c-1 -77 -54 -86 -54 -140c0 -29 22 -44 52 -44c22 0 52 7 72 23l15 12c-16 29 -25 64 -25 100c0 115 79 202 224 202h104v101h-576v67h775v-67h-121v-167z
" />
    <glyph glyph-name="dvD_NA" horiz-adv-x="560" 
d="M462 408h-176c-90 0 -146 -49 -146 -133c0 -88 51 -139 129 -139c80 0 130 50 132 118h75v-264h-78v133c-7 -9 -15 -16 -25 -23v0l-174 -118c-13 -9 -23 -21 -23 -38c0 -25 20 -50 41 -69l-51 -32c-43 28 -76 69 -76 109c0 31 18 54 56 78l76 44
c-103 17 -166 99 -166 198c0 115 78 202 224 202h104v101h-406v67h604v-67h-120v-167z" />
    <glyph glyph-name="dvD_BA" horiz-adv-x="578" 
d="M415 40v99c-26 -33 -81 -53 -138 -53h-11c-7 -1 -13 -2 -19 -3l144 -126c15 21 24 49 24 83zM360 -74l-157 134c-19 -17 -30 -41 -30 -69c0 -57 48 -90 109 -90c26 0 54 8 78 25zM483 408h-177c-92 0 -156 -45 -156 -129c0 -80 54 -127 132 -127c81 0 133 47 136 115h74
v-464h-77v100l-12 -14l-1 1c-33 -34 -82 -54 -134 -54c-95 0 -173 60 -173 148c0 53 24 99 71 126c-65 32 -100 95 -100 166c0 115 89 198 234 198h105v101h-427v67h622v-67h-117v-167z" />
    <glyph glyph-name="dvD_B_RA" horiz-adv-x="575" 
d="M412 40v99c-26 -33 -81 -53 -138 -53h-11c-7 -1 -13 -2 -19 -3l144 -126c15 21 24 49 24 83zM357 -75l-157 135c-20 -17 -30 -41 -30 -69c0 -57 48 -90 108 -90c27 0 55 8 79 24zM480 408h-177c-92 0 -157 -45 -157 -129c0 -80 55 -127 133 -127c81 0 133 47 135 115h75
v-464h-77v100l-13 -14l-2 2c-8 -8 -17 -15 -26 -22h1l-163 -127h-104l126 97c-79 12 -139 68 -139 145c0 53 24 99 71 126c-66 32 -100 95 -100 166c0 115 88 198 233 198h106v101h-424v67h619v-67h-117v-167z" />
    <glyph glyph-name="dvD_BHA" horiz-adv-x="700" 
d="M601 408h-176c-90 0 -146 -49 -146 -133c0 -88 51 -139 129 -139c80 0 130 50 132 118h75v-264h-77v133c-17 -21 -45 -37 -78 -45l-209 -112l48 -95l-53 -29c-50 36 -105 72 -105 107c0 13 6 25 16 35l-32 63c-13 27 -24 41 -45 41c-22 0 -46 -21 -60 -38l-30 54
c23 32 64 57 104 57s69 -23 91 -67l37 -72l110 59c-86 27 -137 102 -137 191c0 115 79 202 224 202h104v101h-545v67h744v-67h-121v-167z" />
    <glyph glyph-name="dvD_MA" horiz-adv-x="731" 
d="M559 121v454h-158v-153h-147c-89 0 -144 -35 -144 -106c0 -61 44 -97 103 -97c58 0 110 40 114 98h74v-196h158zM753 642v-67h-116v-713h-78v191h-158v-113h-68c-29 51 -53 95 -53 124c0 27 18 49 43 54v89c-20 -32 -66 -56 -122 -56c-96 0 -170 64 -170 165
c0 106 81 172 216 172h76v87h-345v67h775z" />
    <glyph glyph-name="dvD_YA" horiz-adv-x="655" 
d="M483 300v275h-132v-135c-33 11 -72 16 -102 16c-61 0 -92 -24 -92 -61c0 -44 48 -63 125 -63h43v-68h-43c-70 0 -132 -14 -132 -67c0 -47 56 -68 126 -68c107 0 207 62 207 171zM677 642v-67h-116v-575h-78v156c-31 -47 -110 -93 -211 -93c-103 0 -200 44 -200 134
c0 64 59 99 115 101c-55 5 -110 35 -110 98c0 67 59 118 157 118c14 0 27 -1 39 -2v63h-295v67h699z" />
    <glyph glyph-name="dvD_VA" horiz-adv-x="559" 
d="M396 40v99c-26 -33 -78 -53 -135 -53h-6c-60 -7 -94 -47 -94 -96c0 -53 39 -87 99 -87c64 0 136 43 136 137zM460 408h-168c-90 0 -154 -45 -154 -129c0 -81 51 -127 129 -127c80 0 130 50 132 118h75v-467h-78v105c-30 -42 -84 -70 -146 -70c-96 0 -168 59 -168 147
c0 52 25 97 72 123c-66 33 -100 96 -100 168c0 115 86 198 231 198h97v101h-404v67h603v-67h-121v-167z" />
    <glyph glyph-name="dvDH_NA" horiz-adv-x="642" 
d="M664 642v-67h-116v-575h-78v175c-12 -19 -30 -38 -53 -54v0l-193 -132c-14 -9 -20 -22 -20 -34c0 -26 20 -50 42 -68l-52 -32c-38 22 -75 65 -75 107c0 30 16 54 57 78l74 43c-113 8 -179 67 -179 150c0 72 55 118 127 126c-72 8 -123 44 -123 115c0 45 23 81 62 101
h-159v67h317v-67c-91 0 -141 -43 -141 -100c0 -64 64 -83 137 -83h50v-66h-59c-79 0 -132 -35 -132 -89c0 -55 48 -88 132 -88c120 0 188 89 188 167v326h194z" />
    <glyph glyph-name="dvDH_N_YA" horiz-adv-x="1013" 
d="M842 334v241h-187c15 -23 25 -55 25 -93c0 -94 -70 -140 -149 -164c17 -72 76 -126 156 -126c91 0 155 55 155 142zM429 642h606v-67h-115v-575h-78v194c-32 -43 -89 -69 -162 -69c-65 0 -124 25 -168 72c-28 -28 -59 -55 -95 -76v0l-193 -132c-14 -9 -20 -22 -20 -34
c0 -26 20 -50 42 -68l-52 -32c-38 22 -75 65 -75 107c0 30 16 54 57 78l74 43c-113 8 -179 67 -179 150c0 72 55 118 127 126c-72 8 -123 44 -123 115c0 45 23 81 62 101h-159v67h317v-67c-91 0 -141 -43 -141 -100c0 -64 64 -83 137 -83h50v-66h-59
c-79 0 -132 -35 -132 -89c0 -55 48 -88 132 -88c83 0 144 48 193 102c-18 32 -30 71 -36 116c109 17 163 63 163 119c0 39 -15 70 -31 89h-142v67z" />
    <glyph glyph-name="dvDH_MA" horiz-adv-x="974" 
d="M803 347v228h-210v-228h210zM426 642h571v-67h-116v-575h-78v278h-210v-135h-68l-9 20c-55 -53 -136 -99 -243 -99c-131 0 -210 70 -210 160c0 77 55 121 127 130c-71 7 -122 45 -122 120c0 45 23 81 62 101h-152v67h310v-67h-1c-91 0 -140 -43 -140 -100
c0 -64 63 -88 136 -88h50v-67h-59c-81 0 -131 -36 -131 -96c0 -53 49 -93 134 -93c91 0 159 41 210 100c-8 21 -14 41 -14 58c0 28 17 49 42 55v231h-89v67z" />
    <glyph glyph-name="dvDH_YA" horiz-adv-x="1021" 
d="M849 334v241h-187c15 -23 25 -55 25 -93c0 -94 -70 -140 -148 -164c16 -72 76 -126 156 -126c91 0 154 55 154 142zM429 642h614v-67h-116v-575h-78v194c-31 -43 -88 -69 -162 -69c-58 0 -111 19 -153 57c-55 -61 -141 -118 -261 -118c-131 0 -210 70 -210 160
c0 77 55 121 127 130c-71 7 -122 45 -122 120c0 45 23 81 62 101h-152v67h310v-67h-1c-91 0 -140 -43 -140 -100c0 -64 63 -88 136 -88h50v-67h-59c-81 0 -131 -36 -131 -96c0 -53 49 -93 134 -93c93 0 162 43 214 104c-22 36 -37 80 -44 132c109 17 162 63 162 119
c0 39 -15 70 -30 89h-150v67z" />
    <glyph glyph-name="dvDH_VA" horiz-adv-x="1002" 
d="M1024 642v-67h-116v-575h-78v166c-30 -43 -84 -75 -160 -75c-61 0 -119 25 -155 71c-56 -53 -136 -98 -242 -98c-131 0 -210 70 -210 160c0 77 55 121 127 130c-71 7 -122 45 -122 120c0 45 23 81 62 101h-152v67h310v-67h-1c-91 0 -140 -43 -140 -100
c0 -64 63 -88 136 -88h50v-67h-59c-81 0 -131 -36 -131 -96c0 -53 49 -93 134 -93c88 0 155 39 205 95c-4 17 -7 36 -7 56c0 109 81 191 197 191c23 0 48 -3 64 -8v-69c-17 6 -37 9 -59 9c-69 0 -123 -48 -123 -122c0 -79 55 -128 124 -128c98 0 152 78 152 158v262h-364v67
h558z" />
    <glyph glyph-name="dvN_KA" horiz-adv-x="1044" 
d="M1066 575h-368v-143c28 29 69 48 117 48c109 0 184 -73 184 -181c0 -120 -90 -191 -199 -191c-8 0 -17 1 -23 2v67c5 -1 14 -2 20 -2c69 0 123 45 123 124c0 67 -46 116 -114 116c-57 0 -108 -45 -108 -107v-308h-79v144c-28 -29 -69 -46 -116 -46
c-109 0 -184 72 -184 180c0 18 2 35 6 51h-184c-24 0 -32 -12 -32 -39c0 -22 5 -50 13 -74h-66c-12 24 -28 63 -28 104c0 45 27 75 87 75h241c36 48 95 75 161 75c9 0 18 -1 23 -3v-66c-5 1 -13 1 -19 1c-69 0 -124 -44 -124 -123c0 -68 47 -117 115 -117
c57 0 107 45 107 108v305h-641v67h1088v-67z" />
    <glyph glyph-name="dvN_K_SA" horiz-adv-x="1485" 
d="M1093 333h220v242h-193v-143c0 -42 -9 -75 -27 -99zM681 575v-141c25 27 62 44 109 44c92 0 146 -57 162 -134c73 2 89 36 89 94v137h-360zM1507 642v-67h-116v-575h-78v265h-168c-84 0 -137 4 -170 9l184 -274h-95l-187 282v23c0 57 -34 109 -97 109
c-57 0 -99 -45 -99 -106v-308h-79v144c-28 -29 -69 -46 -116 -46c-109 0 -184 72 -184 180c0 18 2 35 6 51h-167c-24 0 -32 -12 -32 -39c0 -22 5 -50 13 -74h-66c-12 24 -28 63 -28 104c0 45 27 75 87 75h224c36 48 95 75 161 75c9 0 18 -1 23 -3v-66c-5 1 -13 1 -19 1
c-69 0 -124 -44 -124 -123c0 -68 47 -117 115 -117c57 0 107 45 107 108v305h-624v67h1529z" />
    <glyph glyph-name="dvN_CA" horiz-adv-x="857" 
d="M879 642v-67h-116v-575h-78v188c-30 -49 -92 -88 -183 -89c-105 0 -186 51 -186 144c0 54 29 93 77 116h-252c-24 0 -32 -12 -32 -39c0 -22 5 -50 13 -74h-66c-12 24 -28 63 -28 104c0 45 27 76 87 76h478v-67c-146 0 -200 -48 -200 -110c0 -56 48 -85 117 -85
c116 0 175 85 175 163v248h-707v67h901z" />
    <glyph glyph-name="dvN_CHA" horiz-adv-x="850" 
d="M646 481v94h-204c-42 -23 -62 -61 -62 -102c0 -58 48 -92 101 -92h30v-67h-38c-72 0 -110 -35 -110 -88c0 -65 67 -104 152 -104c115 0 201 67 201 186c0 65 -36 110 -112 110c-15 0 -34 -3 -43 -7v65c12 5 36 7 55 7c10 0 20 -1 30 -2zM872 575h-153v-117
c51 -29 76 -83 76 -149c0 -146 -119 -252 -280 -252c-132 0 -231 62 -231 168c0 46 19 82 50 104h-193c-24 0 -32 -12 -32 -39c0 -22 5 -50 13 -74h-66c-12 24 -28 63 -28 104c0 45 27 75 87 75h213c-16 20 -26 46 -26 78c0 37 14 76 45 102h-369v67h894v-67z" />
    <glyph glyph-name="dvN_TTA" horiz-adv-x="728" 
d="M639 575v-186c-19 3 -49 5 -70 5c-114 0 -198 -53 -198 -157c0 -97 73 -149 177 -149c53 0 112 20 142 38v-72c-31 -16 -90 -32 -145 -32c-149 0 -255 79 -255 216c0 33 7 64 19 91h-168c-24 0 -32 -12 -32 -39c0 -22 5 -50 13 -74h-66c-12 24 -28 63 -28 104
c0 45 27 75 87 75h243c44 39 106 62 179 63c8 0 16 0 24 -1v118h-583v67h772v-67h-111z" />
    <glyph glyph-name="dvN_DDA" horiz-adv-x="783" 
d="M662 424h-174c-42 0 -84 -16 -84 -63c0 -45 34 -64 135 -69c108 -3 180 -40 180 -138c-1 -90 -77 -155 -203 -155c-73 0 -141 18 -190 44v77c50 -31 124 -55 190 -55c74 0 123 31 123 88c0 50 -37 70 -130 74c-103 4 -167 36 -181 102h-187c-24 0 -32 -12 -32 -39
c0 -22 5 -50 13 -74h-66c-12 24 -28 63 -28 104c0 45 27 75 87 75h214c17 65 80 96 156 96h99v84h-606v67h828v-67h-144v-151z" />
    <glyph glyph-name="dvN_TA" horiz-adv-x="828" 
d="M851 642v-67h-116v-575h-78v384h-95c-117 0 -177 -53 -177 -156c0 -95 46 -160 144 -160c7 0 17 0 23 1v-67c-8 -1 -18 -2 -30 -2c-136 0 -216 98 -216 229c0 36 7 70 20 100h-185c-24 0 -32 -12 -32 -39c0 -22 5 -50 13 -74h-66c-12 24 -28 63 -28 104c0 45 27 75 87 75
h259c41 36 100 57 179 57h104v123h-679v67h873z" />
    <glyph glyph-name="dvN_T_YA" horiz-adv-x="1198" 
d="M1027 334v241h-187c15 -23 25 -55 25 -93c0 -94 -70 -140 -148 -164c16 -72 75 -126 155 -126c92 0 155 55 155 142zM1220 642v-67h-115v-575h-78v194c-32 -43 -89 -69 -162 -69c-109 0 -201 69 -233 199c-18 36 -50 60 -98 60h-20c-89 0 -148 -53 -148 -156
c0 -95 45 -160 144 -160c6 0 17 0 22 1v-67c-7 -1 -18 -2 -30 -2c-137 0 -216 98 -216 229c0 36 6 70 19 100h-164c-24 0 -32 -12 -32 -39c0 -22 5 -50 13 -74h-66c-12 24 -28 63 -28 104c0 45 27 75 87 75h236c38 36 93 57 163 57h18c75 0 125 -30 152 -71
c69 22 103 60 103 105c0 39 -15 70 -31 89h-778v67h1242z" />
    <glyph glyph-name="dvN_T_RA" horiz-adv-x="786" 
d="M808 642v-67h-116v-575h-79v223l-276 -172l-42 58l298 185c-26 64 -72 115 -149 115c-57 0 -94 -40 -99 -80h-204c-24 0 -32 -12 -32 -39c0 -22 5 -50 13 -74h-66c-12 24 -28 63 -28 104c0 45 27 75 87 75h177c24 49 78 82 150 82c77 0 133 -34 171 -87v185h-635v67h830z
" />
    <glyph glyph-name="dvN_T_SA" horiz-adv-x="1264" 
d="M872 333h221v242h-194v-143c0 -42 -9 -75 -27 -99zM1286 642v-67h-115v-575h-78v265h-168c-84 0 -137 4 -170 9l184 -274h-95l-187 282v9c-4 56 -39 93 -107 93h-31c-92 0 -150 -57 -150 -156c0 -95 45 -160 144 -160c6 0 17 0 22 1v-67c-7 -1 -18 -2 -29 -2
c-138 0 -217 98 -217 229c0 36 6 70 19 100h-167c-24 0 -32 -12 -32 -39c0 -22 5 -50 13 -74h-66c-12 24 -28 63 -28 104c0 45 27 75 87 75h238c38 36 93 57 164 57h36c94 0 151 -47 172 -108c78 1 96 35 96 94v137h-843v67h1308z" />
    <glyph glyph-name="dvN_THA" horiz-adv-x="909" 
d="M305 642v-67h-327v67h327zM738 642h191v-67h-113v-575h-78v205c-22 -41 -94 -97 -191 -97c-111 0 -215 60 -244 197c-17 16 -42 24 -78 24h-84c-24 0 -32 -12 -32 -39c0 -22 5 -50 13 -74h-66c-12 24 -28 63 -28 104c0 45 27 75 87 75h109c75 0 112 -19 137 -38
c128 34 193 78 193 149c0 42 -20 76 -66 76c-47 0 -67 -32 -67 -69c0 -32 8 -45 12 -56h-77c-5 14 -12 30 -12 64c0 66 54 127 144 127c93 0 143 -64 143 -141c0 -115 -97 -176 -241 -211c19 -80 77 -121 161 -121c93 0 187 60 187 194v273z" />
    <glyph glyph-name="dvN_TH_YA" horiz-adv-x="1277" 
d="M305 642v-67h-327v67h327zM1105 334v241h-187c15 -23 25 -55 25 -93c0 -94 -70 -140 -148 -164c16 -72 76 -126 156 -126c91 0 154 55 154 142zM677 642h622v-67h-116v-575h-78v194c-31 -43 -88 -69 -162 -69c-62 0 -119 23 -162 66c-55 -48 -130 -83 -217 -83
c-119 0 -228 56 -259 196v0c-17 17 -43 25 -80 25h-84c-24 0 -32 -12 -32 -39c0 -22 5 -50 13 -74h-66c-12 24 -28 63 -28 104c0 45 27 75 87 75h109c75 0 112 -20 137 -38c129 34 194 78 194 149c0 42 -20 76 -66 76c-47 0 -67 -32 -67 -69c0 -32 8 -45 12 -56h-77
c-5 14 -12 30 -12 64c0 66 54 127 144 127c93 0 143 -64 143 -141c0 -115 -97 -176 -241 -211c19 -81 89 -121 173 -121c64 0 129 28 177 69c-19 34 -32 75 -38 123c109 17 162 63 162 119c0 39 -15 70 -30 89h-158v67z" />
    <glyph glyph-name="dvN_TH_VA" horiz-adv-x="1268" 
d="M289 642v-67h-311v67h311zM1291 642v-67h-116v-575h-78v166c-30 -43 -84 -75 -161 -75c-68 0 -133 32 -168 90c-53 -43 -123 -73 -204 -73c-119 0 -228 56 -259 196v0c-17 17 -43 25 -80 25h-84c-24 0 -32 -12 -32 -39c0 -22 5 -50 13 -74h-66c-12 24 -28 63 -28 104
c0 45 27 75 87 75h109c75 0 112 -20 137 -38c129 34 194 78 194 149c0 42 -20 76 -66 76c-47 0 -67 -32 -67 -69c0 -32 8 -45 12 -56h-77c-5 14 -12 30 -12 64c0 66 54 127 144 127c93 0 143 -64 143 -141c0 -115 -97 -176 -241 -211c19 -81 89 -121 173 -121
c65 0 132 29 181 72c-2 11 -3 23 -3 35c0 109 81 191 197 191c23 0 47 -3 64 -8v-69c-17 6 -37 9 -59 9c-69 0 -123 -48 -123 -122c0 -79 55 -128 124 -128c98 0 152 78 152 158v262h-405v67h599z" />
    <glyph glyph-name="dvN_DA" horiz-adv-x="810" 
d="M713 408h-176c-90 0 -146 -49 -146 -133c0 -88 51 -139 129 -139c80 0 130 50 132 118h75v-264h-78v133c-26 -33 -78 -52 -135 -52c-127 0 -207 90 -207 201c0 20 2 39 7 57h-173c-24 0 -32 -12 -32 -39c0 -22 5 -50 13 -74h-66c-12 24 -28 63 -28 104c0 45 27 75 87 75
h230c37 49 100 79 186 79h104v101h-657v67h855v-67h-120v-167z" />
    <glyph glyph-name="dvN_D_RA" horiz-adv-x="805" 
d="M708 408h-176c-90 0 -146 -49 -146 -133c0 -88 51 -139 129 -139c80 0 130 50 132 118h75v-264h-78v133l-192 -179h-103l139 129c-118 11 -186 95 -186 199c0 20 2 39 7 57h-168c-24 0 -32 -12 -32 -39c0 -22 5 -50 13 -74h-66c-12 24 -28 63 -28 104c0 45 27 75 87 75
h225c37 49 100 79 186 79h104v101h-652v67h850v-67h-120v-167z" />
    <glyph glyph-name="dvN_D_VA" horiz-adv-x="809" 
d="M647 40v99c-26 -33 -78 -53 -135 -53h-6c-60 -7 -94 -47 -94 -96c0 -53 39 -87 99 -87c64 0 136 43 136 137zM711 408h-168c-90 0 -154 -45 -154 -129c0 -81 51 -127 129 -127c80 0 130 50 132 118h75v-467h-78v105c-30 -42 -84 -70 -146 -70c-96 0 -168 59 -168 147
c0 52 25 97 72 123c-66 33 -100 96 -100 168c0 19 2 36 7 53h-171c-24 0 -32 -12 -32 -39c0 -22 5 -50 13 -74h-66c-12 24 -28 63 -28 104c0 45 27 75 87 75h229c39 49 105 79 192 79h97v101h-655v67h854v-67h-121v-167z" />
    <glyph glyph-name="dvN_DHA" horiz-adv-x="863" 
d="M885 642v-67h-115v-575h-78v157c-31 -48 -99 -93 -192 -93c-130 0 -208 70 -208 160c0 48 21 83 55 105h-206c-24 0 -32 -12 -32 -39c0 -22 5 -50 13 -74h-66c-12 24 -28 63 -28 104c0 45 27 75 87 75h210c-18 19 -28 45 -28 79c0 45 23 81 62 101h-381v67h539v-67h-1
c-91 0 -140 -43 -140 -100c0 -64 63 -88 136 -88h50v-67h-59c-81 0 -131 -36 -131 -96c0 -53 49 -93 132 -93c119 0 188 89 188 167v344h193z" />
    <glyph glyph-name="dvN_DH_YA" horiz-adv-x="1221" 
d="M1049 334v241h-187c15 -23 25 -55 25 -93c0 -94 -70 -140 -148 -164c16 -72 76 -126 155 -126c92 0 155 55 155 142zM643 642h600v-67h-116v-575h-78v194c-32 -43 -89 -69 -162 -69c-53 0 -101 16 -141 47c-55 -57 -139 -108 -252 -108c-131 0 -210 70 -210 160
c0 48 21 83 55 105h-198c-24 0 -32 -12 -32 -39c0 -22 5 -50 13 -74h-66c-12 24 -28 63 -28 104c0 45 27 75 87 75h202c-18 19 -28 45 -28 79c0 45 23 81 62 101h-373v67h531v-67h-1c-91 0 -140 -43 -140 -100c0 -64 63 -88 136 -88h50v-67h-59c-81 0 -131 -36 -131 -96
c0 -53 49 -93 134 -93c86 0 152 37 202 91c-27 37 -46 86 -53 145c108 17 162 63 162 119c0 39 -15 70 -31 89h-135v67z" />
    <glyph glyph-name="dvN_DH_RA" horiz-adv-x="858" 
d="M197 642v-67h-219v67h219zM881 642v-67h-116v-575h-78v166l-254 -211h-111l155 129c-117 5 -189 63 -189 149c0 41 18 74 46 96h-193c-24 0 -32 -12 -32 -39c0 -22 5 -50 13 -74h-66c-12 24 -28 63 -28 104c0 45 27 75 87 75h208c-20 18 -31 44 -31 79
c0 62 45 108 114 116l105 -15c-90 0 -140 -43 -140 -100c0 -64 63 -81 136 -81h51v-67h-59c-75 0 -132 -35 -132 -92c0 -54 47 -86 132 -86c119 0 188 89 188 167v326h194z" />
    <glyph glyph-name="dvN_DH_VA" horiz-adv-x="1208" 
d="M1231 642v-67h-116v-575h-78v166c-30 -43 -84 -75 -161 -75c-58 0 -113 23 -149 65c-55 -50 -133 -92 -235 -92c-131 0 -210 70 -210 160c0 48 21 83 55 105h-196c-24 0 -32 -12 -32 -39c0 -22 5 -50 13 -74h-66c-12 24 -28 63 -28 104c0 45 27 75 87 75h200
c-18 19 -28 45 -28 79c0 45 23 81 62 101h-371v67h529v-67h-1c-91 0 -140 -43 -140 -100c0 -64 63 -88 136 -88h50v-67h-59c-81 0 -131 -36 -131 -96c0 -53 49 -93 134 -93c83 0 147 34 196 85c-6 20 -10 42 -10 66c0 109 81 191 197 191c23 0 47 -3 64 -8v-69
c-17 6 -37 9 -59 9c-69 0 -123 -48 -123 -122c0 -79 55 -128 124 -128c98 0 152 78 152 158v262h-372v67h566z" />
    <glyph glyph-name="dvN_NA" horiz-adv-x="521" 
d="M-22 642h565v-67h-115v-575h-79v211l-167 -30c-31 -6 -42 -23 -42 -48c0 -22 10 -47 18 -67l-55 -13c-18 22 -48 69 -48 113c0 36 21 63 74 73l214 38l-133 95c-15 10 -28 15 -40 15c-31 0 -50 -34 -62 -75l-50 25c4 64 35 139 94 139c23 0 44 -8 69 -27l128 -95v221
h-371v67z" />
    <glyph glyph-name="dvN_N_YA" horiz-adv-x="897" 
d="M726 334v241h-187c15 -23 25 -55 25 -93c0 -94 -70 -140 -148 -164c16 -72 75 -126 155 -126c92 0 155 55 155 142zM919 642v-67h-115v-575h-78v194c-32 -43 -89 -69 -162 -69c-74 0 -141 32 -186 94l-196 -36c-31 -6 -42 -23 -42 -48c0 -22 10 -46 18 -67l-55 -13
c-18 22 -48 69 -48 114c0 35 21 63 74 72l215 38l-134 95c-15 10 -28 15 -40 15c-31 0 -50 -34 -62 -75l-50 25c4 64 35 139 94 139c23 0 44 -8 69 -26l112 -83c102 18 153 63 153 117c0 39 -15 70 -31 89h-477v67h941z" />
    <glyph glyph-name="dvN_PA" horiz-adv-x="802" 
d="M629 382v193h-234v-201c0 -97 35 -134 106 -134c67 0 128 51 128 142zM823 642v-67h-115v-575h-79v238c-28 -37 -72 -61 -133 -62c-100 0 -164 45 -177 153h-178c-24 0 -32 -12 -32 -39c0 -22 5 -50 13 -74h-66c-12 24 -28 63 -28 104c0 45 27 75 87 75h201v180h-338v67
h845z" />
    <glyph glyph-name="dvN_P_RA" horiz-adv-x="803" 
d="M630 399v176h-234v-183c0 -97 35 -134 106 -134c67 0 128 50 128 141zM824 642v-67h-115v-575h-79v255l-243 -255h-102l184 196c-79 7 -130 48 -147 133h-181c-24 0 -32 -12 -32 -39c0 -22 5 -50 13 -74h-66c-12 24 -28 63 -28 104c0 45 27 75 87 75h202v180h-339v67h846
z" />
    <glyph glyph-name="dvN_PHA" horiz-adv-x="1039" 
d="M629 382v193h-234v-201c0 -97 35 -130 106 -130c67 0 128 47 128 138zM1061 575h-353v-138c29 30 70 47 118 47c109 0 182 -74 182 -180c0 -122 -91 -191 -198 -191c-9 0 -18 0 -24 2v67c6 -1 14 -2 20 -2c69 0 123 42 123 124c0 68 -46 116 -112 116
c-60 0 -109 -47 -109 -110v-310h-79v238c-28 -35 -72 -58 -133 -59c-103 0 -166 41 -178 150h-177c-24 0 -32 -12 -32 -39c0 -22 5 -50 13 -74h-66c-12 24 -28 63 -28 104c0 45 27 75 87 75h201v180h-338v67h1083v-67z" />
    <glyph glyph-name="dvN_PH_RA" horiz-adv-x="1063" 
d="M642 399v176h-234v-183c0 -97 35 -134 106 -134c67 0 128 50 128 141zM1085 575h-364v-137c29 30 70 47 118 47c109 0 182 -74 182 -180c0 -123 -91 -192 -198 -192c-9 0 -18 1 -24 3v66c6 -1 14 -2 20 -2c69 0 123 43 123 125c0 67 -46 115 -112 115
c-60 0 -109 -46 -109 -109v-311h-79v255l-243 -255h-102l184 196c-79 7 -130 48 -147 133h-193c-24 0 -32 -12 -32 -39c0 -22 5 -50 13 -74h-66c-12 24 -28 63 -28 104c0 45 27 75 87 75h214v180h-351v67h1107v-67z" />
    <glyph glyph-name="dvN_BHA" horiz-adv-x="799" 
d="M628 642h193v-67h-115v-575h-78v281h-197v-137h-69l-25 56c-13 31 -27 63 -27 89c0 16 6 30 16 40h-185c-24 0 -32 -12 -32 -39c0 -22 5 -50 13 -74h-66c-12 24 -28 63 -28 104c0 45 27 75 87 75h238v114c0 43 -10 66 -53 66h-322v67h334c91 0 119 -40 119 -117v-178h197
v295z" />
    <glyph glyph-name="dvN_BH_YA" horiz-adv-x="1149" 
d="M1009 334v241h-187c15 -23 25 -55 25 -93c0 -94 -68 -149 -148 -172c16 -72 76 -118 155 -118c92 0 155 55 155 142zM535 642h668v-67h-116v-575h-78v194c-32 -43 -89 -69 -162 -69c-106 0 -190 56 -225 167c-51 -9 -103 -11 -145 -11h-46v-137h-69l-25 56
c-13 31 -27 63 -27 89c0 16 6 30 16 40h-185c-24 0 -32 -12 -32 -39c0 -22 5 -50 13 -74h-66c-12 24 -28 63 -28 104c0 45 27 75 87 75h238v114c0 43 -10 66 -53 66h-322v67h334c91 0 119 -40 119 -117v-178h46c103 0 292 10 292 140c0 39 -15 69 -31 88h-203v67z" />
    <glyph glyph-name="dvN_BH_VA" horiz-adv-x="1126" 
d="M1148 642v-67h-115v-575h-78v166c-30 -43 -84 -75 -161 -75c-101 0 -194 69 -195 190h-176v-137h-69l-25 56c-13 31 -27 63 -27 89c0 16 6 30 16 40h-177c-24 0 -32 -12 -32 -39c0 -22 5 -50 13 -74h-66c-12 24 -28 63 -28 104c0 45 27 75 87 75h230v114
c0 43 -10 66 -53 66h-314v67h327c90 0 118 -40 118 -117v-178h187c25 75 96 126 187 126c23 0 47 -3 64 -8v-69c-18 6 -37 9 -59 9c-69 0 -124 -48 -124 -122c0 -79 56 -128 125 -128c98 0 152 78 152 158v262h-411v67h604z" />
    <glyph glyph-name="dvN_MA" horiz-adv-x="803" 
d="M632 346v229h-210v-229h210zM825 642v-67h-115v-575h-78v280h-210v-136h-68l-25 56c-13 31 -27 65 -27 90c0 16 6 29 16 39h-177c-24 0 -32 -12 -32 -39c0 -22 5 -50 13 -74h-66c-12 24 -28 63 -28 104c0 45 27 75 87 75h229v180h-366v67h847z" />
    <glyph glyph-name="dvN_M_YA" horiz-adv-x="1178" 
d="M1007 334v241h-187c15 -23 25 -55 25 -93c0 -80 -64 -142 -148 -168c18 -71 76 -122 155 -122c92 0 155 55 155 142zM422 347h66c137 0 279 30 279 144c0 36 -12 64 -31 84h-314v-228zM1201 642v-67h-116v-575h-78v194c-32 -43 -89 -69 -162 -69c-105 0 -188 58 -226 164
c-47 -7 -98 -11 -152 -11h-45v-135h-68l-25 56c-13 31 -27 64 -27 90c0 16 6 30 15 40h-176c-24 0 -32 -12 -32 -39c0 -22 5 -50 13 -74h-66c-12 24 -28 63 -28 104c0 45 27 75 87 75h229v180h-366v67h1223z" />
    <glyph glyph-name="dvN_YA" horiz-adv-x="865" 
d="M694 334v241h-187c15 -23 25 -55 25 -93c0 -94 -70 -140 -148 -164c16 -72 75 -126 155 -126c92 0 155 55 155 142zM887 642v-67h-115v-575h-78v194c-32 -43 -89 -69 -162 -69c-103 0 -191 62 -228 180c-17 16 -42 24 -79 24h-84c-24 0 -32 -12 -32 -39
c0 -22 5 -50 13 -74h-66c-12 24 -28 63 -28 104c0 45 27 75 87 75h109c50 0 83 -9 107 -20c82 21 123 62 123 111c0 39 -15 70 -31 89h-445v67h909z" />
    <glyph glyph-name="dvN_VA" horiz-adv-x="836" 
d="M859 642v-67h-116v-575h-78v166c-30 -43 -84 -75 -160 -75c-101 0 -195 69 -195 191c0 16 2 32 5 47h-174c-24 0 -32 -12 -32 -39c0 -22 5 -50 13 -74h-66c-12 24 -28 63 -28 104c0 45 27 75 87 75h230c34 48 92 78 163 78c22 0 47 -3 63 -8v-69c-17 6 -37 9 -59 9
c-69 0 -123 -48 -123 -122c0 -79 55 -128 124 -128c98 0 152 78 152 158v262h-687v67h881z" />
    <glyph glyph-name="dvN_SA" horiz-adv-x="907" 
d="M537 333h221v242h-194v-143c0 -42 -9 -75 -27 -99zM951 642v-67h-115v-575h-78v265h-168c-84 0 -137 4 -170 9l184 -274h-95l-187 282c-19 28 -42 47 -86 47h-95c-24 0 -32 -12 -32 -39c0 -22 5 -50 13 -74h-66c-12 24 -28 63 -28 104c0 45 27 75 87 75h128
c68 0 103 -23 127 -51h18c80 0 98 34 98 94v137h-508v67h973z" />
    <glyph glyph-name="dvN_S_TTA" horiz-adv-x="1160" 
d="M537 333h206c37 76 121 124 226 125c8 0 16 0 24 -1v118h-429v-143c0 -42 -9 -75 -27 -99zM1071 575v-186c-19 3 -49 5 -70 5c-114 0 -198 -53 -198 -157c0 -97 73 -149 177 -149c53 0 112 20 142 38v-72c-31 -16 -90 -32 -145 -32c-149 0 -255 79 -255 216
c0 9 1 18 2 27h-134c-84 0 -137 4 -170 9l184 -274h-95l-187 282c-19 28 -42 47 -86 47h-95c-24 0 -32 -12 -32 -39c0 -22 5 -50 13 -74h-66c-12 24 -28 63 -28 104c0 45 27 75 87 75h128c68 0 103 -23 127 -51h18c80 0 98 34 98 94v137h-508v67h1204v-67h-111z" />
    <glyph glyph-name="dvN_S_M_YA" horiz-adv-x="1591" 
d="M1419 334v241h-187c15 -23 25 -55 25 -93c0 -80 -64 -142 -148 -168c18 -71 76 -122 155 -122c92 0 155 55 155 142zM834 347h66c137 0 279 30 279 144c0 36 -12 64 -31 84h-314v-228zM537 333h197c6 5 14 9 22 11v231h-192v-143c0 -42 -9 -75 -27 -99zM1613 642v-67
h-116v-575h-78v194c-32 -43 -89 -69 -162 -69c-105 0 -188 58 -226 164c-47 -7 -98 -11 -152 -11h-45v-135h-68l-25 56c-9 22 -19 45 -24 66h-127c-84 0 -137 4 -170 9l184 -274h-95l-187 282c-19 28 -42 47 -86 47h-95c-24 0 -32 -12 -32 -39c0 -22 5 -50 13 -74h-66
c-12 24 -28 63 -28 104c0 45 27 75 87 75h128c68 0 103 -23 127 -51h18c80 0 98 34 98 94v137h-508v67h1635z" />
    <glyph glyph-name="dvN_S_YA" horiz-adv-x="1287" 
d="M1115 334v241h-186c14 -23 24 -55 24 -93c0 -93 -71 -154 -143 -177c19 -72 74 -113 151 -113c91 0 154 55 154 142zM537 333h41c144 0 297 45 297 153c0 39 -14 70 -30 89h-281v-143c0 -42 -9 -75 -27 -99zM1309 642v-67h-116v-575h-78v194c-31 -43 -88 -69 -162 -69
c-100 0 -181 47 -218 156c-49 -12 -98 -16 -139 -16h-22c-73 0 -123 5 -155 9l185 -274h-95l-187 282c-19 28 -42 47 -86 47h-95c-24 0 -32 -12 -32 -39c0 -22 5 -50 13 -74h-66c-12 24 -28 63 -28 104c0 45 27 75 87 75h128c68 0 103 -23 127 -51h18c80 0 98 34 98 94v137
h-508v67h1331z" />
    <glyph glyph-name="dvN_HA" horiz-adv-x="779" 
d="M688 418h-240c-31 0 -56 -8 -56 -45c0 -38 25 -65 47 -76c28 10 60 15 97 15c117 0 170 -67 170 -134c0 -18 -3 -39 -11 -56h-77c11 15 14 36 14 52c0 39 -29 73 -97 73c-93 0 -140 -48 -140 -99c0 -62 50 -113 174 -113c35 0 82 6 125 18v-67c-53 -13 -92 -17 -131 -17
c-168 0 -246 94 -246 180c0 44 21 87 63 118c-19 13 -42 32 -56 62h-183c-24 0 -32 -12 -32 -39c0 -22 5 -50 13 -74h-66c-12 24 -28 63 -28 104c0 45 27 75 87 75h199c6 58 56 88 121 88h176v92h-633v67h823v-67h-113v-157z" />
    <glyph glyph-name="dvP_TTA" horiz-adv-x="539" 
d="M268 340h132c-4 37 -8 85 -8 134v101h-236v-113c0 -89 39 -122 112 -122zM561 642v-67h-90v-302h-179c-82 0 -142 -36 -142 -107c0 -77 65 -108 152 -108c61 0 131 17 169 38v-72c-40 -19 -109 -33 -175 -33c-126 0 -227 59 -227 172c0 71 39 117 94 140
c-53 18 -86 71 -86 156v116h-99v67h583z" />
    <glyph glyph-name="dvP_TTHA" horiz-adv-x="578" 
d="M264 340h47c73 0 111 34 111 124v111h-268v-113c0 -88 38 -122 110 -122zM436 162c0 76 -63 111 -145 111c-85 0 -150 -38 -150 -111c0 -77 75 -109 145 -109c79 0 150 33 150 109zM501 575v-116c0 -80 -30 -129 -79 -153c55 -27 93 -77 93 -143
c0 -108 -102 -175 -229 -175c-118 0 -223 64 -223 175c0 67 37 117 91 143c-49 24 -79 73 -79 151v118h-97v67h621v-67h-98z" />
    <glyph glyph-name="dvP_TA" horiz-adv-x="567" 
d="M395 351v224h-238v-111c0 -89 38 -113 111 -113h127zM590 642v-67h-116v-575h-79v284h-106c-83 0 -139 -31 -139 -113c0 -67 51 -106 123 -106c13 0 31 0 44 3v-65c-10 -2 -30 -4 -46 -4c-118 0 -200 59 -200 172c0 64 33 124 93 144c-53 19 -86 61 -86 145v115h-100v67
h612z" />
    <glyph glyph-name="dvP_T_YA" horiz-adv-x="1281" 
d="M1110 334v241h-187c15 -23 25 -55 25 -93c0 -94 -70 -140 -148 -164c16 -72 75 -126 155 -126c92 0 155 55 155 142zM597 452h18c75 0 125 -30 152 -71c69 22 103 60 103 105c0 39 -15 70 -31 89h-692v-201c0 -97 35 -134 106 -134c50 0 95 25 126 64
c26 88 100 148 218 148zM1303 642v-67h-115v-575h-78v194c-32 -43 -89 -69 -162 -69c-109 0 -201 69 -233 199c-18 36 -51 60 -98 60h-20c-89 0 -148 -53 -148 -156c0 -95 45 -160 143 -160c7 0 18 0 23 1v-67c-7 -1 -18 -2 -30 -2c-131 0 -209 90 -216 212
c-33 -22 -73 -36 -121 -36c-114 0 -180 58 -180 199v200h-90v67h1325z" />
    <glyph glyph-name="dvP_NA" horiz-adv-x="558" 
d="M386 397v178h-234v-185c0 -97 35 -134 106 -134c67 0 128 50 128 141zM580 642v-67h-115v-575h-79v253c-8 -10 -17 -19 -28 -28l-151 -126c-14 -11 -22 -26 -22 -40c0 -25 22 -51 39 -70l-49 -31c-41 23 -77 61 -77 104c0 28 15 52 54 80l71 52c-95 9 -150 68 -150 197
v184h-95v67h602z" />
    <glyph glyph-name="dvP_PA" horiz-adv-x="864" 
d="M692 382v193h-234v-201c0 -97 35 -134 106 -134c67 0 128 51 128 142zM147 575v-201c0 -97 35 -134 106 -134c53 0 101 28 132 71c-4 19 -6 40 -6 64v200h-232zM886 642v-67h-115v-575h-79v238c-28 -37 -72 -61 -133 -62c-68 0 -120 21 -150 69c-38 -39 -92 -69 -161 -69
c-114 0 -180 58 -180 199v200h-90v67h908z" />
    <glyph glyph-name="dvP_PHA" horiz-adv-x="1102" 
d="M692 382v193h-234v-201c0 -97 35 -130 106 -130c67 0 128 47 128 138zM147 575v-201c0 -97 35 -134 106 -134c53 0 100 28 131 70c-3 18 -5 38 -5 61v204h-232zM1124 575h-353v-138c29 30 70 47 118 47c109 0 182 -74 182 -180c0 -122 -91 -191 -198 -191
c-9 0 -18 0 -24 2v67c6 -1 14 -2 20 -2c69 0 123 42 123 124c0 68 -46 116 -112 116c-60 0 -109 -47 -109 -110v-310h-79v238c-28 -35 -72 -58 -133 -59c-70 0 -121 19 -151 65c-38 -39 -92 -68 -160 -68c-114 0 -180 58 -180 199v200h-90v67h1146v-67z" />
    <glyph glyph-name="dvP_MA" horiz-adv-x="863" 
d="M692 346v229h-210v-229h210zM147 575v-201c0 -97 35 -134 106 -134c42 0 80 17 109 45v5c0 27 16 46 41 53l1 2v230h-257zM885 642v-67h-115v-575h-78v280h-210v-136h-68l-25 56l-8 20c-35 -26 -80 -44 -133 -44c-114 0 -180 58 -180 199v200h-90v67h907z" />
    <glyph glyph-name="dvP_YA" horiz-adv-x="942" 
d="M771 334v241h-187c15 -23 25 -55 25 -93c0 -94 -70 -140 -148 -164c16 -72 75 -126 155 -126c92 0 155 55 155 142zM147 575v-201c0 -97 35 -134 106 -134c51 0 97 26 128 66c-6 19 -10 39 -13 61c109 17 163 63 163 119c0 39 -15 70 -31 89h-353zM964 642v-67h-115v-575
h-78v194c-32 -43 -89 -69 -162 -69c-84 0 -157 41 -202 119c-38 -39 -91 -68 -159 -68c-114 0 -180 58 -180 199v200h-90v67h986z" />
    <glyph glyph-name="dvP_LA" horiz-adv-x="1058" 
d="M885 462v113h-738v-201c0 -97 35 -134 106 -134c52 0 99 27 129 68c15 95 77 161 169 161c73 0 121 -35 134 -94c15 64 65 98 140 98c24 0 45 -5 60 -11zM1080 642v-67h-116v-575h-79v396c-14 7 -33 13 -54 13c-66 0 -108 -38 -108 -127v-72h-78v74c0 83 -32 119 -87 119
s-101 -46 -101 -141c0 -106 53 -196 173 -196c6 0 17 0 27 2v-65c-12 -2 -27 -3 -38 -3c-133 0 -222 93 -237 221c-36 -27 -80 -45 -134 -45c-114 0 -180 58 -180 199v200h-90v67h1102z" />
    <glyph glyph-name="dvP_VA" horiz-adv-x="903" 
d="M731 313v262h-584v-201c0 -97 35 -134 106 -134c49 0 93 24 124 61c9 99 87 172 197 172c22 0 47 -3 63 -8v-69c-17 6 -37 9 -59 9c-69 0 -123 -48 -123 -122c0 -79 55 -128 124 -128c98 0 152 78 152 158zM925 642v-67h-116v-575h-78v166c-30 -43 -84 -75 -160 -75
c-83 0 -162 47 -187 132c-35 -28 -81 -47 -136 -47c-114 0 -180 58 -180 199v200h-90v67h947z" />
    <glyph glyph-name="dvP_SA" horiz-adv-x="950" 
d="M573 333h221v242h-194v-143c0 -42 -9 -75 -27 -99zM147 575v-201c0 -97 35 -134 106 -134c44 0 82 18 105 45v59h66c80 0 98 34 98 94v137h-375zM987 642v-67h-115v-575h-78v265h-168c-84 0 -137 4 -170 9l184 -274h-95l-155 234c-34 -34 -84 -58 -142 -58
c-114 0 -180 58 -180 199v200h-90v67h1009z" />
    <glyph glyph-name="dvPH_JA" horiz-adv-x="1205" 
d="M703 421h330v154h-573v-141c27 28 66 46 113 46c59 0 105 -28 130 -59zM147 575v-201c0 -97 35 -130 106 -130c67 0 128 47 128 138v193h-234zM1228 642v-67h-117v-575h-78v354h-200c42 -23 70 -62 70 -122c0 -107 -81 -169 -197 -169c-48 0 -89 9 -121 22v72
c31 -16 68 -28 112 -28c76 0 128 34 128 106c0 79 -65 119 -173 119v3c-14 32 -42 58 -93 58c-50 0 -99 -45 -99 -107v-308h-79v238c-28 -35 -72 -58 -133 -59c-115 0 -180 51 -180 192v204h-90v67h1250z" />
    <glyph glyph-name="dvPHx_JxA" horiz-adv-x="1205" 
d="M140 67c30 0 54 -24 54 -53c0 -30 -24 -52 -54 -52s-52 22 -52 52c0 29 22 53 52 53zM709 -33c30 0 54 -24 54 -53c0 -30 -24 -52 -54 -52s-52 22 -52 52c0 29 22 53 52 53zM703 421h330v154h-573v-141c27 28 66 46 113 46c59 0 105 -28 130 -59zM147 575v-201
c0 -97 35 -130 106 -130c67 0 128 47 128 138v193h-234zM1228 642v-67h-117v-575h-78v354h-200c42 -23 70 -62 70 -122c0 -107 -81 -169 -197 -169c-48 0 -89 9 -121 22v72c31 -16 68 -28 112 -28c76 0 128 34 128 106c0 79 -65 119 -173 119v3c-14 32 -42 58 -93 58
c-50 0 -99 -45 -99 -107v-308h-79v238c-28 -35 -72 -58 -133 -59c-115 0 -180 51 -180 192v204h-90v67h1250z" />
    <glyph glyph-name="dvPH_TTA" horiz-adv-x="1075" 
d="M460 575v-138c29 30 71 47 122 47c68 0 117 -28 150 -69c41 27 94 43 153 43c8 0 16 0 24 -1v118h-449zM147 575v-201c0 -97 35 -130 106 -130c67 0 128 47 128 138v193h-234zM987 575v-186c-19 3 -49 5 -70 5c-114 0 -198 -53 -198 -157c0 -97 73 -149 177 -149
c53 0 112 20 142 38v-72c-31 -16 -90 -32 -145 -32c-149 0 -255 79 -255 216c0 49 15 92 40 127c-23 35 -58 55 -102 55c-65 0 -116 -45 -116 -110v-310h-79v238c-28 -35 -72 -58 -133 -59c-115 0 -180 51 -180 192v204h-90v67h1120v-67h-111z" />
    <glyph glyph-name="dvPH_TA" horiz-adv-x="1158" 
d="M987 452v123h-527v-138c29 30 71 47 122 47c68 0 117 -28 150 -68c39 23 89 36 151 36h104zM147 575v-201c0 -97 35 -130 106 -130c67 0 128 47 128 138v193h-234zM1181 642v-67h-116v-575h-78v384h-95c-117 0 -177 -53 -177 -156c0 -95 46 -160 144 -160c7 0 17 0 23 1
v-67c-8 -1 -18 -2 -30 -2c-136 0 -216 98 -216 229c0 53 14 100 41 137c-23 34 -58 54 -101 54c-65 0 -116 -45 -116 -110v-310h-79v238c-28 -35 -72 -58 -133 -59c-115 0 -180 51 -180 192v204h-90v67h1203z" />
    <glyph glyph-name="dvPHx_TA" horiz-adv-x="1158" 
d="M140 67c30 0 54 -24 54 -53c0 -30 -24 -52 -54 -52s-52 22 -52 52c0 29 22 53 52 53zM987 452v123h-527v-138c29 30 71 47 122 47c68 0 117 -28 150 -68c39 23 89 36 151 36h104zM147 575v-201c0 -97 35 -130 106 -130c67 0 128 47 128 138v193h-234zM1181 642v-67h-116
v-575h-78v384h-95c-117 0 -177 -53 -177 -156c0 -95 46 -160 144 -160c7 0 17 0 23 1v-67c-8 -1 -18 -2 -30 -2c-136 0 -216 98 -216 229c0 53 14 100 41 137c-23 34 -58 54 -101 54c-65 0 -116 -45 -116 -110v-310h-79v238c-28 -35 -72 -58 -133 -59
c-115 0 -180 51 -180 192v204h-90v67h1203z" />
    <glyph glyph-name="dvPH_NA" horiz-adv-x="811" 
d="M386 397v178h-234v-185c0 -97 35 -134 106 -134c67 0 128 50 128 141zM833 575h-368v-130c29 30 70 47 118 47c109 0 182 -74 182 -180c0 -123 -91 -191 -198 -191c-9 0 -18 0 -24 2v67c6 -1 14 -2 20 -2c69 0 123 42 123 124c0 68 -46 116 -112 116
c-60 0 -109 -47 -109 -110v-318h-79v253c-8 -10 -17 -19 -28 -28l-151 -126c-14 -11 -22 -26 -22 -40c0 -25 22 -51 39 -70l-49 -31c-41 23 -77 61 -77 104c0 28 15 52 54 80l71 52c-95 9 -150 68 -150 197v184h-95v67h855v-67z" />
    <glyph glyph-name="dvPH_PA" horiz-adv-x="1167" 
d="M994 382v193h-234v-201c0 -97 35 -134 106 -134c67 0 128 51 128 142zM460 575v-138c29 30 71 47 122 47c39 0 72 -9 99 -25v116h-221zM147 575v-201c0 -97 35 -130 106 -130c67 0 128 47 128 138v193h-234zM1188 642v-67h-115v-575h-79v238c-28 -37 -72 -61 -133 -62
c-109 0 -175 54 -180 184c-23 38 -60 60 -105 60c-65 0 -116 -45 -116 -110v-310h-79v238c-28 -35 -72 -58 -133 -59c-115 0 -180 51 -180 192v204h-90v67h1210z" />
    <glyph glyph-name="dvPH_PHA" horiz-adv-x="1404" 
d="M994 382v193h-234v-201c0 -97 35 -130 106 -130c67 0 128 47 128 138zM460 575v-138c29 30 71 47 122 47c39 0 72 -9 99 -25v116h-221zM147 575v-201c0 -97 35 -130 106 -130c67 0 128 47 128 138v193h-234zM1426 575h-353v-138c29 30 70 47 118 47
c109 0 182 -74 182 -180c0 -122 -91 -191 -198 -191c-9 0 -18 0 -24 2v67c6 -1 14 -2 20 -2c69 0 123 42 123 124c0 68 -46 116 -112 116c-60 0 -109 -47 -109 -110v-310h-79v238c-28 -35 -72 -58 -133 -59c-112 0 -177 49 -180 182c-23 37 -60 59 -105 59
c-65 0 -116 -45 -116 -110v-310h-79v238c-28 -35 -72 -58 -133 -59c-115 0 -180 51 -180 192v204h-90v67h1448v-67z" />
    <glyph glyph-name="dvPHx_PHxA" horiz-adv-x="1404" 
d="M140 67c30 0 54 -24 54 -53c0 -30 -24 -53 -54 -53s-52 23 -52 53c0 29 22 53 52 53zM754 67c30 0 54 -24 54 -53c0 -30 -24 -53 -54 -53c-31 0 -53 23 -53 53c0 29 22 53 53 53zM994 382v193h-234v-201c0 -97 36 -130 106 -130c68 0 128 47 128 138zM460 575v-138
c29 30 71 47 122 47c39 0 72 -9 99 -25v116h-221zM147 575v-201c0 -97 35 -130 106 -130c67 0 128 47 128 138v193h-234zM1427 575h-354v-138c28 30 70 47 119 47c109 0 181 -74 181 -180c0 -122 -91 -191 -198 -191c-9 0 -18 0 -23 2v67c5 -1 13 -2 20 -2
c69 0 123 42 123 124c0 68 -47 116 -112 116c-61 0 -110 -47 -110 -110v-310h-79v238c-28 -36 -72 -58 -133 -59c-111 0 -177 49 -180 182c-23 37 -60 59 -105 59c-65 0 -116 -45 -116 -110v-310h-79v238c-28 -35 -72 -58 -133 -59c-115 0 -180 51 -180 192v204h-90v67h1449
v-67z" />
    <glyph glyph-name="dvPH_YA" horiz-adv-x="1246" 
d="M1075 334v241h-187c15 -23 25 -55 25 -93c0 -94 -70 -140 -148 -164c16 -72 75 -126 155 -126c92 0 155 55 155 142zM460 575v-138c29 29 71 47 122 47c75 0 125 -43 155 -101c65 22 98 60 98 103c0 39 -15 70 -31 89h-344zM147 575v-201c0 -97 35 -130 106 -130
c67 0 128 47 128 138v193h-234zM1268 642v-67h-115v-575h-78v194c-32 -43 -89 -69 -162 -69c-107 0 -198 67 -231 193h-1c-18 60 -49 102 -112 102c-58 0 -109 -45 -109 -110v-310h-79v238c-28 -35 -72 -58 -133 -59c-115 0 -180 51 -180 192v204h-90v67h1290z" />
    </font>
</defs>
</svg>
